<?xml version="1.0" standalone="no"?>
<!DOCTYPE svg PUBLIC "-//W3C//DTD SVG 20010904//EN"
 "http://www.w3.org/TR/2001/REC-SVG-20010904/DTD/svg10.dtd">
<svg version="1.0" xmlns="http://www.w3.org/2000/svg"
 width="260.000000pt" height="260.000000pt" viewBox="0 0 260.000000 260.000000"
 preserveAspectRatio="xMidYMid meet">
<metadata>
Created by potrace 1.11, written by Peter Selinger 2001-2013
</metadata>
<g transform="translate(0.000000,260.000000) scale(0.100000,-0.100000)"
fill="#000000" stroke="none">
<path d="M23 2461 c13 -150 134 -294 284 -341 56 -17 93 -20 267 -20 213 0
328 -13 452 -51 78 -23 222 -93 292 -141 77 -53 172 -148 222 -225 66 -100 91
-176 97 -298 5 -78 11 -108 28 -135 69 -112 92 -241 60 -327 -22 -56 -85 -127
-137 -154 -20 -10 -39 -19 -40 -19 -2 0 -2 20 0 45 5 62 -3 88 -40 130 -74 84
-208 116 -406 97 -317 -32 -566 -159 -839 -430 -134 -133 -222 -290 -242 -434
-5 -35 -8 -64 -6 -66 1 -1 579 -1 1284 0 l1282 3 -275 367 c-152 202 -271 370
-267 373 18 11 105 151 137 220 120 260 118 607 -5 871 -120 255 -338 453
-593 539 -155 51 -218 55 -917 55 l-644 0 6 -59z"/>
<path d="M1415 1530 c-22 -35 68 -160 115 -160 26 0 25 8 -9 61 -39 60 -97
114 -106 99z"/>
</g>
</svg>
