<svg id="Calque_1" data-name="Calque 1" xmlns="http://www.w3.org/2000/svg" width="997.82" height="817.81" viewBox="0 0 997.82 817.81">
  <defs>
    <style>
      .cls-1 {
        fill: #fe0613;
      }

      .cls-2 {
        fill: #fdfdfd;
      }

      .cls-3 {
        fill: #fe0b18;
      }

      .cls-4 {
        fill: #dcdcdc;
      }

      .cls-5 {
        fill: #191619;
      }

      .cls-6 {
        fill: #fefdfd;
      }

      .cls-7 {
        fill: #fdfcfc;
      }

      .cls-8 {
        fill: #1a171a;
      }

      .cls-9 {
        fill: #fef8f9;
      }

      .cls-10 {
        fill: #fef9fa;
      }

      .cls-11 {
        fill: #281519;
      }

      .cls-12 {
        fill: #feebec;
      }

      .cls-13 {
        fill: #1a1619;
      }

      .cls-14 {
        fill: #fd0714;
      }

      .cls-15 {
        fill: #f3edf7;
      }

      .cls-16 {
        fill: #4a4149;
      }

      .cls-17 {
        fill: #262124;
      }

      .cls-18 {
        fill: #1b181b;
      }

      .cls-19 {
        fill: #4c454c;
      }

      .cls-20 {
        fill: #80030a;
      }

      .cls-21 {
        fill: #1e1b1e;
      }

      .cls-22 {
        fill: #2b292b;
      }

      .cls-23 {
        fill: #fbfbfb;
      }

      .cls-24 {
        fill: #a4040c;
      }
    </style>
  </defs>
  <title>carriere1 copie</title>
  <g id="_6QRGmm" data-name="6QRGmm">
    <g>
      <path class="cls-1" d="M352,817.81H290.15a5.91,5.91,0,0,0-1.58-.57c-8.25-.45-16.53-.49-24.73-1.37s-16.29-2.41-24.36-4c-2.78-.55-6.42-1.43-6.66-4.9-.23-3.23,3.07-4.7,5.62-5.77,7.22-3,14.41-6.28,21.9-8.44,25.73-7.39,51.66-14.06,77.35-21.58,15.41-4.51,30.56-9.94,45.7-15.31a34.6,34.6,0,0,0,9.81-6c3.49-2.84,3.13-6.23-.82-8.35a42.06,42.06,0,0,0-9.93-3.79c-17.53-4.26-35.47-5.43-53.38-6-26.49-.87-53-1.42-79.51-1.34-29.77.09-59.54.92-89.31,1.64-17.43.43-34.85,1.25-52.27,1.94-1.76.07-2.94.08-3.37-2.26-6.4-35-10.44-70.16-8.45-105.8a162.33,162.33,0,0,1,6.54-38.78c4.85-15.74,13.48-28.42,28.24-36.46,4-2.19,7.85-4.75,11.9-6.89,9.89-5.21,19.87-10.27,29.81-15.39l.67-.65-.06.08a24.15,24.15,0,0,0,2.79-.82c27.38-11.71,54.57-23.91,82.19-35,40.36-16.27,81.35-30.88,123.12-43.2A12.27,12.27,0,0,1,381,451a271.25,271.25,0,0,0-16.47,84.83c-.61,19.36,1,38.52,6.42,57.2,4.09,14.23,12.9,24.15,27.54,28,9.16,2.44,18.43,2,27.57-.17,26.26-6.28,47.47-20.54,64.28-41.45,9.05-11.25,15.17-23.92,16.36-38.53.86-10.57,1.49-21.16,2-31.75.94-20.17,1.7-40.35,2.54-60.53l17.08,4.41,1.87.51c.67.24,1.33.49,2,.7,26.94,8.34,53.89,16.62,80.81,25,10.58,3.31,21.06,6.93,31.59,10.41,1,.43,2.05.89,3.1,1.27,52.31,18.81,105,36.66,154.23,63.08a17.89,17.89,0,0,0,2.21,1.59c7.35,3.78,11.09,9.93,11.85,18,1.43,15.09,3.47,30.17,4.07,45.3,1.11,27.79,1.43,55.61,1.92,83.42.24,13.34.11,26.69.15,40-.16,6.52-.27,13-.46,19.57-.54,17.72-13,33.11-30.34,36.75-6.43,1.35-13.15,1.46-19.75,1.85-19.95,1.17-39.91,2.22-59.87,3.28Q672.39,806,633.14,808q-28.87,1.44-57.77,2.65-50.58,2.13-101.19,4.1-24.76,1-49.54,1.6c-14.27.37-28.55.55-42.83.81-8.89,0-17.78,0-26.67.08A17.39,17.39,0,0,0,352,817.81ZM621.32,694.05a13.88,13.88,0,0,0,.76,2.31c.67,1.29,1.48,2.51,2.23,3.76.8-1.17,1.61-2.34,2.4-3.52a10.16,10.16,0,0,0,.49-1.3,21.62,21.62,0,0,0,.5,2.32c.81,2.15,2.62,3.41,4.47,2.19,1.11-.73,1.84-3.24,1.52-4.69-.9-4.14-4.63,0-6.57-1.82-.17-.15-1.1.14-1.27.45a30.5,30.5,0,0,0-1.38,3.49,11.64,11.64,0,0,0-1.23-3c-.37-.41-1.29-.34-2-.49l-2.21-3.51c-.23,3.2-.47,5.73-.53,8.27,0,.5.65,1,1,1.53a5.64,5.64,0,0,0,1-1.54C620.9,697.07,621.07,695.55,621.32,694.05Zm-29.47-62.4c-1.92-1.16-3.35-2.69-4.93-2.86-8.51-.91-17.54,8.48-16.71,17.2h42.23c-4-5.27-7.65-10.2-11.36-15.15.41-.6.76-1.1,1.08-1.61,4.62-7.22,5.16-14.79,1.19-22.33s-10.52-11.37-19.18-11.31c-5.71,0-11.41,0-17.12,0h-8.11c.73,5.87,4,8.51,9.44,8.76,4.42.21,9,.42,13.18,1.75,5.76,1.83,10,5.72,11.16,12.19a26.36,26.36,0,0,0,1.37,5.18C595.67,627.47,594.81,630.1,591.85,631.65Zm-39.09,55.66c-2.46-3.3-4.72-6.3-7-9.29.59-1,1.13-1.9,1.57-2.8,3.68-7.53-.51-17.18-8.72-18.41-6.12-.91-12.48-.18-18.78-.18v30.59h9.55c.08-1.44.16-2.72.24-4.23a20.93,20.93,0,0,0,3.47,0c3.09-.52,5.11.68,6.73,3.31a84.64,84.64,0,0,0,5.15,6.86C547.65,691.14,550.08,689.32,552.76,687.31Zm31.33-15.38a16.65,16.65,0,1,0-16.72,16.66A16.75,16.75,0,0,0,584.09,671.93Zm31.47,15.45c-2.72-7.91-5.26-15.4-7.88-22.85-1-2.76-1.4-6.52-3.4-7.88s-5.7-.29-8.64-.46c-1.8-.1-2.65.48-3.25,2.27-3,8.86-6.1,17.67-9.15,26.51a24.24,24.24,0,0,0-.59,2.43c2.06,0,3.79,0,5.51,0,2.54.09,5.26.57,5.64-3.19,0-.31.48-.83.75-.83,3-.07,5.9-.09,8.84,0,.32,0,.84.66.89,1.06.4,3.11,2.54,3.11,4.9,3C611.11,687.3,613,687.38,615.56,687.38Zm29.78-9.83H634.46l12.23-21.14H619V666h10.86l-12.2,21.29h27.72Zm106.06-46a69.18,69.18,0,0,0,6-6.4,408.75,408.75,0,0,1,45.18-51.48c1-1,1.41-2.52,2.44-4.44C795.59,572,751.05,623.51,751.4,631.51ZM123.19,588.38l-1.06.92a18.87,18.87,0,0,0,2.26,3.64c9.33,9.38,18.73,18.68,28.11,28a14,14,0,0,0,2.19,2.11,5.88,5.88,0,0,0,2.2.33,9.54,9.54,0,0,0-.23-2.16,4.51,4.51,0,0,0-1.16-1.41c-9-9.29-17.89-18.63-26.95-27.83C127.07,590.48,125,589.57,123.19,588.38Zm19.8,3.17-1.17,1a20,20,0,0,0,1.54,2.76c6.41,8.26,12.83,16.51,19.35,24.69a32.52,32.52,0,0,0,4.54,4.39c.41.35,1.26.16,1.91.22a10.13,10.13,0,0,0-.18-2.15,5.1,5.1,0,0,0-1-1.51c-4.75-6-9.38-12-14.29-17.86C150.31,599,146.56,595.36,143,591.55ZM615.1,696.3a12.18,12.18,0,0,0,.41,1.73c.36.69.76,1.36,1.15,2a6.57,6.57,0,0,0,.84-2,48.8,48.8,0,0,0,0-5.8c0-.48-.7-.91-1.07-1.37-.3.43-.81.85-.86,1.3a34.4,34.4,0,0,0,0,3.49c-1.45-1-2.58-2.37-3.78-2.42s-2.63,1.13-3.57,1.59c-.49-1.28-1-2.62-1.54-4L605,693.42c-2-.79-3.68-.11-4.3,2.18-.54,2,.06,4.2,2.18,4.26,1.69,0,4.73,1.88,5.09-1.31,1.55.54,3.12,1.54,4.55,1.38C613.35,699.84,614,697.92,615.1,696.3Zm-9-134.46c-3.23,3.27-3.53,16-.31,17.36C606.49,573.43,609.3,567.9,606.12,561.84Zm28.66,131.61c0,1.72-.07,3.33,0,4.93a5.25,5.25,0,0,0,.81,1.67,15.1,15.1,0,0,0,1.11-1.71c.56-1.16,1-2.36,1.55-3.54l1.05.26c.61,1.57,1.23,3.14,1.81,4.65l-1.91,1.53c3.15,1.44,5.31-1.55,6-7.82l-.72-.45-2.2,3.58c-.74-1-1.34-2.73-2.45-3.19C638.53,692.83,636.78,693.36,634.78,693.45Zm123.66-89.56c5.69-1.3,13.55-9.42,12.91-13.8C766.17,594,761.85,598.11,758.44,603.89Zm-117.9-7.46.79.89c2.37-2,4.83-4,7.06-6.18.85-.83,1.06-2.22-.87-2.23C644.87,588.89,640.47,593.71,640.54,596.43ZM502.91,732.52c3.5-1,5.06-3.13,4.57-6.36A5.59,5.59,0,0,0,502.91,732.52Z"/>
      <path class="cls-1" d="M757.21,0h8.57c12.05,2.49,22.39,8.48,32,15.89,5.47,4.25,10.84,8.68,15.89,13.41,25,23.45,46.29,50.16,66.09,78.07a8.14,8.14,0,0,0,5,3.49c15,3.81,29.24,9.56,41.4,19.49,8.35,6.82,14.95,15.08,16.51,26,2.76,19.34-2.61,36.5-15.54,51.19a61,61,0,0,1-20.64,15.05c.25.85.42,1.53.65,2.19,8.08,23.12,14.44,46.68,17.54,71,1.86,14.62,2.58,29.25-.26,43.84-2.5,12.87-7.44,24.33-18.74,32.12-.86.58-1.19,2.24-1.36,3.45-.75,5.45-1.06,11-2,16.36-5.32,28.85-19.79,51.19-46.54,64.64l-2.09,0c-7.15-1.1-14.3-2.16-21.44-3.29-15.08-2.4-30.19-4.63-45.22-7.34-8.17-1.47-8.87-2.8-8.95-11.06,0-1.43,0-2.86,0-4.28,1.17-20.51,5.17-40.59,9.26-60.65l1.31.74c5.95,3.44,11.86,7,17.88,10.28a4.92,4.92,0,0,0,6.37-1.16c5.16-.27,9.21-3.09,12.3-6.7,5.79-6.79,11.71-13.65,16.36-21.23,18-29.35,29.49-61.32,36.86-94.82,5.31-24.11,8-48.46,4.35-73.12-2.13-14.49-6.59-28.12-15.54-40-.9-1.19-1.93-2.27-2.74-3.23L804.1,213.9c-4-1.56-6.7-1.16-8.81,1.3s-2,5.3,0,8.93c-9.1,10.47-18,21.08-27.33,31.36-17.38,19.22-34.72,38.5-55.08,54.73a4.37,4.37,0,0,0-1.25,3.09c.53,27,.77,54.06-1.61,81-1,11.17-2.3,22.28-6,33-2.39,6.87-7.07,10.47-14.22,11-17.29,1.36-34.3-1.08-50.74-5.83-15.14-4.37-30.1-8.43-46-7.8-7.26-8.39-15.15-16.32-21.65-25.26C555.75,378,547.62,354,550,327c.87-.26,1.74-.55,2.62-.76,17.9-4.36,29.11-15.2,32.34-33.61a75.82,75.82,0,0,0-.45-26.45c-2.92-16.56-9.85-30.16-27.13-35.9,11.61.82,21-16.15,14.45-24.71-2.86-3.77-6.43-7-9.77-10.4a21.92,21.92,0,0,0-3.13-2.37c2.62-2.75,5.47-5,7.35-7.88,2.26-3.46,3.79-7.41,5.46-11.22,3.38-7.68,1.55-14.59-3.59-20.75-2.34-2.8-5.13-5.23-7.71-7.82,1.85-2.68,3.53-5.5,5.57-8,17.43-21.54,40.69-33.3,67.09-39.66,2.11-.5,3-1.34,3.51-3.37,2.93-11.87,7.43-23.06,14.79-32.93,5.82-7.79,13-13.73,22.74-16C685,42.52,695,45.3,704.56,50c13.45,6.59,24.55,16.32,35.13,26.71.82.8,1.66,1.58,2.7,2.57a6.52,6.52,0,0,0,.15-1.13c-.09-.6-.23-1.2-.36-1.79-3.41-15.48-5.93-31.07-4.48-47C738.9,16.24,742,4,757.21,0ZM806.6,149c-1.46.55-2.36.6-2.59,1A692.7,692.7,0,0,1,727.3,262.37a3.25,3.25,0,0,0,2.45-1c2.92-3.13,5.93-6.18,8.64-9.47,25.06-30.47,47.61-62.67,66.43-97.39C805.59,153.07,805.85,151.36,806.6,149Zm-162,28c-.06-.42-.13-.83-.19-1.24a18,18,0,0,0-3.45-.56,23.5,23.5,0,0,0-19.13,9.67c-7.47,10-9.64,21.45-8,33.56.89,6.61,1,12.67-2.42,18.82-4.81,8.55-6.74,17.87-4.43,27.71.5,2.1.81,4.35,3.89,5.46a17.07,17.07,0,0,0,0-3.55c-2.54-10.37-.92-20,4.14-29.4,2.33-4.31,3.95-8.79,2.88-14.22-2.16-11-1.58-21.9,3.87-32,4.14-7.7,10.27-12.68,19.46-13A12.25,12.25,0,0,0,644.57,177Zm125.62-21.06-1.19-.59a18.26,18.26,0,0,0-2.52,3.08q-12.21,23.79-24.3,47.65c-.88,1.74-1.59,3.57-2.38,5.35l1,.63c1.17-1.53,2.43-3,3.5-4.61,9.77-14.67,17.2-30.59,24.7-46.46C769.73,159.44,769.81,157.61,770.19,155.92Z"/>
      <path class="cls-2" d="M0,115.69c23.93.66,47.86,1.36,71.8,2,9.67.24,19.36.13,29,.5,11.08.41,22.15,1.18,33.22,1.8a6,6,0,0,0,1.36.6c7,1.07,14.12,1.71,21,3.22,16,3.51,31.94,7.43,47.9,11.21,12.37,2.94,24.73,5.94,37.11,8.89,4.4,1.05,8.82,2.05,13.23,3.08a12.84,12.84,0,0,1-2.82.53c-3.74-.11-7.48-.45-11.22-.52-21.46-.38-42.93-.78-64.4-1.05-14.24-.17-28.48-.14-42.72-.2-23.81,0-47.63-.19-71.43.17-11.45.17-22.76.08-33.8-3.3A39.21,39.21,0,0,1,7.12,126.92C4.7,123.41,2.37,119.84,0,116.31Z"/>
      <path class="cls-3" d="M381.81,817.15l.16.66H352a17.39,17.39,0,0,1,3.16-.59C364,817.16,372.92,817.16,381.81,817.15Z"/>
      <path class="cls-4" d="M322.12,153.12c4.9,16.08,6.85,32.61,7.31,50,1.38-4.14,2.56-7.65,3.73-11.16,2.35-1.9,4.93-3.58,7-5.76,2.56-2.71,4.22-6.43,7.09-8.67,10.09-7.84,21.11-9.94,33-3.93,1.32.67,3,.63,5,1-2-5.59-7.84-8.93-12.11-9.92-10.45-2.42-20.07,0-29,5.52-1.27.79-2.48,1.67-3.72,2.51,2.26-4.84,3.94-10.09,6.91-14.45,5-7.37,10.88-14.18,16.39-21.22,1.63-1.66,3.21-3.39,4.91-5,6.33-5.89,13.42-10.3,22.25-11.19,3.92-.39,7.6-.27,10.56,3.18a11.2,11.2,0,0,0,9.41,3.6,75.15,75.15,0,0,0,9.72-1c6.53-1.2,12.45-3.56,17-8.82,1.78-2,4.12-4.17,6.62-4.94a83.08,83.08,0,0,1,15.77-3.2c7.67-.8,14.95,1.23,21.87,4.54,14.94,7.15,28.82,15.8,39,29.17,8.07,10.56,8,19.78.31,30.55-2.25,3.16-4.66,6.2-6.71,9.48-4.5,7.21-5.82,15.08-3.09,23.14a35.93,35.93,0,0,1,1.73,15.81c-1.5,14.08-2.46,28.22-3.58,42.33-.44,5.54-.71,11.1-1.08,16.91l18.53-3.17c.07-.83.11-1.43.18-2q2.08-17,4.18-33.95a8.92,8.92,0,0,1,4.68-6.78c6.6-3.93,13.51-6.66,21.43-5.42,17.28,5.74,24.21,19.34,27.13,35.9A75.82,75.82,0,0,1,585,292.6c-3.23,18.41-14.44,29.25-32.34,33.61-.88.21-1.75.5-2.62.76-3.53.37-7,1-10.59,1.06-8.44.23-16.85,0-25-3.3-.27,5.56-.66,10.9-.77,16.24-.3,14.76-.46,29.52-.73,44.27-.07,3.46-.39,6.9-.48,10.35q-.66,26.55-1.26,53.09c-.84,20.18-1.6,40.36-2.54,60.53-.49,10.59-1.12,21.18-2,31.75-1.19,14.61-7.31,27.28-16.36,38.53-16.81,20.91-38,35.17-64.28,41.45-9.14,2.19-18.41,2.61-27.57.17-14.64-3.89-23.45-13.81-27.54-28-5.38-18.68-7-37.84-6.42-57.2A271.25,271.25,0,0,1,381,451a12.27,12.27,0,0,0,.39-2.35q-.24-14.82-.47-29.63c4.1.56,8.21,1.66,12.29,1.58,7.82-.16,14.87-3.23,21.29-7.51,8.53-5.7,16.81-11.75,25.31-17.51A232.2,232.2,0,0,0,482.52,359q9.9-11,19.57-22.18c.94-1.09,1.27-2.69,1.89-4.06L503,332a17.07,17.07,0,0,0-3,2c-2.4,2.47-4.59,5.15-7,7.63-10.63,11-20.44,23-32.16,32.77-15.57,12.92-32.4,24.4-49.14,35.83-11.3,7.71-23.41,9.43-36,1.77-11.2-6.81-21.22-15-28.29-25.89-5.07-7.82-8.67-16.66-12.36-25.29-6.65-15.58-10.51-31.79-10.13-48.91.19-8.54-.26-17.11-.52-25.66a11.25,11.25,0,0,0-1-3l-.66.24c-.33,13.81-.67,27.61-1,41.66a39.91,39.91,0,0,1-17.09-9.52c-10.59-10.09-12.67-23.2-12.7-37a46.25,46.25,0,0,1-23.73-2.25c.33-.19.4-.26.47-.26.61,0,1.22,0,1.83,0,10.85.52,18.36-5,23.24-14a83.31,83.31,0,0,0,7.24-18c3.34-12.53,5.33-25.32,3.82-38.41-1.63-14.15-11.51-23.31-25.52-23.4-.3.92-.62,1.88-.92,2.85-11.6,37.41-22.93,74.9-34.92,112.18-4.69,14.59-10.81,28.73-16.35,43.05-2.16,5.56-6.33,9.14-11.84,11.2-3.81,1.42-7.65,2.72-11.48,4.08-8.29,1.51-16.55,3.22-24.87,4.45-7,1-14.11,1.76-21.2,2.17-8.33.49-16.7.88-25,.56a173.33,173.33,0,0,1-23.28-2.53c-7.36-1.3-9.51-4.42-10.28-12-1.75-17.15-.26-34.16,2.91-51,2.1-11.15,5.18-22.13,8.16-33.09.81-3,2.86-5.58,4.35-8.36l1.85-1.48c2.23.89,4.81,1.34,6.6,2.77a44.44,44.44,0,0,1,8.37,8.41c6.76,9.42,13.15,19.1,19.69,28.69q3.71,5.42,7.41,10.84a4.33,4.33,0,0,0,5.32,1.84c2.61-.83,5.3-1.5,7.8-2.58,16.35-7,31.34-16.37,46-26.33a39.84,39.84,0,0,0,16.91-23.38c4-14.72,7.84-29.5,12.56-44,6.76-20.77,14.25-41.3,21.43-61.94.92,0,1.84,0,2.75,0q15,1.49,29.95,3c3,.31,6,.93,9,1.1C314.18,153.16,318.15,153.07,322.12,153.12Zm60.39,120c-1.87,0-3.49-.1-5.1,0-4,.29-7.84,1-9.85,5a9.65,9.65,0,0,0,1.52,11.15,95.24,95.24,0,0,0,11.78,11.38,11,11,0,0,0,10.76,1.92,77.15,77.15,0,0,0,14.86-7.47,39.44,39.44,0,0,0,9.87-9.37c4.44-6.06,1.65-11.88-5.78-12.67-3.88-.42-7.84-.08-12-.08.45-5.14.88-10.29,1.34-15.44,1-11.26,2.13-22.51,3.05-33.78.51-6.27-5.22-10-10.89-7.24a9,9,0,0,0-5.13,7.78c-.68,7.5-1.31,15-2,22.52C384.17,255.6,383.33,264.41,382.51,273.08ZM440,176.16l0,1.26c2.27.28,4.7,1.19,6.8.71a51.2,51.2,0,0,1,15.52-1.54,23.56,23.56,0,0,1,13.43,5.09c5.62,4.39,8.1,10.79,10.78,17,2.14,4.93,4,9.85,10,11.63a11.34,11.34,0,0,0,1.41-9.42,116,116,0,0,0-4-12.65c-4.69-11.88-13.41-19-26.15-20.45a46.41,46.41,0,0,0-13.91.67C448.6,169.47,443.64,171.81,440,176.16Zm36.88,105.76a38.45,38.45,0,0,0-1.54-6.14c-3.4-8.52-13.34-11.61-19.78-6.29a18,18,0,0,0-2.9,24.25c4.64,6.18,12.62,7.46,18,2.89C474.82,293.11,476.77,288.59,476.91,281.92Zm-124.26,1.4a36.72,36.72,0,0,0-.78-4.09c-2.5-8.68-12-12.56-18.79-7.73s-8.26,15.22-3.27,21.84c4.4,5.81,11.73,7.11,16.93,2.93C350.63,293.14,352.5,289,352.65,283.32Zm39.27,41.58c8.13-.58,16.27-1,24.36-1.83,5.25-.55,10.42-1.79,15.62-2.78,1.83-.34,2.82-1.73,2.06-3.32-.44-1-2-1.48-3.2-1.92-.57-.21-1.39.17-2.08.32-21.06,4.54-42.26,4.57-63.52,1.89-4.74-.6-9.43-1.63-14.18-2.15a4,4,0,0,0-3.23,1.78c-.78,1.56.14,2.94,2,3.39.7.17,1.39.35,2.09.48A246.08,246.08,0,0,0,391.92,324.9Zm82.89-161.35.05-.67a24,24,0,0,0-3.93-1.28c-9.74-1.45-19.46-3.53-29.26-4.06-17.68-1-35.41-1-53.12-1.42a18.34,18.34,0,0,0-4.26.12c-.83.18-1.5,1.1-2.25,1.69a7.46,7.46,0,0,0,2.44,1c6.81.11,13.62.07,20.43.12,22.67.16,45.37-.26,67.69,4.83A6.11,6.11,0,0,0,474.81,163.55ZM352.36,203.91c-6.66.3-12.22,2.79-16.42,8.11-1.25,1.59-2.05,3.29-.12,4.78,1.77,1.36,3.12.28,4.37-1.22,6.83-8.17,17.36-8.2,24.24-.07,1.34,1.59,2.72,2.74,4.58,1.14s.92-3.1-.24-4.58C364.59,206.76,359,204.22,352.36,203.91Zm108.83,0c-6.68.35-12.22,2.89-16.37,8.23-1.19,1.53-1.86,3.14-.15,4.57s3.11.52,4.4-1c7.06-8.35,17.33-8.38,24.43-.07,1.27,1.5,2.6,2.52,4.37,1.12s1.13-3.06,0-4.56C473.61,206.76,468,204.17,461.19,203.91ZM434,405.64l.19.58a30.64,30.64,0,0,0,5.44-2q24.54-14.49,48.95-29.2c1.28-.77,2.12-2.28,3.17-3.44l-.84-.88Zm30.8-47.75c2.82.46,4.37-1.55,5.91-2.94,5.2-4.72,10.23-9.64,15.29-14.51a11.8,11.8,0,0,0,4.07-7.95C485.57,332.53,468.34,349.8,464.79,357.89Zm61.29-45.43c5.54-16.38,11.11-32.7,15.27-49.42l-1.62-.46C534.59,279.06,529.45,295.53,526.08,312.46ZM445.32,539.71l1.32,1.19c9.74-10.09,19.47-20.19,27.74-31.57l-1.12-1Q458.65,523.45,445.32,539.71Zm87.75-230.13c3.66-6.52,7.83-22,6.9-25.31C536.58,287.13,531.33,305.81,533.07,309.58ZM398.54,543c-.77-8.14-1.29-16.32-5-23.83C392,525.37,395.05,540.78,398.54,543Zm54-18.6c2.83-4.66,5.73-9.28,8.46-14,.47-.82.25-2,.41-3.64C457.5,509.66,451.23,521.4,452.53,524.38Zm-5.07-286.93c-.07.62-.15,1.24-.23,1.85,3.5,1.35,7,2.75,10.52,4,.46.16,1.25-.64,1.88-1-.42-.6-.73-1.45-1.31-1.74a53.72,53.72,0,0,0-7-3C450.18,237.13,448.77,237.45,447.46,237.45ZM348.92,239c3.62,2.65,12-.65,13.21-4.94Z"/>
      <path class="cls-5" d="M855.68,456.22c11.64,2,23.31,3.82,34.91,6,22.74,4.23,45.46,8.68,66.85,17.85,5.93,2.54,11.47,6.13,16.9,9.68,4,2.62,6.43,6.66,7.92,11.3,5.49,17.14,8.73,34.76,11.11,52.54a513.79,513.79,0,0,1,4.31,80,441,441,0,0,1-7.3,72.33c-1.9,10-7.27,17.83-15.32,23.89-10.17,7.66-22,11.45-34.22,14a223,223,0,0,1-58.15,3.85c-20.23-1.21-40.41-3.36-60.61-5.1,0-13.35.09-26.7-.15-40-.49-27.81-.81-55.63-1.92-83.42-.6-15.13-2.64-30.21-4.07-45.3-.76-8.08-4.5-14.23-11.85-18a17.89,17.89,0,0,1-2.21-1.59c5-5.22,10.44-10.05,14.86-15.71,19-24.32,29.27-52.64,36.85-82.13Zm26.76,181.54c-3.15,2.91-4.17,6.63-4.54,11.18,3.94-.23,7.46-.63,11-.57,2.5,0,3.34-.87,3-3.2l4.31-10.41c3.82-4.76,8.58-8,14.7-9,2.45-.37,4.95-.47,6,2.59-1.19-.19-2.46-.73-3.56-.48-3.06.69-4.72,3-5.68,5.85-1.57,4.54-1.41,9.15-.41,14l35.28-1.24c-4.42-6.48-8.53-12.49-12.58-18.41,4.25-6.17,5.73-9.89,6.27-16.52,1.17-14.62-9.06-29.63-26.51-29.51-5.4,0-10.8-.26-16.2-.33-5.18-.06-10.36,0-15.54,0a11.9,11.9,0,0,0,11.8,12.06,82.73,82.73,0,0,1,12.71.78c9.17,1.65,16.59,8.91,17.87,16.67.51,3.05,1.23,6.08,2,9.07,1.19,4.41-.53,8.13-4.57,9.5.37-3.65-1.64-6.31-5.39-6.6-7.74-.62-14.87,1.13-21,6.18Zm16.93,67.45a17.19,17.19,0,0,0,13.37.59c.7-.25,1.18-1.1,1.77-1.68-.76-.5-1.48-1.35-2.28-1.42-2.11-.18-4.26,0-6.39,0C903.48,702.65,901.18,702.72,899.37,705.21Zm-26.62-144.1.62-.71-4.79-4.33C867.67,559.16,869.3,560.84,872.75,561.11Zm19.85-7.86c-.28-1.9-.51-3.56-.84-5.2,0,0-1,.11-1.53.17q.46,2.47,1,4.95A13.23,13.23,0,0,0,892.6,553.25Z"/>
      <path class="cls-6" d="M853.59,456.26c-7.58,29.49-17.86,57.81-36.85,82.13-4.42,5.66-9.88,10.49-14.86,15.71C752.67,527.68,700,509.83,647.65,491c-1-.38-2.07-.84-3.1-1.27a344.48,344.48,0,0,1-21-55.7c-.25-.92-1.13-2.2-1.91-2.37-5-1-10.11-2.27-15.22-2.58-9.11-.55-18.25-.51-27.38-.7-10.66-.22-20.7,2.2-29.28,8.56-6.88,5.09-13.13,11.06-19.65,16.64l-1.87-.51c3.66-4.2,7-8.75,11.05-12.52,11.13-10.36,24.18-16.27,39.71-15.82,4.68.13,9.36,0,14,0,15.89-.63,30.85,3.43,46,7.8,16.44,4.75,33.45,7.19,50.74,5.83,7.15-.56,11.83-4.16,14.22-11,3.72-10.7,5-21.81,6-33,2.38-27,2.14-54,1.61-81a4.37,4.37,0,0,1,1.25-3.09C733.26,294,750.6,274.71,768,255.49c9.29-10.28,18.23-20.89,27.33-31.36,3.91,2.75,7.58,2.66,10.08-.23s2-6.62-1.29-10l60.33-73.47c.81,1,1.84,2,2.74,3.23,9,11.85,13.41,25.48,15.54,40,3.61,24.66,1,49-4.35,73.12-7.37,33.5-18.9,65.47-36.86,94.82-4.65,7.58-10.57,14.44-16.36,21.23-3.09,3.61-7.14,6.43-12.3,6.7a10.88,10.88,0,0,0-2.31-1.76c-2.87-1.18-6.09-1.72-8.65-3.34-6.92-4.38-13.65-9.08-20.3-13.87-11.09-8-20.52-17.72-29.62-27.84-6.37-7.1-13-14-19.52-20.95a14.83,14.83,0,0,0-3.34-2l-.6.91c1.26,1.53,2.48,3.11,3.8,4.6,9.35,10.56,18.27,21.57,28.23,31.52,8.28,8.28,17.79,15.32,26.75,22.91-4.09,20.06-8.09,40.14-9.26,60.65-.08,1.42,0,2.85,0,4.28.08,8.26.78,9.59,8.95,11.06,15,2.71,30.14,4.94,45.22,7.34C839.29,454.1,846.44,455.16,853.59,456.26ZM829.71,276.52a74,74,0,0,0-7.49-.35,3.37,3.37,0,0,0-2.53,1.73,3.33,3.33,0,0,0,1,2.87c5,4.2,10.65,6.67,17.3,6.37a4.75,4.75,0,0,0,4.85-4.58,45.35,45.35,0,0,0,.57-8.21c-.67-11.78-1.5-23.56-2.39-35.33-.09-1.26-.89-2.46-1.37-3.68-1.31.79-2.92,1.33-3.86,2.44a10.51,10.51,0,0,0-2,4.4,118.59,118.59,0,0,0-2.47,13.16C830.56,262.41,830.22,269.53,829.71,276.52Zm-28,30.49c5,6.47,16.46,13.4,24.9,15.07a23.93,23.93,0,0,0,14.36-1.28c5.85-2.49,10.12-6.72,13.51-11.68Zm70.85-87.23a6.61,6.61,0,0,0-13.21-.61,6.61,6.61,0,1,0,13.21.61ZM734,424.8l1-.86c-2-6.14-4-12.29-6.13-18.42a4.72,4.72,0,0,0-1.41-2,5.38,5.38,0,0,0-1.82-.64c-.15.62-.56,1.32-.4,1.84,1.81,5.58,3.6,11.17,5.67,16.65C731.48,422.74,733,423.68,734,424.8Zm-37.1,61.72c-.4.26-1,.44-1.11.79a1.51,1.51,0,0,0,.17,1.37c4,3.3,7.92,6.57,12,9.73.4.32,1.39-.14,2.11-.24-.27-.7-.36-1.61-.86-2.07-2.93-2.66-5.91-5.27-9-7.79A18.83,18.83,0,0,0,696.94,486.52Zm99.9,30.37c-.78-.57-1.25-1.15-1.84-1.3-1.47-.37-5.81,3-5.88,4.54a2.76,2.76,0,0,0,.65,1.46,17.57,17.57,0,0,0,4.41-1.6C795.21,519.34,795.86,518.09,796.84,516.89Z"/>
      <path class="cls-7" d="M380.89,419.06q.24,14.81.47,29.63c-41.77,12.32-82.76,26.93-123.12,43.2-27.62,11.13-54.81,23.33-82.19,35a24.15,24.15,0,0,1-2.79.82c4.36-6.38,8.5-12.91,13.12-19.1,7.25-9.71,14.82-19.18,22.26-28.74a11.37,11.37,0,0,1,1.33-1.26c17,4.63,34.06,4.21,51.1.34,22.51-5.1,42.38-15.8,60.92-29.22a223.57,223.57,0,0,0,42.47-40.13Z"/>
      <path class="cls-8" d="M530.14,453.6c6.52-5.58,12.77-11.55,19.65-16.64,8.58-6.36,18.62-8.78,29.28-8.56,9.13.19,18.27.15,27.38.7,5.11.31,10.18,1.54,15.22,2.58.78.17,1.66,1.45,1.91,2.37a344.48,344.48,0,0,0,21,55.7c-10.53-3.48-21-7.1-31.59-10.41-26.92-8.42-53.87-16.7-80.81-25C531.47,454.09,530.81,453.84,530.14,453.6Z"/>
      <path class="cls-9" d="M591.85,631.65c3-1.55,3.82-4.18,2.24-8.17a26.36,26.36,0,0,1-1.37-5.18c-1.13-6.47-5.4-10.36-11.16-12.19-4.16-1.33-8.76-1.54-13.18-1.75-5.45-.25-8.71-2.89-9.44-8.76h8.11c5.71,0,11.41,0,17.12,0,8.66-.06,15.19,3.74,19.18,11.31s3.43,15.11-1.19,22.33c-.32.51-.67,1-1.08,1.61,3.71,4.95,7.4,9.88,11.36,15.15H570.21c-.83-8.72,8.2-18.11,16.71-17.2C588.5,629,589.93,630.49,591.85,631.65Z"/>
      <path class="cls-10" d="M552.76,687.31c-2.68,2-5.11,3.83-7.74,5.82a84.64,84.64,0,0,1-5.15-6.86c-1.62-2.63-3.64-3.83-6.73-3.31a20.93,20.93,0,0,1-3.47,0c-.08,1.51-.16,2.79-.24,4.23h-9.55V656.63c6.3,0,12.66-.73,18.78.18,8.21,1.23,12.4,10.88,8.72,18.41-.44.9-1,1.76-1.57,2.8C548,681,550.3,684,552.76,687.31Zm-23.22-14.1a54.89,54.89,0,0,0,5.78,0c2.18-.25,3.57-1.53,3.46-3.88a3.36,3.36,0,0,0-3.56-3.42c-1.8-.08-3.61,0-5.5,0-.08.66-.17,1-.17,1.43C529.53,669.12,529.54,671,529.54,673.21Z"/>
      <path class="cls-10" d="M584.09,671.93a16.65,16.65,0,1,1-16.6-16.81A16.66,16.66,0,0,1,584.09,671.93Zm-9.71,0a7,7,0,1,0-13.9-.15,6.86,6.86,0,0,0,6.86,7A6.94,6.94,0,0,0,574.38,672Z"/>
      <path class="cls-10" d="M615.56,687.38c-2.52,0-4.45-.08-6.38,0-2.36.13-4.5.13-4.9-3,0-.4-.57-1-.89-1.06-2.94-.07-5.89,0-8.84,0-.27,0-.72.52-.75.83-.38,3.76-3.1,3.28-5.64,3.19-1.72,0-3.45,0-5.51,0a24.24,24.24,0,0,1,.59-2.43c3-8.84,6.18-17.65,9.15-26.51.6-1.79,1.45-2.37,3.25-2.27,2.94.17,6.61-.93,8.64.46s2.43,5.12,3.4,7.88C610.3,672,612.84,679.47,615.56,687.38Zm-18.65-12.31h4.16c-.69-2-1.29-3.62-2.09-5.85C598.16,671.55,597.56,673.25,596.91,675.07Z"/>
      <path class="cls-9" d="M645.34,677.55v9.7H617.62L629.82,666H619v-9.55h27.73l-12.23,21.14Z"/>
      <path class="cls-11" d="M751.4,631.51c-.35-8,44.19-59.47,53.59-62.32-1,1.92-1.45,3.47-2.44,4.44a408.75,408.75,0,0,0-45.18,51.48A69.18,69.18,0,0,1,751.4,631.51Z"/>
      <path class="cls-11" d="M123.19,588.38c1.8,1.19,3.88,2.1,5.36,3.61,9.06,9.2,18,18.54,26.95,27.83a4.51,4.51,0,0,1,1.16,1.41,9.54,9.54,0,0,1,.23,2.16,5.88,5.88,0,0,1-2.2-.33A14,14,0,0,1,152.5,621c-9.38-9.33-18.78-18.63-28.11-28a18.87,18.87,0,0,1-2.26-3.64Z"/>
      <path class="cls-11" d="M143,591.55c3.57,3.81,7.32,7.49,10.68,11.49,4.91,5.83,9.54,11.89,14.29,17.86a5.1,5.1,0,0,1,1,1.51,10.13,10.13,0,0,1,.18,2.15c-.65-.06-1.5.13-1.91-.22a32.52,32.52,0,0,1-4.54-4.39c-6.52-8.18-12.94-16.43-19.35-24.69a20,20,0,0,1-1.54-2.76Z"/>
      <path class="cls-12" d="M615.1,696.3c-1.1,1.62-1.75,3.54-2.61,3.63-1.43.16-3-.84-4.55-1.38-.36,3.19-3.4,1.35-5.09,1.31-2.12-.06-2.72-2.29-2.18-4.26.62-2.29,2.28-3,4.3-2.18l1.66-2.53c.52,1.35,1,2.69,1.54,4,.94-.46,2.29-1.65,3.57-1.59s2.33,1.43,3.78,2.42a34.4,34.4,0,0,1,0-3.49c.05-.45.56-.87.86-1.3.37.46,1,.89,1.07,1.37a48.8,48.8,0,0,1,0,5.8,6.57,6.57,0,0,1-.84,2c-.39-.67-.79-1.34-1.15-2A12.18,12.18,0,0,1,615.1,696.3Z"/>
      <path class="cls-12" d="M621.27,693.79c.68.15,1.6.08,2,.49a11.64,11.64,0,0,1,1.23,3,30.5,30.5,0,0,1,1.38-3.49c.17-.31,1.1-.6,1.27-.45,1.94,1.78,5.67-2.32,6.57,1.82.32,1.45-.41,4-1.52,4.69-1.85,1.22-3.66,0-4.47-2.19a21.62,21.62,0,0,1-.5-2.32,10.16,10.16,0,0,1-.49,1.3c-.79,1.18-1.6,2.35-2.4,3.52-.75-1.25-1.56-2.47-2.23-3.76a13.88,13.88,0,0,1-.76-2.31Zm8.73,3.68c0,.3.07.6.11.9l2.45-.33-.07-.57Z"/>
      <path class="cls-12" d="M606.12,561.84c3.18,6.06.37,11.59-.31,17.36C602.59,577.8,602.89,565.11,606.12,561.84Z"/>
      <path class="cls-12" d="M634.78,693.45c2-.09,3.75-.62,5.05-.09,1.11.46,1.71,2.15,2.45,3.19l2.2-3.58.72.45c-.65,6.27-2.81,9.26-6,7.82l1.91-1.53c-.58-1.51-1.2-3.08-1.81-4.65l-1.05-.26c-.51,1.18-1,2.38-1.55,3.54a15.1,15.1,0,0,1-1.11,1.71,5.25,5.25,0,0,1-.81-1.67C634.71,696.78,634.78,695.17,634.78,693.45Z"/>
      <path class="cls-11" d="M758.44,603.89c3.41-5.78,7.73-9.89,12.91-13.8C772,594.47,764.13,602.59,758.44,603.89Z"/>
      <path class="cls-12" d="M640.54,596.43c-.07-2.72,4.33-7.54,7-7.52,1.93,0,1.72,1.4.87,2.23-2.23,2.18-4.69,4.14-7.06,6.18Z"/>
      <path class="cls-4" d="M621.27,693.79l.05.26c-.25,1.5-.42,3-.77,4.49a5.64,5.64,0,0,1-1,1.54c-.35-.51-1-1-1-1.53.06-2.54.3-5.07.53-8.27Z"/>
      <path class="cls-12" d="M502.91,732.52a5.59,5.59,0,0,1,4.57-6.36C508,729.39,506.41,731.56,502.91,732.52Z"/>
      <path class="cls-7" d="M172.65,528.32l.67-.65Z"/>
      <path class="cls-8" d="M380.89,419.06l-16.43-9.42A223.57,223.57,0,0,1,322,449.77c-18.54,13.42-38.41,24.12-60.92,29.22-17,3.87-34.1,4.29-51.1-.34a18.51,18.51,0,0,0,1.18-4.19c.2-4.09.14-8.2.18-12.29,1.81-.1,2-.28,2-2.78,0-14.89-2.64-29.16-9.55-42.51a28.44,28.44,0,0,1-3.15-14.67c.38-8.16.63-16.34.94-24.5l.42-5.07.07-.25c.39-3.3.81-6.61,1.17-9.92.25-2.27.42-4.54.62-6.82,3.83-1.36,7.67-2.66,11.48-4.08,5.51-2.06,9.68-5.64,11.84-11.2,5.54-14.32,11.66-28.46,16.35-43.05,12-37.28,23.32-74.77,34.92-112.18.3-1,.62-1.93.92-2.85,14,.09,23.89,9.25,25.52,23.4,1.51,13.09-.48,25.88-3.82,38.41a83.31,83.31,0,0,1-7.24,18c-4.88,9-12.39,14.49-23.24,14-.61,0-1.22,0-1.83,0-.07,0-.14.07-.47.26A46.25,46.25,0,0,0,292,278.62c0,13.79,2.11,26.9,12.7,37a39.91,39.91,0,0,0,17.09,9.52c.34-14.05.68-27.85,1-41.66l.66-.24a11.25,11.25,0,0,1,1,3c.26,8.55.71,17.12.52,25.66-.38,17.12,3.48,33.33,10.13,48.91,3.69,8.63,7.29,17.47,12.36,25.29C354.5,397,364.52,405.16,375.72,412c12.62,7.66,24.73,5.94,36-1.77,16.74-11.43,33.57-22.91,49.14-35.83,11.72-9.72,21.53-21.74,32.16-32.77,2.39-2.48,4.58-5.16,7-7.63a17.07,17.07,0,0,1,3-2l.94.76c-.62,1.37-1,3-1.89,4.06Q492.42,348,482.52,359a232.2,232.2,0,0,1-42.74,36.64c-8.5,5.76-16.78,11.81-25.31,17.51-6.42,4.28-13.47,7.35-21.29,7.51C389.1,420.72,385,419.62,380.89,419.06Zm-118.28-3.82.88.17c3.74-15.45,7.5-30.9,11.15-46.38.22-.94-.47-2.1-.83-3.55C271.45,368.59,261.78,412.71,262.61,415.24Zm-3.3,14.26c4.44-2.73,18.53-34.14,17.33-38.1C270.75,404.36,265,416.93,259.31,429.5Zm8.19-178.21,1.29.23,5.73-26.08-1.3-.27C271.3,233.87,267.78,242.24,267.5,251.29Zm11.18-7c2.27-3.65,3.81-6.66,3-10.37C279.54,236.76,277.74,239.69,278.68,244.29Z"/>
      <path class="cls-13" d="M268.55,148.77c-7.18,20.64-14.67,41.17-21.43,61.94-4.72,14.49-8.56,29.27-12.56,44a39.84,39.84,0,0,1-16.91,23.38c-14.68,10-29.67,19.31-46,26.33-2.5,1.08-5.19,1.75-7.8,2.58a4.33,4.33,0,0,1-5.32-1.84q-3.72-5.41-7.41-10.84c-6.54-9.59-12.93-19.27-19.69-28.69a44.44,44.44,0,0,0-8.37-8.41c-1.79-1.43-4.37-1.88-6.6-2.77.15-.69.34-1.38.43-2.08,1.62-13.32,3.14-26.65,4.87-40,1.06-8.16,2.45-16.27,3.69-24.4q3.09-16,6.16-32.09,1-5.1,1.93-10.2c14.25.06,28.49,0,42.73.2,21.47.27,42.94.67,64.4,1.05,3.74.07,7.48.41,11.22.52a12.84,12.84,0,0,0,2.82-.53ZM162.25,171.3a6.61,6.61,0,0,0-6.84,6.67,6.77,6.77,0,1,0,6.84-6.67Zm33.37,55.37-.8-.67a43.68,43.68,0,0,0-4.26,4.69q-11.92,17.58-23.65,35.3a7.89,7.89,0,0,0-.59,2.52l.94.38Q181.44,247.79,195.62,226.67Zm-2.91,16.49-1.42-.93c-4.46,5.86-8.94,11.72-13.35,17.63-.29.39,0,1.17,0,1.78l.78.3C183.27,255.61,188.94,250.08,192.71,243.16Zm-6.8,15.56.58.63c3.55-.9,7.39-4.59,7.13-7.43Z"/>
      <path class="cls-14" d="M125.43,188c-1.24,8.13-2.63,16.24-3.69,24.4-1.73,13.3-3.25,26.63-4.87,40-.09.7-.28,1.39-.43,2.08l-1.85,1.48c-7.83.43-15.65,1.21-23.47,1.22-13.52,0-26.78-2.26-39.87-5.51-5.14-1.28-6.73-6-2.84-9.65,8.15-7.53,16.29-15.15,25.09-21.88A334.86,334.86,0,0,1,125.43,188ZM93.66,224.63l-.57,1.28a5.78,5.78,0,0,0-1.67,1q-5,6.09-9.92,12.26a13.92,13.92,0,0,0-1.2,2.18l.73.51c1.32-1.56,2.72-3.06,3.94-4.7,2.73-3.72,5.38-7.5,8.06-11.26l.61-1.22.09-.07ZM87.8,239.06l1.26.89c5.94-7,12.46-13.57,16.7-21.9A217.2,217.2,0,0,0,87.8,239.06Zm8.91.5,1,.76c4-3.74,8.23-7.27,11.29-11.93.32-.48-.07-1.42-.13-2.15-.7.26-1.61.32-2.08.8-3,3.16-6,6.36-8.9,9.65A10,10,0,0,0,96.71,239.56Z"/>
      <path class="cls-15" d="M201.54,377.71c-.31,8.16-.56,16.34-.94,24.5a28.44,28.44,0,0,0,3.15,14.67c6.91,13.35,9.59,27.62,9.55,42.51,0,2.5-.16,2.68-2,2.78-.62-4.08-1.69-8.15-1.79-12.24a66.37,66.37,0,0,0-7-28.14c-5-10.13-6.08-20.7-5-31.73.79-7.88,1.32-15.78,2-23.67.06-.78.17-1.56.35-3.11,3.18,3,1.45,6.34,2.13,9.11l-.07.25Z"/>
      <path class="cls-16" d="M557.4,230.25c-7.92-1.24-14.83,1.49-21.43,5.42a8.92,8.92,0,0,0-4.68,6.78q-2.1,17-4.18,33.95c-.07.6-.11,1.2-.18,2L508.4,281.6c.37-5.81.64-11.37,1.08-16.91,1.12-14.11,2.08-28.25,3.58-42.33a35.93,35.93,0,0,0-1.73-15.81c-2.73-8.06-1.41-15.93,3.09-23.14,2.05-3.28,4.46-6.32,6.71-9.48,7.68-10.77,7.76-20-.31-30.55-10.22-13.37-24.1-22-39-29.17-6.92-3.31-14.2-5.34-21.87-4.54a83.08,83.08,0,0,0-15.77,3.2c-2.5.77-4.84,2.89-6.62,4.94-4.55,5.26-10.47,7.62-17,8.82a75.15,75.15,0,0,1-9.72,1,11.2,11.2,0,0,1-9.41-3.6c-3-3.45-6.64-3.57-10.56-3.18-8.83.89-15.92,5.3-22.25,11.19-1.7,1.59-3.28,3.32-4.91,5,2.53-9.77,6.82-18.33,15.06-24.81,5-3.94,9.14-9,13.77-13.43a63.53,63.53,0,0,1,8.1-7c4.5-3,9.11-1.93,11,3.14,2.64,7.13,5.23,7.07,12.09,4.2,12.21-5.1,24.33-10.44,36.6-15.39,3.93-1.58,8.2-2.34,12.37-3.26a10.36,10.36,0,0,1,10.34,3c2.84,2.93,5.88,5.65,8.87,8.43a14.16,14.16,0,0,0,9.42,3.62c10.15.55,20.38.88,30.38,2.49,10.38,1.67,11.75,4.76,8.86,14.79-1.12,3.91-2.37,7.79-3.3,11.75s0,5.89,3.33,8l19.91,12.51c2.58,2.59,5.37,5,7.71,7.82,5.14,6.16,7,13.07,3.59,20.75-1.67,3.81-3.2,7.76-5.46,11.22-1.88,2.88-4.73,5.13-7.35,7.88a21.92,21.92,0,0,1,3.13,2.37c3.34,3.39,6.91,6.63,9.77,10.4C578.39,214.1,569,231.07,557.4,230.25Zm-105.46-129c1.3,0,2.22.28,2.82,0a29.81,29.81,0,0,0,5-3.25c3.59-3,7.07-4.28,11.6-1.49,2.07,1.28,5.11,1.82,7.36-1.47-4.58-1-8.45-4.79-13.26-3.79C460,92.32,455.32,95.49,451.94,101.22ZM550,154.94c5.3,5.59,5.85,12.71,7.54,19.4C560.11,166.59,555.83,155.33,550,154.94Zm9.87,55.88c-4.31.47-10,6.51-10.51,11.12C553.74,218.85,557.64,215.92,559.86,210.82Z"/>
      <path class="cls-17" d="M787.28,369.64c-9-7.59-18.47-14.63-26.75-22.91-10-10-18.88-21-28.23-31.52-1.32-1.49-2.54-3.07-3.8-4.6l.6-.91a14.83,14.83,0,0,1,3.34,2c6.57,6.92,13.15,13.85,19.52,20.95,9.1,10.12,18.53,19.87,29.62,27.84,6.65,4.79,13.38,9.49,20.3,13.87,2.56,1.62,5.78,2.16,8.65,3.34a10.88,10.88,0,0,1,2.31,1.76,4.92,4.92,0,0,1-6.37,1.16c-6-3.32-11.93-6.84-17.88-10.28Z"/>
      <path class="cls-12" d="M806.6,149c-.75,2.35-1,4.06-1.78,5.49-18.82,34.72-41.37,66.92-66.43,97.39-2.71,3.29-5.72,6.34-8.64,9.47a3.25,3.25,0,0,1-2.45,1A692.7,692.7,0,0,0,804,150C804.24,149.61,805.14,149.56,806.6,149Z"/>
      <path class="cls-12" d="M644.57,177a12.25,12.25,0,0,1-3.41,1.18c-9.19.36-15.32,5.34-19.46,13-5.45,10.13-6,21.06-3.87,32,1.07,5.43-.55,9.91-2.88,14.22-5.06,9.36-6.68,19-4.14,29.4a17.07,17.07,0,0,1,0,3.55c-3.08-1.11-3.39-3.36-3.89-5.46-2.31-9.84-.38-19.16,4.43-27.71,3.46-6.15,3.31-12.21,2.42-18.82-1.64-12.11.53-23.58,8-33.56a23.5,23.5,0,0,1,19.13-9.67,18,18,0,0,1,3.45.56C644.44,176.15,644.51,176.56,644.57,177Z"/>
      <path class="cls-12" d="M770.19,155.92c-.38,1.69-.46,3.52-1.18,5.05-7.5,15.87-14.93,31.79-24.7,46.46-1.07,1.6-2.33,3.08-3.5,4.61l-1-.63c.79-1.78,1.5-3.61,2.38-5.35q12.11-23.85,24.3-47.65a18.26,18.26,0,0,1,2.52-3.08Z"/>
      <path class="cls-18" d="M804.1,213.9c3.29,3.38,3.77,7.12,1.29,10s-6.17,3-10.08.23c-2.06-3.63-2.06-6.53,0-8.93S800.13,212.34,804.1,213.9Z"/>
      <path class="cls-1" d="M268.55,148.77,254.69,147c-4.41-1-8.83-2-13.23-3.08-12.38-2.95-24.74-5.95-37.11-8.89-16-3.78-31.89-7.7-47.9-11.21-6.92-1.51-14-2.15-21-3.22a6,6,0,0,1-1.36-.6l.78-9,4.85.28,9,.73a9.53,9.53,0,0,0,1.93.7c4.94.63,9.88,1.28,14.83,1.77,2.19.22,4.41.07,6.61.08,2.49-4.21,2.38-8.79,1.89-13.43,0-.62.05-1.25.07-1.87l.57-3c0-.62.06-1.25.08-1.88.33-.82.66-1.63,1-2.45,5.85-6.34,11.07-13.11,14.63-21,3-6.69,5.48-13.47,5-21-.27-4.16-2.46-7-6.51-7.53-6.33-.89-12.69-1.61-19-2.37a3.07,3.07,0,0,0-1.79.22c-1.47.87-3.4,7.67-2.64,9.85,1,2.82,3.4,3.31,6.11,3.31,4.07,0,7.2,2,7.81,5.87a27.16,27.16,0,0,1-.22,10c-.85,3.79-2.6,7.39-4.18,11a85.16,85.16,0,0,1-5.19,10.54c-1.31,2.12-2.82,1.93-3.77.22,1.4-2.62-.65-2.92-2.14-2.56a58.7,58.7,0,0,0-7.31,2.74c.27-1.26.53-2.53.79-3.79l-.84-.51c-5.48,2.76-11,5.48-15,10.46l-4.88,3.83C139.84,81.55,147,63.65,159.24,48c16.41-21,38.46-32.45,64.47-36.13a168,168,0,0,1,31.22-1.35c16.16.77,31.26,5.65,43.86,16.26,8.84,7.45,15.11,17,19.49,27.65a103.34,103.34,0,0,1,7.27,27.87c1,8.93,1.05,18,1.3,27,.4,14.33-1.76,28.44-4.24,42.5a8.54,8.54,0,0,1-.49,1.39c-4-.05-7.94,0-11.9-.18-3-.17-6-.79-9-1.1q-15-1.56-29.95-3C270.39,148.73,269.47,148.79,268.55,148.77Z"/>
      <path class="cls-19" d="M340.37,172.69c1.24-.84,2.45-1.72,3.72-2.51,9-5.56,18.58-7.94,29-5.52,4.27,1,10.14,4.33,12.11,9.92-2-.37-3.66-.33-5-1-11.9-6-22.92-3.91-33,3.93-2.87,2.24-4.53,6-7.09,8.67-2.06,2.18-4.64,3.86-7,5.76-2.69-2.63-2.57-5.6.7-10.45,1.83-2.72,3.91-5.28,5.87-7.91l.66-1Z"/>
      <path class="cls-20" d="M136.49,101.06l4.88-3.83c.15,2,.25,3.9.5,5.84a5.79,5.79,0,0,0,.89,1.7q-1.53,3.21-3.08,6.42l-4.85-.28C135.39,107.63,135.94,104.34,136.49,101.06Z"/>
      <path class="cls-4" d="M340.39,172.63l-.66,1Z"/>
      <path class="cls-18" d="M382.51,273.08c.82-8.67,1.66-17.48,2.47-26.29.68-7.5,1.31-15,2-22.52a9,9,0,0,1,5.13-7.78c5.67-2.77,11.4,1,10.89,7.24-.92,11.27-2,22.52-3.05,33.78-.46,5.15-.89,10.3-1.34,15.44,4.13,0,8.09-.34,12,.08,7.43.79,10.22,6.61,5.78,12.67a39.44,39.44,0,0,1-9.87,9.37,77.15,77.15,0,0,1-14.86,7.47,11,11,0,0,1-10.76-1.92,95.24,95.24,0,0,1-11.78-11.38,9.65,9.65,0,0,1-1.52-11.15c2-4,5.89-4.7,9.85-5C379,273,380.64,273.08,382.51,273.08Z"/>
      <path class="cls-19" d="M440,176.16c3.61-4.35,8.57-6.69,13.88-7.73a46.41,46.41,0,0,1,13.91-.67c12.74,1.44,21.46,8.57,26.15,20.45a116,116,0,0,1,4,12.65,11.34,11.34,0,0,1-1.41,9.42c-6-1.78-7.82-6.7-10-11.63-2.68-6.18-5.16-12.58-10.78-17a23.56,23.56,0,0,0-13.43-5.09,51.2,51.2,0,0,0-15.52,1.54c-2.1.48-4.53-.43-6.8-.71Z"/>
      <path class="cls-6" d="M476.91,281.92c-.14,6.67-2.09,11.19-6.23,14.71-5.37,4.57-13.35,3.29-18-2.89a18,18,0,0,1,2.9-24.25c6.44-5.32,16.38-2.23,19.78,6.29A38.45,38.45,0,0,1,476.91,281.92Z"/>
      <path class="cls-6" d="M352.65,283.32c-.15,5.68-2,9.82-5.91,12.95-5.2,4.18-12.53,2.88-16.93-2.93-5-6.62-3.43-17.09,3.27-21.84s16.29-.95,18.79,7.73A36.72,36.72,0,0,1,352.65,283.32Z"/>
      <path class="cls-21" d="M391.92,324.9a246.08,246.08,0,0,1-40.11-4.14c-.7-.13-1.39-.31-2.09-.48-1.83-.45-2.75-1.83-2-3.39a4,4,0,0,1,3.23-1.78c4.75.52,9.44,1.55,14.18,2.15,21.26,2.68,42.46,2.65,63.52-1.89.69-.15,1.51-.53,2.08-.32,1.17.44,2.76,1,3.2,1.92.76,1.59-.23,3-2.06,3.32-5.2,1-10.37,2.23-15.62,2.78C408.19,323.94,400.05,324.32,391.92,324.9Z"/>
      <path class="cls-22" d="M474.81,163.55a6.11,6.11,0,0,1-2.21.37c-22.32-5.09-45-4.67-67.69-4.83-6.81-.05-13.62,0-20.43-.12a7.46,7.46,0,0,1-2.44-1c.75-.59,1.42-1.51,2.25-1.69a18.34,18.34,0,0,1,4.26-.12c17.71.41,35.44.45,53.12,1.42,9.8.53,19.52,2.61,29.26,4.06a24,24,0,0,1,3.93,1.28Z"/>
      <path class="cls-21" d="M352.36,203.91c6.68.31,12.23,2.85,16.41,8.16,1.16,1.48,2,3.12.24,4.58s-3.24.45-4.58-1.14c-6.88-8.13-17.41-8.1-24.24.07-1.25,1.5-2.6,2.58-4.37,1.22-1.93-1.49-1.13-3.19.12-4.78C340.14,206.7,345.7,204.21,352.36,203.91Z"/>
      <path class="cls-21" d="M461.19,203.91c6.79.26,12.42,2.85,16.64,8.28,1.17,1.5,1.82,3.16,0,4.56s-3.1.38-4.37-1.12c-7.1-8.31-17.37-8.28-24.43.07-1.29,1.53-2.69,2.43-4.4,1s-1-3,.15-4.57C449,206.8,454.51,204.26,461.19,203.91Z"/>
      <path class="cls-17" d="M434,405.64l56.91-34.93.84.88c-1.05,1.16-1.89,2.67-3.17,3.44q-24.4,14.72-48.95,29.2a30.64,30.64,0,0,1-5.44,2Z"/>
      <path class="cls-19" d="M464.79,357.89c3.55-8.09,20.78-25.36,25.27-25.4a11.8,11.8,0,0,1-4.07,7.95c-5.06,4.87-10.09,9.79-15.29,14.51C469.16,356.34,467.61,358.35,464.79,357.89Z"/>
      <path class="cls-22" d="M526.08,312.46c3.37-16.93,8.51-33.4,13.65-49.88l1.62.46C537.19,279.76,531.62,296.08,526.08,312.46Z"/>
      <path class="cls-22" d="M445.32,539.71q13.31-16.28,27.94-31.38l1.12,1c-8.27,11.38-18,21.48-27.74,31.57Z"/>
      <path class="cls-22" d="M533.07,309.58c-1.74-3.77,3.51-22.45,6.9-25.31C540.9,287.57,536.73,303.06,533.07,309.58Z"/>
      <path class="cls-22" d="M398.54,543c-3.49-2.2-6.58-17.61-5-23.83C397.25,526.66,397.77,534.84,398.54,543Z"/>
      <path class="cls-22" d="M452.53,524.38c-1.3-3,5-14.72,8.87-17.64-.16,1.6.06,2.82-.41,3.64C458.26,515.1,455.36,519.72,452.53,524.38Z"/>
      <path class="cls-22" d="M447.46,237.45c1.31,0,2.72-.32,3.89.07a53.72,53.72,0,0,1,7,3c.58.29.89,1.14,1.31,1.74-.63.35-1.42,1.15-1.88,1-3.55-1.22-7-2.62-10.52-4C447.31,238.69,447.39,238.07,447.46,237.45Z"/>
      <path class="cls-17" d="M348.92,239l13.21-4.94C360.93,238.38,352.54,241.68,348.92,239Z"/>
      <path class="cls-23" d="M917.75,629.85c4-1.37,5.76-5.09,4.57-9.5-.8-3-1.52-6-2-9.07-1.28-7.76-8.7-15-17.87-16.67a82.73,82.73,0,0,0-12.71-.78,11.9,11.9,0,0,1-11.8-12.06c5.18,0,10.36,0,15.54,0,5.4.07,10.8.37,16.2.33,17.45-.12,27.68,14.89,26.51,29.51-.54,6.63-2,10.35-6.27,16.52,4.05,5.92,8.16,11.93,12.58,18.41l-35.28,1.24c-1-4.88-1.16-9.49.41-14,1-2.81,2.62-5.16,5.68-5.85,1.1-.25,2.37.29,3.56.47Z"/>
      <path class="cls-14" d="M917.75,629.85l-.91-1.47c-1.05-3-3.55-3-6-2.58-6.12.94-10.88,4.2-14.7,9-1.59-1.78-3.17-3.56-4.76-5.33,6.11-5,13.24-6.8,21-6.18C916.11,623.54,918.12,626.2,917.75,629.85Z"/>
      <path class="cls-24" d="M891.38,629.43c1.59,1.77,3.17,3.55,4.76,5.33l-4.31,10.41a13.12,13.12,0,0,1-2-1.18c-2.48-2-4.91-4.15-7.36-6.23Z"/>
      <path class="cls-20" d="M882.44,637.76c2.45,2.08,4.88,4.19,7.36,6.23a13.12,13.12,0,0,0,2,1.18c.39,2.33-.45,3.24-3,3.2-3.52-.06-7,.34-11,.57C878.27,644.39,879.29,640.67,882.44,637.76Z"/>
      <path class="cls-15" d="M899.37,705.21c1.81-2.49,4.11-2.56,6.47-2.53,2.13,0,4.28-.16,6.39,0,.8.07,1.52.92,2.28,1.42-.59.58-1.07,1.43-1.77,1.68A17.19,17.19,0,0,1,899.37,705.21Z"/>
      <path class="cls-4" d="M872.75,561.11c-3.45-.27-5.08-2-4.17-5l4.79,4.33Z"/>
      <path class="cls-4" d="M892.6,553.25a13.23,13.23,0,0,1-1.41-.08q-.5-2.48-1-4.95c.53-.06,1.53-.21,1.53-.17C892.09,549.69,892.32,551.35,892.6,553.25Z"/>
      <path class="cls-3" d="M829.71,276.52c.51-7,.85-14.11,1.61-21.18a118.59,118.59,0,0,1,2.47-13.16,10.51,10.51,0,0,1,2-4.4c.94-1.11,2.55-1.65,3.86-2.44.48,1.22,1.28,2.42,1.37,3.68.89,11.77,1.72,23.55,2.39,35.33a45.35,45.35,0,0,1-.57,8.21,4.75,4.75,0,0,1-4.85,4.58c-6.65.3-12.33-2.17-17.3-6.37a3.33,3.33,0,0,1-1-2.87,3.37,3.37,0,0,1,2.53-1.73A74,74,0,0,1,829.71,276.52Z"/>
      <path class="cls-3" d="M801.68,307l52.77,2.11c-3.39,5-7.66,9.19-13.51,11.68a23.93,23.93,0,0,1-14.36,1.28C818.14,320.41,806.66,313.48,801.68,307Z"/>
      <path class="cls-21" d="M872.53,219.78a6.61,6.61,0,1,1-13.21-.61,6.61,6.61,0,0,1,13.21.61Z"/>
      <path class="cls-22" d="M734,424.8c-1-1.12-2.56-2.06-3.06-3.39-2.07-5.48-3.86-11.07-5.67-16.65-.16-.52.25-1.22.4-1.84a5.38,5.38,0,0,1,1.82.64,4.72,4.72,0,0,1,1.41,2c2.09,6.13,4.1,12.28,6.13,18.42Z"/>
      <path class="cls-22" d="M696.94,486.52a18.83,18.83,0,0,1,3.32,1.79c3.06,2.52,6,5.13,9,7.79.5.46.59,1.37.86,2.07-.72.1-1.71.56-2.11.24-4.06-3.16-8-6.43-12-9.73a1.51,1.51,0,0,1-.17-1.37C696,487,696.54,486.78,696.94,486.52Z"/>
      <path class="cls-22" d="M796.84,516.89c-1,1.2-1.63,2.45-2.66,3.1a17.57,17.57,0,0,1-4.41,1.6,2.76,2.76,0,0,1-.65-1.46c.07-1.54,4.41-4.91,5.88-4.54C795.59,515.74,796.06,516.32,796.84,516.89Z"/>
      <path class="cls-3" d="M529.54,673.21c0-2.26,0-4.09,0-5.92,0-.38.09-.77.17-1.43,1.89,0,3.7-.07,5.5,0a3.36,3.36,0,0,1,3.56,3.42c.11,2.35-1.28,3.63-3.46,3.88A54.89,54.89,0,0,1,529.54,673.21Z"/>
      <path class="cls-3" d="M574.38,672a6.94,6.94,0,0,1-7,6.87,6.86,6.86,0,0,1-6.86-7,7,7,0,1,1,13.9.15Z"/>
      <path class="cls-3" d="M596.91,675.07c.65-1.82,1.25-3.52,2.07-5.85.8,2.23,1.4,3.9,2.09,5.85Z"/>
      <path class="cls-1" d="M630,697.47h2.49l.07.57-2.45.33C630.07,698.07,630,697.77,630,697.47Z"/>
      <path class="cls-4" d="M262.61,415.24c-.83-2.53,8.84-46.65,11.2-49.76.36,1.45,1.05,2.61.83,3.55-3.65,15.48-7.41,30.93-11.15,46.38Z"/>
      <path class="cls-4" d="M259.31,429.5c5.72-12.57,11.44-25.14,17.33-38.1C277.84,395.36,263.75,426.77,259.31,429.5Z"/>
      <path class="cls-4" d="M267.5,251.29c.28-9,3.8-17.42,5.72-26.12l1.3.27-5.73,26.08Z"/>
      <path class="cls-4" d="M278.68,244.29c-.94-4.6.86-7.53,3-10.37C282.49,237.63,281,240.64,278.68,244.29Z"/>
      <path class="cls-23" d="M162.25,171.3a6.68,6.68,0,0,1,6.7,6.84,6.77,6.77,0,1,1-13.54-.17A6.61,6.61,0,0,1,162.25,171.3Z"/>
      <path class="cls-4" d="M195.62,226.67q-14.18,21.12-28.36,42.22l-.94-.38a7.89,7.89,0,0,1,.59-2.52q11.76-17.7,23.65-35.3a43.68,43.68,0,0,1,4.26-4.69Z"/>
      <path class="cls-4" d="M192.71,243.16c-3.77,6.92-9.44,12.45-14,18.78l-.78-.3c0-.61-.25-1.39,0-1.78,4.41-5.91,8.89-11.77,13.35-17.63Z"/>
      <path class="cls-4" d="M185.91,258.72l7.71-6.8c.26,2.84-3.58,6.53-7.13,7.43Z"/>
      <path class="cls-11" d="M87.8,239.06a217.2,217.2,0,0,1,18-21c-4.24,8.33-10.76,14.89-16.7,21.9Z"/>
      <path class="cls-11" d="M96.71,239.56a10,10,0,0,1,1.21-2.87c2.88-3.29,5.87-6.49,8.9-9.65.47-.48,1.38-.54,2.08-.8.06.73.45,1.67.13,2.15-3.06,4.66-7.29,8.19-11.29,11.93Z"/>
      <path class="cls-11" d="M93,225.87c-2.68,3.76-5.33,7.54-8.06,11.26-1.22,1.64-2.62,3.14-3.94,4.7l-.73-.51a13.92,13.92,0,0,1,1.2-2.18q4.91-6.16,9.92-12.26a5.78,5.78,0,0,1,1.67-1Z"/>
      <path class="cls-11" d="M93.64,224.65,93,225.87l.06,0,.57-1.28Z"/>
      <polygon class="cls-11" points="93.66 224.63 93.73 224.57 93.64 224.65 93.66 224.63"/>
      <path class="cls-15" d="M451.94,101.22c3.38-5.73,8-8.9,13.55-10,4.81-1,8.68,2.83,13.26,3.79-2.25,3.29-5.29,2.75-7.36,1.47-4.53-2.79-8-1.55-11.6,1.49a29.81,29.81,0,0,1-5,3.25C454.16,101.5,453.24,101.22,451.94,101.22Z"/>
      <path class="cls-15" d="M550,154.94c5.84.39,10.12,11.65,7.54,19.4C555.84,167.65,555.29,160.53,550,154.94Z"/>
      <path class="cls-15" d="M559.86,210.82c-2.22,5.1-6.12,8-10.51,11.12C549.88,217.33,555.55,211.29,559.86,210.82Z"/>
      <path class="cls-9" d="M174.7,94.27c0,.63,0,1.26-.08,1.88l-.57,3c0,.62-.05,1.25-.07,1.87l-1.89,13.43c-2.2,0-4.42.14-6.61-.08-4.95-.49-9.89-1.14-14.83-1.77a9.53,9.53,0,0,1-1.93-.7,52.73,52.73,0,0,1,2.49-4.85c3-4.66,5.9-9.41,9.29-13.77,1.07-1.37,3.55-1.64,5.39-2.41,1,1.71,2.46,1.9,3.77-.22a85.16,85.16,0,0,0,5.19-10.54c1.58-3.6,3.33-7.2,4.18-11a27.16,27.16,0,0,0,.22-10c-.61-3.83-3.74-5.87-7.81-5.87-2.71,0-5.12-.49-6.11-3.31-.76-2.18,1.17-9,2.64-9.85a3.07,3.07,0,0,1,1.79-.22c6.34.76,12.7,1.48,19,2.37,4.05.57,6.24,3.37,6.51,7.53.49,7.53-2,14.31-5,21-3.56,7.93-8.78,14.7-14.63,21C175.36,92.64,175,93.45,174.7,94.27Z"/>
      <path class="cls-21" d="M165.89,90.89c-1.84.77-4.32,1-5.39,2.41-3.39,4.36-6.29,9.11-9.29,13.77a52.73,52.73,0,0,0-2.49,4.85l-9-.73q1.55-3.21,3.08-6.42L153,93.4l1.29-.9,2.11-1.43a58.7,58.7,0,0,1,7.31-2.74C165.24,88,167.29,88.27,165.89,90.89Z"/>
      <path class="cls-24" d="M156.44,91.07l-2.11,1.43-1.29.9-10.28,11.37a5.79,5.79,0,0,1-.89-1.7c-.25-1.94-.35-3.89-.5-5.84,4-5,9.54-7.7,15-10.46l.84.51C157,88.54,156.71,89.81,156.44,91.07Z"/>
      <path class="cls-3" d="M172.09,114.47,174,101C174.47,105.68,174.58,110.26,172.09,114.47Z"/>
      <path class="cls-3" d="M174.05,99.17l.57-3Z"/>
      <path class="cls-3" d="M174.7,94.27l1-2.45Z"/>
      <path class="cls-1" d="M153,93.4l1.29-.9Z"/>
    </g>
  </g>
</svg>
