<svg id="f9c8b061-6c60-4b6a-af1f-052c9ff2c290" data-name="Calque 1" xmlns="http://www.w3.org/2000/svg" viewBox="0 0 161.35 161.35"><title>ROAZ-illustrations</title><path d="M80.68,0a80.68,80.68,0,1,0,80.67,80.68A80.68,80.68,0,0,0,80.68,0Zm36,65.59c0,.74,0,1.49,0,2.24,0,22.9-17.43,49.3-49.3,49.3a49,49,0,0,1-26.57-7.78,35.4,35.4,0,0,0,4.14.24,34.75,34.75,0,0,0,21.52-7.42,17.35,17.35,0,0,1-16.19-12,17.49,17.49,0,0,0,3.26.31,17.26,17.26,0,0,0,4.57-.61,17.33,17.33,0,0,1-13.9-17v-.22A17.21,17.21,0,0,0,52.1,74.8a17.37,17.37,0,0,1-5.36-23.14A49.19,49.19,0,0,0,82.46,69.77a17.15,17.15,0,0,1-.45-4A17.34,17.34,0,0,1,112,54a34.3,34.3,0,0,0,11-4.2,17.37,17.37,0,0,1-7.62,9.59,34.65,34.65,0,0,0,10-2.73A35.14,35.14,0,0,1,116.68,65.59Z" fill="#191619"/></svg>