<svg id="Calque_1" data-name="Calque 1" xmlns="http://www.w3.org/2000/svg" width="1000" height="818.63" viewBox="0 0 1000 818.63">
  <defs>
    <style>
      .cls-1 {
        fill: #fe0613;
      }

      .cls-2 {
        fill: #fdfcfd;
      }

      .cls-3 {
        fill: #f6f4f6;
      }

      .cls-4 {
        fill: #fe0b18;
      }

      .cls-5 {
        fill: #fefdfd;
      }

      .cls-6 {
        fill: #191619;
      }

      .cls-7 {
        fill: #1a171a;
      }

      .cls-8 {
        fill: #fef9f9;
      }

      .cls-9 {
        fill: #281519;
      }

      .cls-10 {
        fill: #feebec;
      }

      .cls-11 {
        fill: #dcdbdc;
      }

      .cls-12 {
        fill: #1a1619;
      }

      .cls-13 {
        fill: #fd0614;
      }

      .cls-14 {
        fill: #f1edf1;
      }

      .cls-15 {
        fill: #4a414a;
      }

      .cls-16 {
        fill: #201d20;
      }

      .cls-17 {
        fill: #1b181b;
      }

      .cls-18 {
        fill: #4d454d;
      }

      .cls-19 {
        fill: #a4040c;
      }

      .cls-20 {
        fill: #2e2b2e;
      }

      .cls-21 {
        fill: #fbfbfb;
      }

      .cls-22 {
        fill: #fdf6f7;
      }
    </style>
  </defs>
  <title>offre2_1</title>
  <g id="BVW3UV">
    <g>
      <path class="cls-1" d="M352.33,818.63H290.44a5.91,5.91,0,0,0-1.6-.57c-8.26-.45-16.55-.49-24.76-1.37s-16.3-2.42-24.38-4c-2.79-.55-6.44-1.44-6.64-4.93-.19-3.21,3.1-4.68,5.66-5.76,7.13-3,14.23-6.25,21.64-8.37,26.55-7.62,53.25-14.74,79.85-22.19,15.12-4.23,30.29-8.38,44.52-15.21a43.26,43.26,0,0,0,9.38-6.18c2.8-2.4,2.4-5.36-.7-7.41a19,19,0,0,0-6.33-3c-8.46-1.81-16.92-4.11-25.5-4.77-22-1.67-44-3.31-66-3.6-34.71-.46-69.43-.11-104.14.49-27.66.48-55.3,1.81-82.94,2.87-2.53.09-3.44-.48-3.92-3.13-6.36-34.83-10.3-69.85-8.3-105.32A159.53,159.53,0,0,1,103,587.1c4.86-15.51,13.52-28,28.09-35.94,6.8-3.71,13.46-7.7,20.29-11.36,7.09-3.79,14.32-7.32,21.49-11l.63-.65-.06.08a22.35,22.35,0,0,0,3.05-.91A1647.45,1647.45,0,0,1,368.68,453c4.3-1.37,8.65-2.59,13.33-4-.26,1.1-.35,1.7-.55,2.25a269.94,269.94,0,0,0-16.61,85.5c-.58,19.27,1.08,38.35,6.46,57,4.11,14.23,12.95,24.14,27.61,28,9.17,2.42,18.45,2,27.6-.2C452.79,615.24,474,601,490.83,580c9.05-11.27,15.24-23.94,16.33-38.57,1.11-14.86,1.89-29.75,2.62-44.64.77-15.9,1.31-31.82,2-47.73l17.08,4.48,1.85.49c.67.23,1.34.48,2,.69q41.48,12.86,82.93,25.73c9.91,3.1,19.73,6.49,29.59,9.75,1,.43,2,.9,3.09,1.28,52.38,18.82,105.13,36.71,154.4,63.13a17,17,0,0,0,2.21,1.6c7.35,3.79,11.09,10,11.86,18,1.43,15.11,3.47,30.2,4.07,45.35,1.11,27.82,1.44,55.66,1.93,83.5.23,13.36.1,26.72.14,40.08-.15,6.23-.32,12.45-.44,18.67a39.35,39.35,0,0,1-37.33,38.9q-43.86,2.49-87.75,4.86-42.66,2.25-85.33,4.27-41.44,2-82.91,3.65c-26.32,1-52.65,1.86-79,2.77-8.37.29-16.73.61-25.1.81-14.29.33-28.58.56-42.87.83-8.8,0-17.6,0-26.4.08A20.8,20.8,0,0,0,352.33,818.63ZM621.94,694.74a14.53,14.53,0,0,0,.76,2.31c.67,1.3,1.48,2.52,2.23,3.77.8-1.17,1.62-2.34,2.4-3.52a7.93,7.93,0,0,0,.49-1.31,23.19,23.19,0,0,0,.51,2.33c.81,2.15,2.62,3.41,4.47,2.19,1.11-.74,1.84-3.24,1.53-4.69-.91-4.15-4.64,0-6.59-1.82-.16-.16-1.09.13-1.26.44a31.3,31.3,0,0,0-1.39,3.5c-.53-1.37-.68-2.34-1.23-3-.37-.42-1.29-.35-2-.49-.6-.94-1.19-1.89-2.22-3.52-.23,3.2-.47,5.74-.53,8.28,0,.5.65,1,1,1.53a5.42,5.42,0,0,0,1-1.54C621.52,697.76,621.69,696.25,621.94,694.74Zm-62.45-98.45c.81,5.85,4,8.44,9.5,8.68a53.48,53.48,0,0,1,12.91,1.64c5.48,1.63,9.62,5.27,11.2,11.15.65,2.41,1.19,4.86,1.91,7.25,1.09,3.63.14,5.88-2.66,7.32-1.75-1.15-3.07-2.68-4.58-2.9-8.42-1.22-18,8.58-17,17.19H613l-11.35-15.14c.69-1.08,1.34-2,1.9-3,7.8-13.25-.69-30.94-15.83-32.1C578.44,595.71,569,596.29,559.49,596.29Zm-13.14,82.4c.56-1,1-1.74,1.46-2.55,3.76-7.34-.07-17.17-8.06-18.5-6.28-1-12.87-.21-19.34-.21V687.9H530c.09-1.45.18-2.73.27-4.22a22.2,22.2,0,0,0,3.48,0c3.11-.54,5.11.7,6.73,3.34,1.46,2.39,3.37,4.51,5.14,6.84l7.74-5.85C550.88,684.75,548.69,681.82,546.35,678.69Zm38.32-6.07a16.67,16.67,0,1,0-16.75,16.66A16.75,16.75,0,0,0,584.67,672.62ZM583,688.1c3.25,0,6.07.09,8.88-.07a2.5,2.5,0,0,0,1.83-1.48c.49-2.3,1.84-2.85,3.95-2.64a24.17,24.17,0,0,0,4.58,0,2.56,2.56,0,0,1,3.12,2.1c.24.79,1.11,1.91,1.77,2,2.88.22,5.78.09,9.09.09-3.56-10.27-6.92-20.06-10.39-29.82a2.72,2.72,0,0,0-2-1.3c-9.76-.88-9.76-.86-12.94,8.29-.2.58-.41,1.15-.61,1.73C587.89,673.85,585.51,680.75,583,688.1Zm62.83-.18v-9.8H635.16l12.15-21h-27.7v9.59h10.81c-4.19,7.32-8.12,14.15-12.18,21.23Zm159.67-117.5-1.05-.85a68.06,68.06,0,0,0-6.08,5.1c-9.67,10.2-19.51,20.25-28.74,30.84-6.13,7-11.36,14.86-16.91,22.39a17.12,17.12,0,0,0-1.56,3.54l.9.6a33.17,33.17,0,0,0,4.3-4.06,425.17,425.17,0,0,1,47.37-54.1C804.59,573,804.9,571.59,805.48,570.42ZM123.54,588.87,122.22,590a15.66,15.66,0,0,0,2,3.27q14.76,14.85,29.62,29.59c.36.36.72.84,1.17.95a10.57,10.57,0,0,0,2.19.13,7.7,7.7,0,0,0-.25-1.94,5,5,0,0,0-1.16-1.41c-8.54-8.88-17.05-17.8-25.69-26.58A61.61,61.61,0,0,0,123.54,588.87Zm19.54,3.25-1.13,1a18.9,18.9,0,0,0,1.4,2.54q8.22,10.59,16.51,21.13a83.93,83.93,0,0,0,5.87,7c.83.83,2.41.91,3.64,1.34-.36-1.14-.45-2.5-1.14-3.39-4.79-6.2-9.6-12.4-14.64-18.4C150.29,599.43,146.6,595.85,143.08,592.12ZM615.75,696.9a17.6,17.6,0,0,0,.38,1.91c.28.66.61,1.31.92,2a6.46,6.46,0,0,0,1.06-2.09,40.23,40.23,0,0,0,0-5.49c0-.55-.56-1.06-.86-1.6-.37.57-1,1.09-1.07,1.7a23.53,23.53,0,0,0-.05,3.62c-3.12-3.9-4.25-4-7.85-.77a19.25,19.25,0,0,0,0-3.17c-.09-.51-.71-.93-1.08-1.39l-1.57,2.5c-2.14-.81-4.15,0-4.28,2.59-.07,1.33,1.62,4,2.18,3.87,1.71-.28,4.69,1.78,5-1.3,1.52.5,3.15,1.47,4.71,1.38C614,700.57,614.64,698.59,615.75,696.9Zm-9.49-134.39c-.46.58-1,.93-1,1.34-.57,4.32-1.2,8.63-1.5,13-.06,1,1.08,2.09,2,3.67C608.79,573.19,609,565.73,606.26,562.51Zm36.66,134.72c-2-3.21-2-3.21-7.5-3,0,1.59-.07,3.2,0,4.8a5.17,5.17,0,0,0,.79,1.69,14.75,14.75,0,0,0,1.13-1.7c.56-1.16,1-2.36,1.54-3.55l1.05.25c.62,1.57,1.23,3.13,1.82,4.65l-1.91,1.53c3.15,1.49,5.24-1.4,6-7.81l-.7-.48C644.41,694.86,643.64,696.07,642.92,697.23Zm116.47-92.87c5.2-1,13.21-9.06,12.48-13.27C767.13,594.84,762.41,598.6,759.39,604.36Zm-118.12-7.23c4.46-.71,8.1-4.13,7.91-7.41C645.19,589.64,640.91,593.66,641.27,597.13ZM508.35,726.86c-3.54.54-5.75,3.77-4.63,6.63C506.32,732.1,508.47,730.5,508.35,726.86Z"/>
      <path class="cls-1" d="M758,0h8.57C770.7,1.33,775,2.3,779,4.05c13.47,5.91,24.66,15.14,35.27,25.07,25.17,23.55,46.52,50.37,66.39,78.41a8.11,8.11,0,0,0,5,3.45c15.07,3.84,29.28,9.61,41.45,19.57,9.24,7.56,16,16.89,17,29.08,2,24.93-9.88,49.33-33.85,61.74-1,.5-1.91,1-2.92,1.58.21.7.35,1.18.51,1.65,8.15,23.25,14.57,46.93,17.69,71.42,1.86,14.63,2.6,29.28-.23,43.9-2.49,12.89-7.42,24.37-18.73,32.18-.86.6-1.24,2.24-1.4,3.45-.76,5.45-1.06,11-2,16.38-5.31,28.9-19.8,51.27-46.59,64.75l-2.1,0c-7.15-1.1-14.31-2.16-21.45-3.3-15.1-2.4-30.23-4.63-45.27-7.34-8.18-1.47-8.88-2.8-9-11.08,0-1.43,0-2.86,0-4.28C780,410.18,784,390.08,788.08,370l1.31.74c6,3.44,11.86,7,17.88,10.29a4.92,4.92,0,0,0,6.37-1.15c5.29-.29,9.39-3.21,12.54-6.91,5.73-6.72,11.56-13.53,16.16-21,18-29.38,29.52-61.38,36.9-94.91,5.32-24.15,8-48.51,4.35-73.21-2.13-14.5-6.59-28.14-15.55-40-.9-1.19-1.93-2.28-2.75-3.24l-60.38,73.54c-4-1.56-6.71-1.16-8.82,1.31s-2.05,5.3,0,8.94c-9.24,10.62-18.31,21.39-27.75,31.82-17.32,19.15-34.6,38.35-54.92,54.49a4,4,0,0,0-1.08,2.87c.55,27,.78,54.09-1.59,81.07-1,11.27-2.3,22.5-6.09,33.28-2.36,6.73-7,10.29-14,10.88-17.21,1.47-34.11-1-50.47-5.71-15.34-4.37-30.5-8.6-46.6-7.93-8.9-8.88-17.25-18.22-24.18-28.76-13.8-21-21.13-43.74-18.82-69.12.88-.24,1.75-.51,2.64-.72,17.9-4.38,29.11-15.22,32.34-33.65a76,76,0,0,0-.45-26.48c-2.93-16.57-9.87-30.18-27.16-35.92,3.9-.13,7.65-1,10.27-4,8-9.16,8.7-16.72,1.19-24.93-3.06-3.34-6.75-6.11-9.69-8.73,2.49-2.72,5.49-5.35,7.64-8.54s3.38-6.71,4.89-10.15c3.52-8,1.58-15.17-3.91-21.53-2.25-2.61-4.88-4.91-7.33-7.35,3.23-4.31,6.13-8.94,9.77-12.89,17.09-18.61,38.78-29.1,63-34.84,2.15-.5,2.89-1.48,3.5-3.43,1.88-6,3.7-12.1,6.16-17.89,4.12-9.68,9.71-18.44,18.31-24.86C674,42.2,687.16,42.48,700.64,48c13.94,5.68,25.35,15.08,36.14,25.3l6.67,6.34c-.26-1.59-.35-2.38-.52-3.14-3.41-15.49-5.95-31.11-4.49-47C739.64,16.27,742.73,4,758,0ZM727.56,262.19l1.15.93a20.63,20.63,0,0,0,2.35-2.12c8.29-10.05,16.67-20,24.79-30.22,19-23.86,35.07-49.71,49.89-76.33a21.09,21.09,0,0,0,1.34-4.64c-1.33-.1-2.16.06-2.42.54A641.45,641.45,0,0,1,727.56,262.19Zm-82.33-85.08c-.08-.41-.15-.82-.23-1.23a20.08,20.08,0,0,0-3.48-.53,23.52,23.52,0,0,0-19.13,9.74c-7.45,10-9.63,21.48-8,33.6.91,6.62,1,12.68-2.46,18.83-4.8,8.57-6.71,17.9-4.39,27.74.49,2.1.83,4.34,3.87,5.38a17.48,17.48,0,0,0,0-3.59c-2.53-10.37-.95-20.09,4.22-29.39a23.49,23.49,0,0,0,2.53-16.38c-1.9-10.18-.93-20.32,4-29.67,4.16-7.84,10.33-12.92,19.66-13.27C643,178.29,644.11,177.53,645.23,177.11Zm95.62,34.56.75.53c1.09-1.4,2.28-2.72,3.26-4.19,9.85-14.88,17.43-31,25-47.06.7-1.49.69-3.31,1-5l-.89-.39c-.62.43-1.52.7-1.82,1.29Q754.45,184.25,740.85,211.67Z"/>
      <path class="cls-2" d="M0,115.81c36.2.82,72.4,1.56,108.6,2.52,8.55.22,17.08,1.14,25.62,1.74a5.07,5.07,0,0,0,1.35.61c6,.87,12,1.33,17.91,2.61,17,3.72,33.93,7.73,50.86,11.71,12.55,2.95,25.06,6.05,37.59,9.06,4.33,1,8.67,2,13,3.05a33.86,33.86,0,0,1-4.36.51c-1.92,0-3.83-.41-5.75-.44-23.07-.41-46.13-.84-69.2-1.13-14-.18-28-.14-41.95-.2q-29.25,0-58.49-.09c-10,0-20,.42-30,0-11-.49-21.86-2.73-30.35-10.45-4.24-3.86-7.51-8.8-11.12-13.33-1.38-1.73-2.49-3.68-3.72-5.53Z"/>
      <path class="cls-3" d="M1000,642.77c-.38,2.85-.73,5.7-1.13,8.54-1.42,10.09-2.87,20.17-4.27,30.26-.16,1.15-.15,2.32-.21,3.48-.15.13-.39.22-.43.37-2.68,9.85-5.27,19.73-8.08,29.55-.93,3.24-2.44,6.32-3.69,9.47-3.73,3.72-7.14,7.83-11.24,11.08-6.8,5.37-15.09,7.8-23.25,10.26-15.82,4.75-32.09,6.12-48.51,6.18-8.64,0-17.27,0-25.91-.11a24.29,24.29,0,0,1-4.81-.55,7.22,7.22,0,0,1-2.1-1.32c.69-.45,1.38-.9,2.08-1.34.41-.25.85-.48,1.27-.71,2.32-.09,4.65-.22,7-.26,13.39-.22,26.79,0,40.15-.73a122.27,122.27,0,0,0,43.36-10.06c9.22-4.07,16.86-10,20.3-19.78,3-8.69,5.69-17.55,8-26.47,7.85-30.34,8.09-61.24,5.9-92.22q-1.51-21.28-4.22-42.5-2.83-22.3-6.83-44.47c-1.36-7.48-4-14.72-9.92-20.13-4.52-4.11-10.29-5.58-15.81-7.59a423.62,423.62,0,0,0-59.39-17c-10.06-2.06-20.16-4-30.25-5.85-1.69-.31-2.57-.66-1.4-2.42,3.69.16,7.47-.11,11.07.56,13.48,2.49,27,4.85,40.33,8.07A366.31,366.31,0,0,1,967,482.64c9.41,3.73,15.53,10.51,18.13,20a260.22,260.22,0,0,1,6.12,28.57c1.72,11,2.74,22.15,3.8,33.26,1.56,16.56,2.89,33.14,4.34,49.71a7.29,7.29,0,0,0,.57,1.62Z"/>
      <path class="cls-4" d="M382.2,818l.15.67h-30a20.8,20.8,0,0,1,3.47-.59C364.6,818,373.4,818,382.2,818Z"/>
      <path class="cls-5" d="M340.68,172.84a23.69,23.69,0,0,1,1-3.58,112.18,112.18,0,0,1,22.4-32.06c5-4.07,9.73-8.36,14.9-12.13,4.39-3.21,9.69-4.19,15.08-4.23,2.8,0,5.31.61,7.35,3a11.74,11.74,0,0,0,9.9,3.94,75.5,75.5,0,0,0,9.73-1c6.53-1.22,12.45-3.6,17-8.89,1.71-2,4-4.08,6.36-4.8a84.3,84.3,0,0,1,16.09-3.28c10.73-1,20.16,3.25,29.25,8.29,12.13,6.72,23.5,14.46,31.87,25.78,7.72,10.44,7.67,19.56.19,30.1-2.3,3.24-4.8,6.36-6.89,9.73-4.49,7.23-5.76,15.11-3,23.18a35.77,35.77,0,0,1,1.73,15.51c-1.69,17-2.86,34-4.2,50.94-.22,2.8-.3,5.6-.46,8.58l18.54-3.17c.07-.73.09-1.23.15-1.73l4.2-34.29a9,9,0,0,1,4.69-6.79c6.61-3.93,13.53-6.66,21.45-5.42,17.29,5.74,24.23,19.35,27.16,35.92a76,76,0,0,1,.45,26.48c-3.23,18.43-14.44,29.27-32.34,33.65-.89.21-1.76.48-2.65.72-12.05,1.54-24.06,2.18-35.84-2.26-.63,27.11-1.23,54-1.88,81-.34,14.38-.75,28.76-1.12,43.14-.65,15.91-1.19,31.83-2,47.73-.73,14.89-1.51,29.78-2.62,44.64-1.09,14.63-7.28,27.3-16.33,38.57-16.81,20.94-38,35.21-64.31,41.52-9.15,2.19-18.43,2.62-27.6.2-14.66-3.87-23.5-13.78-27.61-28-5.38-18.6-7-37.68-6.46-57a269.94,269.94,0,0,1,16.61-85.5c.2-.55.29-1.15.55-2.25-4.68,1.4-9,2.62-13.33,4a1647.45,1647.45,0,0,0-192.22,74.32,22.35,22.35,0,0,1-3.05.91c4.3-6.28,8.39-12.72,12.94-18.81,7-9.37,14.31-18.5,21.49-27.74.43-.55.79-1.16,1.18-1.74a10.75,10.75,0,0,1,3.07-.2c17.47,4,34.83,3.39,52.13-1,23.12-5.85,43.38-17.38,62.23-31.64a222.65,222.65,0,0,0,38.49-37.23c2.68,1.65,5.3,3.21,7.85,4.88,7.29,4.75,15.07,7.52,23.91,6.06a45,45,0,0,0,18-7.17c8.59-5.8,17-11.89,25.57-17.69A232.28,232.28,0,0,0,483,359.32q9.92-11,19.57-22.2c.94-1.09,1.27-2.7,1.88-4.06l-.93-.75a16.23,16.23,0,0,0-3,2c-2.4,2.48-4.61,5.13-7,7.64-8.82,9.4-17.25,19.21-26.6,28.05-16.66,15.75-35.85,28.28-55,40.74-4.79,3.11-10.68,4.94-16.32,6.25-6.72,1.55-12.82-1.14-18.84-4.41A79.73,79.73,0,0,1,347.52,386c-4.91-7.56-8.3-16.16-11.92-24.49-6.79-15.66-10.67-32-10.33-49.2.17-8.55-.26-17.12-.51-25.68a12.3,12.3,0,0,0-1-3.21l-.65.28c-.33,13.83-.67,27.67-1,41.76-12.91-3.94-22.13-11.76-26.75-24.64-2.55-7.12-3-14.55-3.09-22q.88-7.78,1.75-15.58l8.15-20.61a6.59,6.59,0,0,0,1.79-1A36.44,36.44,0,0,1,322.8,230c1-.26,2-1.86,2.28-3,1.81-7.88,3.42-15.79,5.09-23.7q1.6-5.65,3.2-11.32c.46.08,1.16.4,1.36.2,2-1.9,4-3.8,5.78-5.88,2.43-2.83,4.22-6.41,7.09-8.64,10.07-7.86,21.08-9.91,33-4,1.35.67,3,.7,4.54,1l.6-1.25c-1.61-1.67-3-3.62-4.86-5-9.4-6.79-19.47-5.4-29.44-1.7C347.62,168.24,344.25,170.8,340.68,172.84ZM382.9,273.35c-1.82,0-3.44-.1-5,0-4,.28-7.86,1-9.9,4.94s-1.2,8.21,1.61,11.43A90.2,90.2,0,0,0,381.2,300.9a11.17,11.17,0,0,0,11.06,1.88,89,89,0,0,0,15.58-8.11,34.62,34.62,0,0,0,9.08-8.9c4.2-6,1.39-11.7-5.91-12.47-3.89-.41-7.86-.07-12-.07.48-5.28,1-10.64,1.44-16,1-11.17,2.1-22.35,3-33.54.44-5.58-4.4-9.18-9.75-7.43-3.92,1.28-5.92,4.18-6.3,8.19-.7,7.41-1.3,14.84-2,22.26C384.57,255.64,383.72,264.56,382.9,273.35ZM497,210.58a11.55,11.55,0,0,0,1.45-9.58,120,120,0,0,0-4-12.62c-4.7-11.86-13.42-19-26.13-20.45a44.84,44.84,0,0,0-13.82.63c-5.37,1.08-10.45,3.35-14.19,8,2.17,2.33,4.92,2.33,7.32,1.72a62.46,62.46,0,0,1,14.89-1.54c10.28-.14,18.45,8.57,22,16.22C487.62,199.46,488.49,207.61,497,210.58ZM393.33,324.84a172.46,172.46,0,0,0,37.92-3.9c1.88-.4,3.76-1,3.28-3.49s-2.35-2.4-4.29-1.94c-.5.11-1,.16-1.51.27-18.93,4.06-38,4.41-57.22,2.47-6.68-.67-13.3-2-20-2.8a4.11,4.11,0,0,0-3.29,1.29c-.45.64,0,2.42.62,3.19s2,.9,3.06,1.11A212.36,212.36,0,0,0,393.33,324.84Zm81.81-161,.1-.8a9.19,9.19,0,0,0-1.9-.73c-10.44-1.62-20.84-4-31.35-4.63-17-1.07-34-1-51.05-1.45a36.6,36.6,0,0,0-6.11.12c-.87.12-1.61,1.2-2.41,1.85a8.73,8.73,0,0,0,2.58.9c18.42.31,36.86.17,55.26,1,10.73.47,21.39,2.47,32.08,3.75A23.77,23.77,0,0,0,475.14,163.87ZM353.35,204.14a21.38,21.38,0,0,0-17.18,8.22c-1.15,1.54-1.85,3.13-.14,4.56s3.09.55,4.39-1c7-8.33,17.45-8.41,24.4-.18,1.24,1.47,2.52,2.63,4.34,1.29s1.23-3.17,0-4.76A20.76,20.76,0,0,0,353.35,204.14Zm108.37,0c-6.84.32-12.44,3-16.6,8.41-1.19,1.56-1.64,3.21.15,4.53,1.63,1.19,3,.38,4.17-1,7.26-8.49,17.35-8.53,24.59-.1,1.29,1.51,2.65,2.44,4.37,1s1.05-3.08-.12-4.57A21,21,0,0,0,461.72,204.12ZM434.38,406.25l-.13.39c2-.68,4.18-1.05,6-2.09q24.45-14.4,48.73-29.05c1.33-.8,2.22-2.33,3.58-3.81-1.1-.32-1.61-.65-1.83-.51Q462.51,388.69,434.38,406.25ZM465,358.71c1.45-.56,2.53-.68,3.18-1.28,6.55-6,13.14-12,19.47-18.26,1.59-1.57,2.26-4.06,3.55-6.5C485.87,333,468.89,350.13,465,358.71Zm62-45.79c5.13-16.51,10.8-32.86,14.57-49.75C538.7,265.22,525.91,309,527,312.92ZM445.76,540.28l1.3,1.16c9.67-10,19.33-20,27.46-31.31l-1.19-1C463.87,519.24,454.48,529.47,445.76,540.28Zm-47,3.53c1-4.38-2.43-21-4.86-24.11C392.2,525.09,395.39,541.41,398.72,543.81ZM540.85,284.63c-4.07,3.34-9.07,21.91-6.85,25.44C536.63,301.43,540.33,293.49,540.85,284.63Zm-88.44,240c4.86-4.61,9.92-14.07,9-16.79C458.23,509.53,451.49,522.15,452.41,524.61Zm-4.6-286.78-.13,1.72c3.48,1.34,6.94,2.74,10.46,3.95.49.17,1.29-.57,1.94-.89-.39-.61-.63-1.5-1.18-1.78a59.33,59.33,0,0,0-7.45-3.28C450.39,237.2,449,237.71,447.81,237.83Zm-85.62-3.39-13.06,4.85C352.76,241.78,360.34,239,362.19,234.44Z"/>
      <path class="cls-5" d="M804.91,214.11l60.38-73.54c.82,1,1.85,2.05,2.75,3.24,9,11.86,13.42,25.5,15.55,40,3.62,24.7,1,49.06-4.35,73.21-7.38,33.53-18.93,65.53-36.9,94.91-4.6,7.51-10.43,14.32-16.16,21-3.15,3.7-7.25,6.62-12.54,6.92a8.17,8.17,0,0,0-2-1.74c-3-1.25-6.47-1.87-9.21-3.59-6.86-4.3-13.53-8.95-20.11-13.69-11-7.94-20.42-17.63-29.47-27.7-6.39-7.12-13-14.06-19.55-21a17.63,17.63,0,0,0-3.38-2.22l-.61.82a28.05,28.05,0,0,0,1.67,2.37c8.68,10,17.25,20.07,26.12,29.88a186.24,186.24,0,0,0,31,27c-4.11,20.08-8.11,40.18-9.28,60.72-.08,1.42,0,2.85,0,4.28.08,8.28.78,9.61,9,11.08,15,2.71,30.17,4.94,45.27,7.34,7.14,1.14,14.3,2.2,21.45,3.3-5.11,20.44-12,40.25-21.82,58.93-7.75,14.69-17.18,28.12-29.93,39-49.27-26.42-102-44.31-154.4-63.13-1-.38-2.06-.85-3.09-1.28a346.29,346.29,0,0,1-21-55.74c-.26-.93-1.13-2.21-1.91-2.37-5-1.05-10.12-2.28-15.24-2.59-9.12-.55-18.27-.51-27.41-.7-10.66-.22-20.72,2.2-29.31,8.56-6.89,5.1-13.14,11.08-19.67,16.67l-1.85-.49c2.14-2.56,4.21-5.18,6.42-7.68,11.77-13.31,26.17-21,44.3-20.73,4.68.07,9.36,0,14.05,0,16.1-.67,31.26,3.56,46.6,7.93,16.36,4.66,33.26,7.18,50.47,5.71,7-.59,11.65-4.15,14-10.88,3.79-10.78,5.1-22,6.09-33.28,2.37-27,2.14-54,1.59-81.07a4,4,0,0,1,1.08-2.87c20.32-16.14,37.6-35.34,54.92-54.49,9.44-10.43,18.51-21.2,27.75-31.82,3.92,2.74,7.59,2.66,10.09-.24S808.2,217.5,804.91,214.11Zm25.47,62.71a59.81,59.81,0,0,0-7-.4,3.7,3.7,0,0,0-2.84,1.74,3.58,3.58,0,0,0,1.14,3.07c4.84,4,10.37,6.43,16.78,6.21,3.22-.1,4.81-1.63,5.25-4.86a35.1,35.1,0,0,0,.53-6.69c-.74-12.71-1.6-25.42-2.49-38.12-.17-2.3-1.77-3.06-3.51-1.59a9.17,9.17,0,0,0-2.75,3.92A59.53,59.53,0,0,0,832.78,251C831.76,259.6,831.15,268.23,830.38,276.82Zm-27.86,30.5c4.27,5.74,15.27,13.09,23.37,14.68a33.16,33.16,0,0,0,12.36.15c7.65-1.48,12.87-6.67,17.07-12.72Zm70.88-87.65a6.61,6.61,0,1,0-13.22.35,6.61,6.61,0,0,0,13.22-.35ZM734.76,425.24l1-.84c-1.52-4.68-3-9.39-4.58-14a43.92,43.92,0,0,0-2.85-6.29c-.25-.46-1.33-.48-2-.71-.1.64-.44,1.35-.27,1.89,1.81,5.55,3.59,11.12,5.65,16.58C732.21,423.17,733.71,424.12,734.76,425.24Zm-37.67,61.52c-.18,1-.66,2.12-.38,2.36q5.82,5,11.85,9.75c.43.35,1.43,0,2.17-.06-.21-.71-.21-1.65-.67-2.08-3.06-2.78-6.18-5.51-9.37-8.15A21.7,21.7,0,0,0,697.09,486.76Zm98.6,28.2c-2.37,2.19-4.08,3.68-5.62,5.33-.14.15.8,1.3,1.24,2,1.9-1.38,3.85-2.7,5.62-4.22C797.14,517.88,796.34,516.54,795.69,515Z"/>
      <path class="cls-6" d="M802.69,554.64c12.75-10.87,22.18-24.3,29.93-39,9.86-18.68,16.71-38.49,21.82-58.93l2.1,0,10,1.77c-1.17,1.76-.29,2.11,1.4,2.42,10.09,1.88,20.19,3.79,30.25,5.85a423.62,423.62,0,0,1,59.39,17c5.52,2,11.29,3.48,15.81,7.59,6,5.41,8.56,12.65,9.92,20.13q4,22.13,6.83,44.47,2.69,21.18,4.22,42.5c2.19,31,2,61.88-5.9,92.22-2.31,8.92-5,17.78-8,26.47-3.44,9.8-11.08,15.71-20.3,19.78a122.27,122.27,0,0,1-43.36,10.06c-13.36.68-26.76.51-40.15.73-2.32,0-4.65.17-7,.26-12.07-1.15-24.14-2.27-36.2-3.45-3.55-.34-7.08-.85-10.62-1.28,0-13.36.09-26.72-.14-40.08-.49-27.84-.82-55.68-1.93-83.5-.6-15.15-2.64-30.24-4.07-45.35-.77-8.08-4.51-14.24-11.86-18A17,17,0,0,1,802.69,554.64Zm93.78,81.51c3.89-5.14,8.78-8.73,15.28-9.72,2.45-.38,5-.48,6,2.59-1.19-.19-2.47-.73-3.56-.48-3.06.69-4.73,3-5.69,5.85-1.57,4.55-1.41,9.17-.42,14.05l35.33-1.25-12.64-18.47a30,30,0,0,0,6.34-16.49c1.08-14.64-9.1-29.66-26.56-29.54-5.4,0-10.81-.26-16.22-.33-5.18-.06-10.37,0-15.55,0a11.93,11.93,0,0,0,11.81,12.08,84.06,84.06,0,0,1,12.72.77c9.19,1.66,16.61,8.93,17.9,16.69a90.86,90.86,0,0,0,2,9.08c1.18,4.42-.54,8.14-4.58,9.51.35-3.56-1.47-6.23-5.1-6.57-7.85-.73-15.1,1-21.31,6.16-6.81,4.62-12.44,10.06-13.53,19.4,4.47-.22,8.6-.38,12.73-.69.44,0,1-.86,1.19-1.43C894,643.63,895.21,639.88,896.47,636.15ZM900.42,708c4.62-.48,8.92-.86,13.19-1.47.68-.1,1.21-1.24,1.81-1.91-.73-.41-1.45-1.15-2.2-1.18a59,59,0,0,0-8.82.11C902.53,703.72,900.23,704.12,900.42,708ZM873.59,561.71l.66-.7-4.73-4.37C868.49,559.64,870.08,561.32,873.59,561.71Zm19.84-8.06c-.28-1.73-.56-3.45-.91-5.16,0,0-1.2,0-1.28.2C890.57,550.54,890.1,552.42,893.43,553.65Z"/>
      <path class="cls-7" d="M530.67,454.06c6.53-5.59,12.78-11.57,19.67-16.67,8.59-6.36,18.65-8.78,29.31-8.56,9.14.19,18.29.15,27.41.7,5.12.31,10.19,1.54,15.24,2.59.78.16,1.65,1.44,1.91,2.37a346.29,346.29,0,0,0,21,55.74c-9.86-3.26-19.68-6.65-29.59-9.75q-41.45-13-82.93-25.73C532,454.54,531.34,454.29,530.67,454.06Z"/>
      <path class="cls-8" d="M559.49,596.29c9.53,0,19-.58,28.27.13,15.14,1.16,23.63,18.85,15.83,32.1-.56,1-1.21,1.88-1.9,3L613,646.62H570.81c-1-8.61,8.54-18.41,17-17.19,1.51.22,2.83,1.75,4.58,2.9,2.8-1.44,3.75-3.69,2.66-7.32-.72-2.39-1.26-4.84-1.91-7.25-1.58-5.88-5.72-9.52-11.2-11.15A53.48,53.48,0,0,0,569,605C563.52,604.73,560.3,602.14,559.49,596.29Z"/>
      <path class="cls-8" d="M546.35,678.69c2.34,3.13,4.53,6.06,7,9.29l-7.74,5.85c-1.77-2.33-3.68-4.45-5.14-6.84-1.62-2.64-3.62-3.88-6.73-3.34a22.2,22.2,0,0,1-3.48,0c-.09,1.49-.18,2.77-.27,4.22h-9.54V657.43c6.47,0,13.06-.84,19.34.21,8,1.33,11.82,11.16,8.06,18.5C547.4,677,546.91,677.72,546.35,678.69Zm-16.13-4.84a46.06,46.06,0,0,0,5.9-.06,3.39,3.39,0,0,0,3.2-3.8,3.34,3.34,0,0,0-3.53-3.44c-1.81-.1-3.62,0-5.57,0Z"/>
      <path class="cls-8" d="M584.67,672.62a16.67,16.67,0,1,1-16.6-16.84A16.67,16.67,0,0,1,584.67,672.62Zm-9.72,0a7,7,0,1,0-13.91-.15,7,7,0,1,0,13.91.15Z"/>
      <path class="cls-8" d="M583,688.1c2.53-7.35,4.91-14.25,7.29-21.14.2-.58.41-1.15.61-1.73,3.18-9.15,3.18-9.17,12.94-8.29a2.72,2.72,0,0,1,2,1.3c3.47,9.76,6.83,19.55,10.39,29.82-3.31,0-6.21.13-9.09-.09-.66-.05-1.53-1.17-1.77-2a2.56,2.56,0,0,0-3.12-2.1,24.17,24.17,0,0,1-4.58,0c-2.11-.21-3.46.34-3.95,2.64a2.5,2.5,0,0,1-1.83,1.48C589.05,688.19,586.23,688.1,583,688.1Zm18.72-12.21-2.11-6-2.13,6Z"/>
      <path class="cls-8" d="M645.81,687.92H618.24c4.06-7.08,8-13.91,12.18-21.23H619.61V657.1h27.7l-12.15,21h10.65Z"/>
      <path class="cls-9" d="M805.48,570.42c-.58,1.17-.89,2.62-1.77,3.46A425.17,425.17,0,0,0,756.34,628,33.17,33.17,0,0,1,752,632l-.9-.6a17.12,17.12,0,0,1,1.56-3.54c5.55-7.53,10.78-15.36,16.91-22.39,9.23-10.59,19.07-20.64,28.74-30.84a68.06,68.06,0,0,1,6.08-5.1Z"/>
      <path class="cls-9" d="M123.54,588.87a61.61,61.61,0,0,1,6.52,5.1c8.64,8.78,17.15,17.7,25.69,26.58a5,5,0,0,1,1.16,1.41,7.7,7.7,0,0,1,.25,1.94,10.57,10.57,0,0,1-2.19-.13c-.45-.11-.81-.59-1.17-.95Q139,608,124.18,593.23a15.66,15.66,0,0,1-2-3.27Z"/>
      <path class="cls-9" d="M143.08,592.12c3.52,3.73,7.21,7.31,10.51,11.23,5,6,9.85,12.2,14.64,18.4.69.89.78,2.25,1.14,3.39-1.23-.43-2.81-.51-3.64-1.34a83.93,83.93,0,0,1-5.87-7q-8.3-10.53-16.51-21.13a18.9,18.9,0,0,1-1.4-2.54Z"/>
      <path class="cls-10" d="M615.75,696.9c-1.11,1.69-1.78,3.67-2.56,3.72-1.56.09-3.19-.88-4.71-1.38-.3,3.08-3.28,1-5,1.3-.56.09-2.25-2.54-2.18-3.87.13-2.63,2.14-3.4,4.28-2.59l1.57-2.5c.37.46,1,.88,1.08,1.39a19.25,19.25,0,0,1,0,3.17c3.6-3.23,4.73-3.13,7.85.77a23.53,23.53,0,0,1,.05-3.62c.1-.61.7-1.13,1.07-1.7.3.54.82,1,.86,1.6a40.23,40.23,0,0,1,0,5.49,6.46,6.46,0,0,1-1.06,2.09c-.31-.65-.64-1.3-.92-2A17.6,17.6,0,0,1,615.75,696.9Z"/>
      <path class="cls-10" d="M621.9,694.49c.67.14,1.59.07,2,.49.55.62.7,1.59,1.23,3a31.3,31.3,0,0,1,1.39-3.5c.17-.31,1.1-.6,1.26-.44,2,1.78,5.68-2.33,6.59,1.82.31,1.45-.42,3.95-1.53,4.69-1.85,1.22-3.66,0-4.47-2.19a23.19,23.19,0,0,1-.51-2.33,7.93,7.93,0,0,1-.49,1.31c-.78,1.18-1.6,2.35-2.4,3.52-.75-1.25-1.56-2.47-2.23-3.77a14.76,14.76,0,0,1-.76-2.3Zm8.72,3.67.06.77,2.44-.2-.06-.72Z"/>
      <path class="cls-10" d="M606.26,562.51c2.71,3.22,2.53,10.68-.56,18-.88-1.58-2-2.66-2-3.67.3-4.34.93-8.65,1.5-13C605.3,563.44,605.8,563.09,606.26,562.51Z"/>
      <path class="cls-10" d="M642.92,697.23c.72-1.16,1.49-2.37,2.25-3.59l.7.48c-.75,6.41-2.84,9.3-6,7.81l1.91-1.53c-.59-1.52-1.2-3.08-1.82-4.65l-1.05-.25c-.51,1.19-1,2.39-1.54,3.55a14.75,14.75,0,0,1-1.13,1.7,5.17,5.17,0,0,1-.79-1.69c-.11-1.6,0-3.21,0-4.8C640.92,694,640.92,694,642.92,697.23Z"/>
      <path class="cls-9" d="M759.39,604.36c3-5.76,7.74-9.52,12.48-13.27C772.6,595.3,764.59,603.41,759.39,604.36Z"/>
      <path class="cls-10" d="M641.27,597.13c-.36-3.47,3.92-7.49,7.91-7.41C649.37,593,645.73,596.42,641.27,597.13Z"/>
      <path class="cls-11" d="M621.9,694.49l0,.26c-.25,1.5-.42,3-.77,4.49a5.42,5.42,0,0,1-1,1.54c-.35-.51-1-1-1-1.53.06-2.54.3-5.08.53-8.28C620.71,692.6,621.3,693.55,621.9,694.49Z"/>
      <path class="cls-10" d="M508.35,726.86c.12,3.64-2,5.24-4.63,6.63C502.6,730.63,504.81,727.4,508.35,726.86Z"/>
      <path class="cls-5" d="M172.84,528.83l.63-.65Z"/>
      <path class="cls-7" d="M302.15,242.66,294,263.27c-.68.87-1.38,1.73-2.05,2.61-3.94,5.2-8.86,9-15.4,10.17a73.09,73.09,0,0,1-8.35.5,45.78,45.78,0,0,0,24.05,2.3c.12,7.46.54,14.89,3.09,22,4.62,12.88,13.84,20.7,26.75,24.64.34-14.09.68-27.93,1-41.76l.65-.28a12.3,12.3,0,0,1,1,3.21c.25,8.56.68,17.13.51,25.68-.34,17.23,3.54,33.54,10.33,49.2,3.62,8.33,7,16.93,11.92,24.49a79.73,79.73,0,0,0,29.28,26.52c6,3.27,12.12,6,18.84,4.41,5.64-1.31,11.53-3.14,16.32-6.25,19.14-12.46,38.33-25,55-40.74,9.35-8.84,17.78-18.65,26.6-28.05,2.37-2.51,4.58-5.16,7-7.64a16.23,16.23,0,0,1,3-2l.93.75c-.61,1.36-.94,3-1.88,4.06q-9.68,11.19-19.57,22.2A232.28,232.28,0,0,1,440.25,396c-8.58,5.8-17,11.89-25.57,17.69a45,45,0,0,1-18,7.17c-8.84,1.46-16.62-1.31-23.91-6.06-2.55-1.67-5.17-3.23-7.85-4.88a222.65,222.65,0,0,1-38.49,37.23c-18.85,14.26-39.11,25.79-62.23,31.64-17.3,4.38-34.66,5-52.13,1a10.75,10.75,0,0,0-3.07.2l1-26.35c.37,3.24,0,6.67,2.81,10a23.72,23.72,0,0,0,.66-3.67c-.07-13.92-1.95-27.51-8.4-40.06a43.31,43.31,0,0,1-4.73-22.07c.38-9.05,1-18.08,1.51-27.13.12-2.34.94-4.9-1.56-6.66.06-2.4.11-4.8.17-7.21,5.12-1.67,10.28-3.23,15.35-5.06a18.93,18.93,0,0,0,11.44-10.83c2.91-6.94,6.05-13.8,8.64-20.87,14.35-39.12,26-79.12,38-119q2.83-9.45,5.72-18.89c1.27.19,2.18.29,3.08.46,13.33,2.47,20.24,9.12,22.19,22.11a63.31,63.31,0,0,1,.44,14.94C304.66,227.38,303.25,235,302.15,242.66ZM274.44,366.44l-1-.18a12.59,12.59,0,0,0-.83,2c-1,4.24-1.86,8.5-2.83,12.74-2.38,10.49-4.8,21-7.15,31.47a15.52,15.52,0,0,0,0,3.2l1.1.12q5.61-23.07,11.16-46.14C275.1,368.65,274.6,367.51,274.44,366.44Zm-14.85,63.44c5.17-4.35,18.32-33.82,17.45-38.33C271,404.73,265.31,417.3,259.59,429.88Zm15.22-204.15-1.46-.34c-1.58,8.79-5.51,17.1-5.48,26.22l1.15.24Zm4,18.17c2.81-2.83,4.09-7.24,2.83-10.11C279.83,237,278.12,240,278.82,243.9Z"/>
      <path class="cls-12" d="M133.68,145.85c14,.06,28,0,41.95.2,23.07.29,46.13.72,69.2,1.13,1.92,0,3.83.43,5.75.44a33.86,33.86,0,0,0,4.36-.51l13.88,1.81q-3.12,9.26-6.26,18.52c-6,17.53-12.19,35-17.86,52.61-4.14,12.88-7.53,26-11.36,39a29.49,29.49,0,0,1-12.17,16.72c-8.31,5.53-16.39,11.49-25.07,16.38-9.46,5.33-19.36,9.93-29.32,14.3-5.44,2.39-6.47,1.72-9.83-3.29-5.22-7.79-10.08-15.84-15.46-23.51-4.62-6.58-9.64-12.9-14.73-19.12-2.54-3.12-5.87-5.37-10.15-5.58.11-.6.26-1.19.34-1.8,1.64-13.62,3.19-27.25,5-40.85,1-8,2.42-16.06,3.65-24.09q3.09-16.11,6.17-32.21Zm28.56,25.62a6.62,6.62,0,0,0-6.67,6.85,6.78,6.78,0,1,0,6.67-6.85Zm33.63,55.35c-5.94,3.66-29.52,38.88-28.83,42.9Zm-3.48,15.91c-4.46,3-14.49,16.73-14.08,19.13C181.75,259.62,192.19,245.64,192.39,242.73ZM186.09,259l.59.63c3.57-.91,7.4-4.6,7.13-7.43Z"/>
      <path class="cls-11" d="M116.61,254.94c4.28.21,7.61,2.46,10.15,5.58,5.09,6.22,10.11,12.54,14.73,19.12,5.38,7.67,10.24,15.72,15.46,23.51,3.36,5,4.39,5.68,9.83,3.29,10-4.37,19.86-9,29.32-14.3,8.68-4.89,16.76-10.85,25.07-16.38A29.49,29.49,0,0,0,233.34,259c3.83-13,7.22-26.11,11.36-39,5.67-17.63,11.89-35.08,17.86-52.61q3.15-9.25,6.26-18.52l20.12,1.88c4.81.44,9.62.91,14.43,1.33,6.3.55,12.61,1.07,18.92,1.6,1.64,6.77,3.78,13.47,4.79,20.34,1.31,8.92,1.73,18,2.55,27a18.39,18.39,0,0,0,.54,2.28c-1.67,7.91-3.28,15.82-5.09,23.7-.26,1.15-1.31,2.75-2.28,3a36.44,36.44,0,0,0-18.86,11.63,6.59,6.59,0,0,1-1.79,1c1.1-7.65,2.51-15.28,3.2-23a63.31,63.31,0,0,0-.44-14.94c-2-13-8.86-19.64-22.19-22.11-.9-.17-1.81-.27-3.08-.46q-2.86,9.44-5.72,18.89c-12,39.88-23.64,79.88-38,119-2.59,7.07-5.73,13.93-8.64,20.87a18.93,18.93,0,0,1-11.44,10.83c-5.07,1.83-10.23,3.39-15.35,5.06a286.82,286.82,0,0,1-66.87,6.3c-8.51-.2-17-1.67-25.48-2.8-4.83-.65-7.81-3.81-8.18-8.59-.66-8.42-1.49-16.9-1.09-25.31a238.69,238.69,0,0,1,8.4-53.06c1.7-6.09,3.55-12.16,7.64-17.21Z"/>
      <path class="cls-13" d="M116.61,254.94l-1.69,1.21c-9.15.4-18.31,1.23-27.46,1.11-12.37-.15-24.52-2.45-36.51-5.45-4.71-1.18-6.27-6.05-2.67-9.39,8.31-7.66,16.59-15.44,25.56-22.29a332.46,332.46,0,0,1,51.72-31.93c-1.23,8-2.61,16-3.65,24.09-1.77,13.6-3.32,27.23-5,40.85C116.87,253.75,116.72,254.34,116.61,254.94ZM93.75,224.86l-.57,1.28a5.56,5.56,0,0,0-1.67,1q-5,6.09-9.93,12.27a13.92,13.92,0,0,0-1.2,2.18l.72.52c1.33-1.57,2.74-3.07,4-4.72,2.74-3.71,5.39-7.5,8.07-11.27l.62-1.21.09-.08Zm12.35-6.35c-3.66,1.71-17.43,19.31-17.44,22.12C95.16,233.32,101.45,226.56,106.1,218.51Zm-9.27,21.35,1,.72c1.64-1.57,3.32-3.09,4.9-4.72,2.12-2.19,4.23-4.41,6.17-6.75.44-.53.19-1.64.25-2.49-.78.23-1.81.2-2.3.71-3,3.14-6,6.35-8.92,9.65A9.48,9.48,0,0,0,96.83,239.86Z"/>
      <path class="cls-14" d="M200.33,364c2.5,1.76,1.68,4.32,1.56,6.66-.49,9.05-1.13,18.08-1.51,27.13a43.31,43.31,0,0,0,4.73,22.07c6.45,12.55,8.33,26.14,8.4,40.06a23.72,23.72,0,0,1-.66,3.67c-2.81-3.33-2.44-6.76-2.81-10s-.74-6.71-.95-10.08a54.34,54.34,0,0,0-6.33-21.47c-4.52-8.76-5.34-18-5.42-27.56,0-.77,0-1.54,0-2.31a4.31,4.31,0,0,0,.55-1.28c.68-8.76,1.32-17.52,2-26.29Z"/>
      <path class="cls-15" d="M199.87,364.63c-.65,8.77-1.29,17.53-2,26.29a4.31,4.31,0,0,1-.55,1.28,40.17,40.17,0,0,1,.76-17.48c.63-2.54.46-5.28.79-7.91A8.38,8.38,0,0,1,199.87,364.63Z"/>
      <path class="cls-15" d="M558,230.48c-7.92-1.24-14.84,1.49-21.45,5.42a9,9,0,0,0-4.69,6.79L527.62,277c-.06.5-.08,1-.15,1.73l-18.54,3.17c.16-3,.24-5.78.46-8.58,1.34-17,2.51-34,4.2-50.94a35.77,35.77,0,0,0-1.73-15.51c-2.73-8.07-1.46-15.95,3-23.18,2.09-3.37,4.59-6.49,6.89-9.73,7.48-10.54,7.53-19.66-.19-30.1-8.37-11.32-19.74-19.06-31.87-25.78-9.09-5-18.52-9.32-29.25-8.29a84.3,84.3,0,0,0-16.09,3.28c-2.4.72-4.65,2.8-6.36,4.8-4.52,5.29-10.44,7.67-17,8.89a75.5,75.5,0,0,1-9.73,1,11.74,11.74,0,0,1-9.9-3.94c-2-2.36-4.55-3-7.35-3-5.39,0-10.69,1-15.08,4.23-5.17,3.77-9.95,8.06-14.9,12.13,2.32-9.53,6.46-17.89,14.28-24.29,4.48-3.66,8.36-8,12.58-12a101.64,101.64,0,0,1,9.51-8.61c4.91-3.61,9.24-2.24,11.91,3.29.4.82.78,1.66,1.13,2.51,1.12,2.78,3.29,3.68,5.94,2.75,4.23-1.48,8.35-3.26,12.5-4.94q16.56-6.74,33.12-13.47c1.13-.45,2.37-.6,3.54-1,7-2.27,13.07-1.24,17.73,4.92.36.48.91.83,1.3,1.3,5,6.09,11.29,8.37,19.36,8.16,8.38-.21,16.81,1.37,25.22,2.17a7.36,7.36,0,0,1,1.2.26c9,2.47,10.39,4.92,7.89,13.82-1.18,4.21-2.53,8.39-3.54,12.65-1,4,0,5.9,3.33,8L561,145.24c2.45,2.44,5.08,4.74,7.33,7.35,5.49,6.36,7.43,13.5,3.91,21.53-1.51,3.44-2.8,7.08-4.89,10.15s-5.15,5.82-7.64,8.54c2.94,2.62,6.63,5.39,9.69,8.73,7.51,8.21,6.85,15.77-1.19,24.93C565.61,229.45,561.86,230.35,558,230.48ZM452.72,100.3l.21,1.14c.71,0,1.56.26,2.09,0a43.4,43.4,0,0,0,5.53-3.61c3.36-2.68,6.58-4.07,10.83-1.46,2.31,1.42,5.29,2,8.38-1.1-4.52-1.5-8.29-4.17-12.71-4C460.73,91.59,456.46,95.7,452.72,100.3ZM550.27,155c5.72,5.73,6.07,12.89,7.77,19.52C560.77,167.14,556.5,155.66,550.27,155Zm10.1,55.9c-4.55.83-10.33,7.2-10.3,11.44C554.09,218.87,558.37,216.29,560.37,210.89Z"/>
      <path class="cls-16" d="M788.08,370a186.24,186.24,0,0,1-31-27c-8.87-9.81-17.44-19.9-26.12-29.88a28.05,28.05,0,0,1-1.67-2.37l.61-.82a17.63,17.63,0,0,1,3.38,2.22c6.57,6.95,13.16,13.89,19.55,21,9,10.07,18.45,19.76,29.47,27.7,6.58,4.74,13.25,9.39,20.11,13.69,2.74,1.72,6.16,2.34,9.21,3.59a8.17,8.17,0,0,1,2,1.74,4.92,4.92,0,0,1-6.37,1.14c-6-3.32-11.93-6.85-17.88-10.29Z"/>
      <path class="cls-10" d="M727.56,262.19a641.45,641.45,0,0,0,77.1-111.84c.26-.48,1.09-.64,2.42-.54a21.09,21.09,0,0,1-1.34,4.64c-14.82,26.62-30.85,52.47-49.89,76.33C747.73,241,739.35,251,731.06,261a20.63,20.63,0,0,1-2.35,2.12Z"/>
      <path class="cls-10" d="M645.23,177.11c-1.12.42-2.23,1.18-3.37,1.23-9.33.35-15.5,5.43-19.66,13.27-5,9.35-5.94,19.49-4,29.67a23.49,23.49,0,0,1-2.53,16.38c-5.17,9.3-6.75,19-4.22,29.39a17.48,17.48,0,0,1,0,3.59c-3-1-3.38-3.28-3.87-5.38-2.32-9.84-.41-19.17,4.39-27.74,3.45-6.15,3.37-12.21,2.46-18.83-1.66-12.12.52-23.6,8-33.6a23.52,23.52,0,0,1,19.13-9.74,20.08,20.08,0,0,1,3.48.53C645.08,176.29,645.15,176.7,645.23,177.11Z"/>
      <path class="cls-10" d="M740.85,211.67q13.64-27.4,27.31-54.8c.3-.59,1.2-.86,1.82-1.29l.89.39c-.32,1.67-.31,3.49-1,5-7.57,16.09-15.15,32.18-25,47.06-1,1.47-2.17,2.79-3.26,4.19Z"/>
      <path class="cls-17" d="M804.91,214.11c3.29,3.39,3.77,7.13,1.28,10s-6.17,3-10.09.24c-2.06-3.64-2.06-6.55,0-8.94S800.93,212.55,804.91,214.11Z"/>
      <path class="cls-1" d="M322.29,153.73c-6.31-.53-12.62-1-18.92-1.6-4.81-.42-9.62-.89-14.43-1.33l-20.12-1.88-13.88-1.81c-4.34-1-8.68-2-13-3.05-12.53-3-25-6.11-37.59-9.06-16.93-4-33.87-8-50.86-11.71-5.88-1.28-11.94-1.74-17.91-2.61a5.07,5.07,0,0,1-1.35-.61l.75-9,4.88.28,9,.68c.25.16.5.42.77.46,7.05.9,14.11,1.81,21.18,2.59a2.14,2.14,0,0,0,1.76-1.14,30,30,0,0,0,.78-5c.44-4.59.55-9.23,1.36-13.75.38-2.07,2-4,3.24-5.8,3.71-5.28,8-10.25,11.19-15.8a54.44,54.44,0,0,0,5-13.27,43.67,43.67,0,0,0,1.26-10.95c0-3.82-2.45-6.46-6.34-7.06-6.38-1-12.8-1.69-19.22-2.37a2.9,2.9,0,0,0-2.14,1.27,17.1,17.1,0,0,0-1.61,3.59c-2,5.29.16,8.51,5.72,8.52,3.56,0,6.05,1.93,7.44,5.29,1.52,3.67,1.08,7.3-.07,10.82-1.62,4.94-3.45,9.83-5.45,14.63a30.89,30.89,0,0,1-4.06,6.9c-.71.92-2.4,3.12-3.58,0,1.38-2.62-.67-2.91-2.16-2.55a58.63,58.63,0,0,0-7.3,2.75c.28-1.23.55-2.46,1-4.4-1.86.71-3.21.92-4.19,1.64-5.63,4.15-11.18,8.42-16.75,12.65a118,118,0,0,1,19.72-48.95c15.18-21.55,36.1-34.27,61.79-39.27,12.19-2.37,24.51-3.61,37-2.52,14.66,1.28,28.58,4.9,40.57,13.79A67.09,67.09,0,0,1,317.51,52a117.35,117.35,0,0,1,8.61,32.82c1.34,11.36,2.21,22.7,1.05,34.06s-2.87,22.55-4.36,33.81A3.88,3.88,0,0,1,322.29,153.73Z"/>
      <path class="cls-18" d="M340.68,172.84c3.57-2,6.94-4.6,10.73-6,10-3.7,20-5.09,29.44,1.7,1.85,1.34,3.25,3.29,4.86,5l-.6,1.25c-1.52-.32-3.19-.35-4.54-1-11.89-5.94-22.9-3.89-33,4-2.87,2.23-4.66,5.81-7.09,8.64-1.79,2.08-3.8,4-5.78,5.88-.2.2-.9-.12-1.36-.2-2.52-2.32-2.22-6.05.8-10.16l6-8.22c.2-.27.39-.55.58-.82Z"/>
      <path class="cls-19" d="M139.85,111.35l-4.88-.28,1.68-10c5.57-4.23,11.12-8.5,16.75-12.65,1-.72,2.33-.93,4.19-1.64-.44,1.94-.71,3.17-1,4.4-4.34,4.37-8.84,8.59-12.93,13.18C141.94,106.29,141.09,109,139.85,111.35Z"/>
      <path class="cls-5" d="M340.73,172.8c-.19.27-.38.55-.58.82C340.35,173.35,340.54,173.07,340.73,172.8Z"/>
      <path class="cls-16" d="M982.19,724.44c1.25-3.15,2.76-6.23,3.69-9.47,2.81-9.82,5.4-19.7,8.08-29.55,0-.15.28-.24.43-.37-1.17,7.9-1.85,15.91-3.7,23.65-1.12,4.69-4,9-6.21,13.38A11.08,11.08,0,0,1,982.19,724.44Z"/>
      <path class="cls-17" d="M382.9,273.35c.82-8.79,1.67-17.71,2.48-26.64.68-7.42,1.28-14.85,2-22.26.38-4,2.38-6.91,6.3-8.19,5.35-1.75,10.19,1.85,9.75,7.43-.89,11.19-2,22.37-3,33.54-.48,5.36-1,10.72-1.44,16,4.17,0,8.14-.34,12,.07,7.3.77,10.11,6.47,5.91,12.47a34.62,34.62,0,0,1-9.08,8.9,89,89,0,0,1-15.58,8.11,11.17,11.17,0,0,1-11.06-1.88,90.2,90.2,0,0,1-11.63-11.16c-2.81-3.22-3.72-7.34-1.61-11.43s5.93-4.66,9.9-4.94C379.46,273.25,381.08,273.35,382.9,273.35Z"/>
      <path class="cls-18" d="M497,210.58c-8.5-3-9.37-11.12-12.42-17.61-3.59-7.65-11.76-16.36-22-16.22a62.46,62.46,0,0,0-14.89,1.54c-2.4.61-5.15.61-7.32-1.72,3.74-4.66,8.82-6.93,14.19-8a44.84,44.84,0,0,1,13.82-.63c12.71,1.47,21.43,8.59,26.13,20.45a120,120,0,0,1,4,12.62A11.55,11.55,0,0,1,497,210.58Z"/>
      <path class="cls-16" d="M393.33,324.84a212.36,212.36,0,0,1-41.4-3.8c-1.07-.21-2.45-.39-3.06-1.11s-1.07-2.55-.62-3.19a4.11,4.11,0,0,1,3.29-1.29c6.67.82,13.29,2.13,20,2.8,19.18,1.94,38.29,1.59,57.22-2.47.5-.11,1-.16,1.51-.27,1.94-.46,3.81-.58,4.29,1.94s-1.4,3.09-3.28,3.49A172.46,172.46,0,0,1,393.33,324.84Z"/>
      <path class="cls-20" d="M475.14,163.87a23.77,23.77,0,0,1-2.8,0c-10.69-1.28-21.35-3.28-32.08-3.75-18.4-.81-36.84-.67-55.26-1a8.73,8.73,0,0,1-2.58-.9c.8-.65,1.54-1.73,2.41-1.85a36.6,36.6,0,0,1,6.11-.12c17,.42,34.07.38,51.05,1.45,10.51.66,20.91,3,31.35,4.63a9.19,9.19,0,0,1,1.9.73Z"/>
      <path class="cls-16" d="M353.35,204.14a20.76,20.76,0,0,1,15.8,8.15c1.24,1.59,2,3.31,0,4.76s-3.1.18-4.34-1.29c-6.95-8.23-17.36-8.15-24.4.18-1.3,1.53-2.69,2.4-4.39,1s-1-3,.14-4.56A21.38,21.38,0,0,1,353.35,204.14Z"/>
      <path class="cls-16" d="M461.72,204.12a21,21,0,0,1,16.56,8.24c1.17,1.49,1.85,3.13.12,4.57s-3.08.5-4.37-1c-7.24-8.43-17.33-8.39-24.59.1-1.22,1.42-2.54,2.23-4.17,1-1.79-1.32-1.34-3-.15-4.53C449.28,207.08,454.88,204.44,461.72,204.12Z"/>
      <path class="cls-20" d="M434.38,406.25q28.14-17.55,56.31-35.07c.22-.14.73.19,1.83.51-1.36,1.48-2.25,3-3.58,3.81q-24.3,14.64-48.73,29.05c-1.78,1-4,1.41-6,2.09Z"/>
      <path class="cls-18" d="M465,358.71c3.86-8.58,20.84-25.7,26.2-26-1.29,2.44-2,4.93-3.55,6.5-6.33,6.26-12.92,12.25-19.47,18.26C467.56,358,466.48,358.15,465,358.71Z"/>
      <path class="cls-11" d="M292.25,278.85a45.78,45.78,0,0,1-24.05-2.3,73.09,73.09,0,0,0,8.35-.5c6.54-1.17,11.46-5,15.4-10.17.67-.88,1.37-1.74,2.05-2.61Q293.13,271.05,292.25,278.85Z"/>
      <path class="cls-20" d="M527,312.92c-1.07-3.88,11.72-47.7,14.57-49.75C537.78,280.06,532.11,296.41,527,312.92Z"/>
      <path class="cls-20" d="M445.76,540.28c8.72-10.81,18.11-21,27.57-31.19l1.19,1c-8.13,11.34-17.79,21.33-27.46,31.31Z"/>
      <path class="cls-20" d="M398.72,543.81c-3.33-2.4-6.52-18.72-4.86-24.11C396.29,522.81,399.73,539.43,398.72,543.81Z"/>
      <path class="cls-20" d="M540.85,284.63c-.52,8.86-4.22,16.8-6.85,25.44C531.78,306.54,536.78,288,540.85,284.63Z"/>
      <path class="cls-20" d="M452.41,524.61c-.92-2.46,5.82-15.08,9-16.79C462.33,510.54,457.27,520,452.41,524.61Z"/>
      <path class="cls-20" d="M447.81,237.83c1.22-.12,2.58-.63,3.64-.28a59.33,59.33,0,0,1,7.45,3.28c.55.28.79,1.17,1.18,1.78-.65.32-1.45,1.06-1.94.89-3.52-1.21-7-2.61-10.46-3.95Z"/>
      <path class="cls-20" d="M362.19,234.44c-1.85,4.58-9.43,7.34-13.06,4.85Z"/>
      <path class="cls-4" d="M830.38,276.82c.77-8.59,1.38-17.22,2.4-25.8a59.53,59.53,0,0,1,2.72-10.92,9.17,9.17,0,0,1,2.75-3.92c1.74-1.47,3.34-.71,3.51,1.59.89,12.7,1.75,25.41,2.49,38.12a35.1,35.1,0,0,1-.53,6.69c-.44,3.23-2,4.76-5.25,4.86-6.41.22-11.94-2.2-16.78-6.21a3.58,3.58,0,0,1-1.14-3.07,3.7,3.7,0,0,1,2.84-1.74A59.81,59.81,0,0,1,830.38,276.82Z"/>
      <path class="cls-4" d="M802.52,307.32l52.8,2.11c-4.2,6.05-9.42,11.24-17.07,12.72a33.16,33.16,0,0,1-12.36-.15C817.79,320.41,806.79,313.06,802.52,307.32Z"/>
      <path class="cls-17" d="M873.4,219.67a6.61,6.61,0,0,1-13.22.35,6.61,6.61,0,1,1,13.22-.35Z"/>
      <path class="cls-20" d="M734.76,425.24c-1-1.12-2.55-2.07-3.06-3.4-2.06-5.46-3.84-11-5.65-16.58-.17-.54.17-1.25.27-1.89.7.23,1.78.25,2,.71a43.92,43.92,0,0,1,2.85,6.29c1.61,4.64,3.06,9.35,4.58,14Z"/>
      <path class="cls-20" d="M697.09,486.76a21.7,21.7,0,0,1,3.6,1.82c3.19,2.64,6.31,5.37,9.37,8.15.46.43.46,1.37.67,2.08-.74,0-1.74.41-2.17.06q-6-4.74-11.85-9.75C696.43,488.88,696.91,487.74,697.09,486.76Z"/>
      <path class="cls-20" d="M795.69,515c.65,1.58,1.45,2.92,1.24,3.1-1.77,1.52-3.72,2.84-5.62,4.22-.44-.69-1.38-1.84-1.24-2C791.61,518.64,793.32,517.15,795.69,515Z"/>
      <path class="cls-21" d="M918.67,630.48c4-1.37,5.76-5.09,4.58-9.51a90.86,90.86,0,0,1-2-9.08c-1.29-7.76-8.71-15-17.9-16.69a84.06,84.06,0,0,0-12.72-.77,11.93,11.93,0,0,1-11.81-12.08c5.18,0,10.37-.05,15.55,0,5.41.07,10.82.37,16.22.33,17.46-.12,27.64,14.9,26.56,29.54a30,30,0,0,1-6.34,16.49l12.64,18.47-35.33,1.25c-1-4.88-1.15-9.5.42-14.05,1-2.81,2.63-5.16,5.69-5.85,1.09-.25,2.37.29,3.55.47Z"/>
      <path class="cls-19" d="M896.47,636.15c-1.26,3.73-2.5,7.48-3.82,11.2-.2.57-.75,1.4-1.19,1.43-4.13.31-8.26.47-12.73.69,1.09-9.34,6.72-14.78,13.53-19.4Z"/>
      <path class="cls-13" d="M896.47,636.15l-4.21-6.08c6.21-5.13,13.46-6.89,21.31-6.16,3.63.34,5.45,3,5.1,6.57l-.92-1.47c-1-3.06-3.55-3-6-2.58C905.25,627.42,900.36,631,896.47,636.15Z"/>
      <path class="cls-14" d="M900.42,708c-.19-3.84,2.11-4.24,4-4.45a59,59,0,0,1,8.82-.11c.75,0,1.47.77,2.2,1.18-.6.67-1.13,1.81-1.81,1.91C909.34,707.1,905,707.48,900.42,708Z"/>
      <path class="cls-11" d="M873.59,561.71c-3.51-.39-5.1-2.07-4.07-5.07l4.73,4.37Z"/>
      <path class="cls-11" d="M893.43,553.65c-3.33-1.23-2.86-3.11-2.19-5,.08-.21,1.28-.23,1.28-.2C892.87,550.2,893.15,551.92,893.43,553.65Z"/>
      <path class="cls-4" d="M530.22,673.85v-7.32c1.95,0,3.76-.08,5.57,0a3.34,3.34,0,0,1,3.53,3.44,3.39,3.39,0,0,1-3.2,3.8A46.06,46.06,0,0,1,530.22,673.85Z"/>
      <path class="cls-4" d="M575,672.64a7,7,0,1,1-13.91-.15,7,7,0,1,1,13.91.15Z"/>
      <path class="cls-4" d="M601.7,675.89h-4.24l2.13-6Z"/>
      <path class="cls-1" d="M630.62,698.16l2.44-.15.06.72-2.44.2Z"/>
      <path class="cls-14" d="M274.44,366.44c.16,1.07.66,2.21.43,3.19q-5.5,23.08-11.16,46.14l-1.1-.12a15.52,15.52,0,0,1,0-3.2c2.35-10.5,4.77-21,7.15-31.47,1-4.24,1.86-8.5,2.83-12.74a12.59,12.59,0,0,1,.83-2Z"/>
      <path class="cls-11" d="M259.59,429.88C265.31,417.3,271,404.73,277,391.55,277.91,396.06,264.76,425.53,259.59,429.88Z"/>
      <path class="cls-11" d="M274.81,225.73,269,251.85l-1.15-.24c0-9.12,3.9-17.43,5.48-26.22Z"/>
      <path class="cls-14" d="M278.82,243.9c-.7-4,1-6.88,2.83-10.11C282.91,236.66,281.63,241.07,278.82,243.9Z"/>
      <path class="cls-21" d="M162.24,171.47a6.69,6.69,0,0,1,6.88,6.67,6.78,6.78,0,1,1-13.55.18A6.62,6.62,0,0,1,162.24,171.47Z"/>
      <path class="cls-11" d="M195.87,226.82,167,269.72C166.35,265.7,189.93,230.48,195.87,226.82Z"/>
      <path class="cls-11" d="M192.39,242.73c-.2,2.91-10.64,16.89-14.08,19.13C177.9,259.46,187.93,245.71,192.39,242.73Z"/>
      <path class="cls-11" d="M186.09,259l7.72-6.8c.27,2.83-3.56,6.52-7.13,7.43Z"/>
      <path class="cls-9" d="M106.1,218.51c-4.65,8.05-10.94,14.81-17.44,22.12C88.67,237.82,102.44,220.22,106.1,218.51Z"/>
      <path class="cls-9" d="M96.83,239.86A9.48,9.48,0,0,1,98,237c2.88-3.3,5.87-6.51,8.92-9.65.49-.51,1.52-.48,2.3-.71-.06.85.19,2-.25,2.49-1.94,2.34-4,4.56-6.17,6.75-1.58,1.63-3.26,3.15-4.9,4.72Z"/>
      <path class="cls-9" d="M93.12,226.09c-2.68,3.77-5.33,7.56-8.07,11.27-1.21,1.65-2.62,3.15-4,4.72l-.72-.52a13.92,13.92,0,0,1,1.2-2.18q4.9-6.18,9.93-12.27a5.56,5.56,0,0,1,1.67-1Z"/>
      <path class="cls-9" d="M93.74,224.88l-.62,1.21.06,0,.57-1.28Z"/>
      <polygon class="cls-9" points="93.75 224.86 93.83 224.8 93.74 224.88 93.75 224.86"/>
      <path class="cls-14" d="M452.72,100.3c3.74-4.6,8-8.71,14.33-9,4.42-.22,8.19,2.45,12.71,4-3.09,3.12-6.07,2.52-8.38,1.1-4.25-2.61-7.47-1.22-10.83,1.46A43.4,43.4,0,0,1,455,101.4c-.53.3-1.38,0-2.09,0Z"/>
      <path class="cls-14" d="M550.27,155c6.23.67,10.5,12.15,7.77,19.52C556.34,167.88,556,160.72,550.27,155Z"/>
      <path class="cls-14" d="M560.37,210.89c-2,5.4-6.28,8-10.3,11.44C550,218.09,555.82,211.72,560.37,210.89Z"/>
      <path class="cls-22" d="M166.06,91c1.18,3.09,2.87.89,3.58,0A30.89,30.89,0,0,0,173.7,84c2-4.8,3.83-9.69,5.45-14.63,1.15-3.52,1.59-7.15.07-10.82-1.39-3.36-3.88-5.29-7.44-5.29-5.56,0-7.74-3.23-5.72-8.52a17.1,17.1,0,0,1,1.61-3.59,2.9,2.9,0,0,1,2.14-1.27c6.42.68,12.84,1.39,19.22,2.37,3.89.6,6.35,3.24,6.34,7.06a43.67,43.67,0,0,1-1.26,10.95,54.44,54.44,0,0,1-5,13.27c-3.24,5.55-7.48,10.52-11.19,15.8-1.27,1.82-2.86,3.73-3.24,5.8-.81,4.52-.92,9.16-1.36,13.75a30,30,0,0,1-.78,5,2.14,2.14,0,0,1-1.76,1.14c-7.07-.78-14.13-1.69-21.18-2.59-.27,0-.52-.3-.77-.46a52.71,52.71,0,0,1,2.61-5.14c2.95-4.58,5.83-9.24,9.19-13.51C161.74,92,164.22,91.74,166.06,91Z"/>
      <path class="cls-17" d="M166.06,91c-1.84.77-4.32,1-5.4,2.41-3.36,4.27-6.24,8.93-9.19,13.51a52.71,52.71,0,0,0-2.61,5.14l-9-.68c1.24-2.35,2.09-5.06,3.82-7,4.09-4.59,8.59-8.81,12.93-13.18a58.63,58.63,0,0,1,7.3-2.75C165.39,88.06,167.44,88.35,166.06,91Z"/>
    </g>
  </g>
</svg>
