<svg id="ad0b99a1-981f-4b11-a0a3-ebea0489a502" data-name="Calque 1" xmlns="http://www.w3.org/2000/svg" xmlns:xlink="http://www.w3.org/1999/xlink" viewBox="0 0 935.02 280.36"><defs><linearGradient id="e611641c-5081-49fb-b50b-1483652eba76" x1="17.39" y1="290.8" x2="148.88" y2="159.31" gradientUnits="userSpaceOnUse"><stop offset="0" stop-color="#630207"/><stop offset="0.09" stop-color="#720208"/><stop offset="0.53" stop-color="#be040e"/><stop offset="0.84" stop-color="#ed0612"/><stop offset="1" stop-color="#ff0613"/></linearGradient></defs><title>ROAZ-illustrations</title><path d="M449.57,119.4a64.63,64.63,0,0,0-19.49-47C417.23,59.57,401.27,54,383.11,54H306.89V207.8H355V185.86h28.14c3.32,0,6.64-.44,9.74-.66l38.56,51.18,38.33-28.8-35-46.53A63.47,63.47,0,0,0,449.57,119.4Zm-66.46,18.39H355V101.23h28.14a18.1,18.1,0,0,1,18.16,18.17A18.29,18.29,0,0,1,383.11,137.79Zm217.57-64.7c-16.17-16.17-35.45-24.37-58.27-24.37s-42.1,8.2-58.27,24.37c-16,16-24.15,35.45-24.15,58.27,0,22.6,8.19,42.1,24.15,58.27,16.17,16,35.45,24.15,58.27,24.15s42.1-8.2,58.27-24.15c16.17-16.17,24.37-35.67,24.37-58.27C625.05,108.54,616.85,89,600.68,73.09ZM566.78,156a35,35,0,0,1-49,0,34.1,34.1,0,0,1-10-24.59A34.47,34.47,0,0,1,566.78,107a32,32,0,0,1,10.41,24.37A32.82,32.82,0,0,1,566.78,156ZM670,54,616.63,207.8l50.52.22,7.09-20.38h49l7.09,20.16h50.3L727.19,54Zm17.72,94.38,10.86-31.24,10.86,31.24ZM935,54H796.54v47.63h55.17L790.56,207.8H928.82V159.72H873.65Z" fill="#191619"/><path d="M706.31,253.83v-.12c0-11,7.21-17.09,15.05-17.09a12.7,12.7,0,0,1,10.3,4.94V225.27H741v45h-9.38v-4.75a12.15,12.15,0,0,1-10.3,5.36C713.65,270.92,706.31,264.88,706.31,253.83Zm25.48,0v-.12c0-5.49-3.64-9.13-8-9.13s-8.08,3.58-8.08,9.13v.12c0,5.5,3.71,9.14,8.08,9.14S731.79,259.33,731.79,253.83Z" fill="#fff"/><path d="M744.25,254v-.13c0-9.43,6.72-17.21,16.34-17.21,11,0,16.11,8.58,16.11,18,0,.74-.07,1.6-.13,2.46h-23c.93,4.26,3.89,6.48,8.08,6.48,3.15,0,5.43-1,8-3.39l5.37,4.75a16.55,16.55,0,0,1-13.51,6.17C751.59,271.05,744.25,264.08,744.25,254Zm23.32-2.78c-.56-4.19-3-7-7-7s-6.41,2.78-7.15,7Z" fill="#fff"/><path d="M780.52,225.27h9.38v45h-9.38Z" fill="#fff"/><path d="M795.33,225.27h9.87v8.33h-9.87Zm.24,12H805v33.07h-9.38Z" fill="#fff"/><path d="M807.23,237.24h9.93l7.41,22.15L832,237.24h9.75l-13,33.31h-8.51Z" fill="#fff"/><path d="M840.18,254v-.13c0-9.43,6.72-17.21,16.34-17.21,11.05,0,16.11,8.58,16.11,18,0,.74-.07,1.6-.13,2.46h-23c.93,4.26,3.89,6.48,8.08,6.48,3.15,0,5.43-1,8-3.39l5.37,4.75a16.55,16.55,0,0,1-13.51,6.17C847.52,271.05,840.18,264.08,840.18,254Zm23.32-2.78c-.56-4.19-3-7-7-7s-6.41,2.78-7.15,7Z" fill="#fff"/><path d="M876,237.24h9.37v6.66c1.92-4.56,5-7.52,10.56-7.28v9.81h-.5c-6.23,0-10.06,3.77-10.06,11.66v12.22H876Z" fill="#fff"/><path d="M897.79,278.08l3.15-6.79a8.57,8.57,0,0,0,4,1.3,3.12,3.12,0,0,0,3.27-2.16l-13-33.19h9.93l7.53,22.52,7.21-22.52h9.75L917,271.11c-2.53,6.72-5.24,9.25-10.86,9.25A15.54,15.54,0,0,1,897.79,278.08Z" fill="#fff"/><path d="M172.06,199.6h0v0Z" fill="#2b1f27"/><path d="M227.68,190.59c17.36-20.92,26.44-45.77,26.44-74.18,0-2.87-.13-5.69-.31-8.49-1.91-28.84-13.55-54.31-34.42-75.17C196.51,9.86,168.1,0,135.74,0H0A47.79,47.79,0,0,0,51.93,47.5c24.61-2,53.09-.33,78.3,11.8,24.76,11.92,38.32,27,45.59,40.74,9.81,18.56,8.17,34.71,7.13,37.43,32,48.35-10.9,62.16-10.91,62.17h0c-.72-11.64-12.56-15.82-12.56-15.82l-22.33,4.05-26.86,25.35,1.7,37,15,23.17H290Z" fill="#fff"/><path d="M158.28,110.74c-1.37.72-.06,6.51,2.28,10.46,3.79,6.39,11.29,9.65,12.47,8.36C175,127.36,161,109.32,158.28,110.74Z" fill="#191619"/><path d="M127.15,273.42c-15-82.78,27.84-87,34.35-86.72C169,187,172,199.64,172,199.64h0s5-14.75-14.32-25.79c-6.56-3.76-12.59-.11-20.15,0-15,.22-43.34,8.57-79.08,31.38l-31,68.19Z" fill="#191619"/><path d="M59.16,273.42c6.87-80.5,74.65-98.51,98.56-93.21,15.55,3.45,14.32,19.43,14.32,19.43s8.36-15.31-10.91-26.34c-6.55-3.76-13.48-5.08-21.63-5.34-54.17-1.73-87.12,25.25-112,49.31C11.49,232.68,0,254.17,0,273.42Z" fill="url(#e611641c-5081-49fb-b50b-1483652eba76)"/></svg>