<svg id="Calque_1" data-name="Calque 1" xmlns="http://www.w3.org/2000/svg" xmlns:xlink="http://www.w3.org/1999/xlink" width="819.42" height="687.06" viewBox="0 0 819.42 687.06">
  <defs>
    <style>
      .cls-1 {
        fill: #191619;
      }

      .cls-2 {
        fill: #fd0612;
      }

      .cls-3 {
        fill: #2b1f27;
      }

      .cls-4 {
        fill: url(#Dégradé_sans_nom_7);
      }
    </style>
    <linearGradient id="Dégradé_sans_nom_7" data-name="Dégradé sans nom 7" x1="272.95" y1="346.85" x2="429.79" y2="190.01" gradientUnits="userSpaceOnUse">
      <stop offset="0" stop-color="#630207"/>
      <stop offset="0.08" stop-color="#700208"/>
      <stop offset="0.52" stop-color="#bc040d"/>
      <stop offset="0.84" stop-color="#eb0611"/>
      <stop offset="1" stop-color="#fd0612"/>
    </linearGradient>
  </defs>
  <title>logo1</title>
  <g>
    <g>
      <path class="cls-1" d="M186.14,477.08c0-23.7-8.67-44.52-25.44-61.28s-37.57-24-61.27-24H0V592.4H62.72V563.79H99.43c4.33,0,8.67-.58,12.72-.87l50.29,66.77,50-37.58-45.67-60.7C179.49,516.09,186.14,497.89,186.14,477.08Zm-86.71,24H62.72V453.38H99.43a23.62,23.62,0,0,1,23.7,23.7A23.87,23.87,0,0,1,99.43,501.06Zm283.83-84.39c-21.1-21.1-46.24-31.8-76-31.8s-54.92,10.7-76,31.8c-20.81,20.81-31.51,46.24-31.51,76,0,29.49,10.7,54.92,31.51,76,21.1,20.81,46.24,31.5,76,31.5s54.91-10.69,76-31.5c21.1-21.1,31.8-46.53,31.8-76C415.06,462.91,404.36,437.48,383.26,416.67ZM339,524.77c-9,8.67-19.37,13-31.79,13a44.07,44.07,0,0,1-32.09-13,44.54,44.54,0,0,1-13-32.09,44.9,44.9,0,0,1,45.09-45.09c12.42,0,22.83,4.34,31.79,13.3,9.25,8.67,13.58,19.37,13.58,31.79A42.85,42.85,0,0,1,339,524.77Zm134.69-133L404.07,592.4l65.9.29,9.25-26.59H543.1l9.25,26.3H618L548.3,391.81Zm23.12,123.13L511,474.18l14.16,40.76ZM819.42,391.81H638.77V454h72L631,592.4H811.33V529.68h-72Z"/>
      <g>
        <path class="cls-2" d="M521.05,652.45v-.15c0-14.41,9.42-22.3,19.64-22.3a16.57,16.57,0,0,1,13.44,6.44V615.19h12.23v58.75H554.13v-6.19c-3,4-7.08,7-13.44,7C530.63,674.75,521.05,666.86,521.05,652.45Zm33.24,0v-.15c0-7.17-4.74-11.92-10.46-11.92s-10.54,4.67-10.54,11.92v.15c0,7.17,4.83,11.92,10.54,11.92S554.29,659.62,554.29,652.45Z"/>
        <path class="cls-2" d="M570.55,652.62v-.17c0-12.31,8.77-22.45,21.32-22.45,14.41,0,21,11.19,21,23.42,0,1-.08,2.09-.16,3.22h-30c1.21,5.55,5.07,8.45,10.54,8.45,4.11,0,7.09-1.29,10.47-4.42l7,6.19c-4,5-9.82,8-17.63,8C580.13,674.91,570.55,665.82,570.55,652.62ZM601,649c-.73-5.47-3.94-9.17-9.1-9.17s-8.37,3.62-9.33,9.17Z"/>
        <path class="cls-2" d="M617.87,615.19H630.1v58.75H617.87Z"/>
        <path class="cls-2" d="M637.18,615.19h12.88v10.87H637.18Zm.33,15.62h12.23v43.13H637.51Z"/>
        <path class="cls-2" d="M652.72,630.81h12.95l9.66,28.89,9.74-28.89h12.71l-17,43.46H669.7Z"/>
        <path class="cls-2" d="M695.69,652.62v-.17c0-12.31,8.77-22.45,21.33-22.45,14.41,0,21,11.19,21,23.42,0,1-.09,2.09-.17,3.22h-30c1.2,5.55,5.06,8.45,10.54,8.45,4.1,0,7.08-1.29,10.46-4.42l7,6.19c-4,5-9.82,8-17.62,8C705.27,674.91,695.69,665.82,695.69,652.62ZM726.11,649c-.72-5.47-3.94-9.17-9.09-9.17s-8.37,3.62-9.34,9.17Z"/>
        <path class="cls-2" d="M742.45,630.81h12.23v8.69c2.5-6,6.52-9.82,13.77-9.5v12.8h-.65c-8.13,0-13.12,4.91-13.12,15.21v15.93H742.45Z"/>
        <path class="cls-2" d="M770.86,684.08l4.1-8.85a11.07,11.07,0,0,0,5.23,1.69c2.1,0,3.22-.64,4.27-2.81l-16.9-43.3h13l9.82,29.37,9.41-29.37h12.72L795.89,675c-3.3,8.77-6.84,12.07-14.17,12.07A20.27,20.27,0,0,1,770.86,684.08Z"/>
      </g>
    </g>
    <g>
      <path class="cls-3" d="M457.44,238.07h0v0Z"/>
      <path class="cls-2" d="M523.78,227.32c20.71-24.94,31.53-54.59,31.53-88.48,0-3.41-.15-6.77-.37-10.11C552.67,94.32,538.78,64,513.89,39.07,486.59,11.77,452.71,0,414.11,0H252.21c0,33.42,28.64,59.38,61.94,56.65,29.35-2.41,63.33-.4,93.4,14.07,29.53,14.22,45.7,32.2,54.37,48.6,11.7,22.13,9.75,41.4,8.5,44.64,38.16,57.67-13,74.14-13,74.15h0c-.86-13.89-15-18.87-15-18.87l-26.64,4.84-32,30.23,2,44.17,17.84,27.63H598.11Z"/>
      <path class="cls-1" d="M441,132.08c-1.64.86-.08,7.77,2.72,12.49,4.52,7.62,13.46,11.51,14.87,10C461,151.91,444.25,130.39,441,132.08Z"/>
      <path class="cls-1" d="M403.86,326.12c-17.92-98.73,33.22-103.74,41-103.43,9,.36,12.58,15.43,12.58,15.43h0s5.9-17.59-17.08-30.76c-7.82-4.48-15-.13-24,0-17.87.26-51.7,10.22-94.33,37.43l-37,81.33Z"/>
      <path class="cls-4" d="M322.77,326.12c8.2-96,89.05-117.49,117.56-111.17,18.54,4.11,17.08,23.17,17.08,23.17s10-18.26-13-31.42c-7.82-4.48-16.08-6.06-25.81-6.37C354,198.27,314.68,230.45,285,259.15c-19,18.38-32.73,44-32.73,67Z"/>
    </g>
  </g>
</svg>
