<svg id="Calque_1" data-name="Calque 1" xmlns="http://www.w3.org/2000/svg" width="182.83" height="179.99" viewBox="0 0 182.83 179.99">
  <defs>
    <style>
      .cls-1 {
        fill: #393538;
      }
    </style>
  </defs>
  <title>colis</title>
  <path class="cls-1" d="M182,65.08c0-4,0-8,0-12,0-7.18-1.64-9.41-8.15-12.26-7.76-3.39-15.61-6.64-23-10.65Q126,16.8,101.68,2.64c-5-2.93-10-3.63-14.77-1C77,7,67.29,12.87,57.53,18.6c-6,3.53-11.89,7.24-17.94,10.68-6.87,3.9-13.83,7.65-20.81,11.35-2.75,1.45-5.56,3.1-8.54,3.75-4.8,1-8.66,3.37-9.74,8C-.41,56.29.15,60.62.41,64.75c.78,12,1.93,24,2.54,36a218.08,218.08,0,0,1,0,24.39c-.28,4.82.93,8.84,4.66,11.22a254.43,254.43,0,0,0,24.87,14.3c17.5,8.55,36.26,14.42,52.74,25.27,3.68,2.41,8.94,7.52,13.73.49.24-.35,1-.26,1.52-.49,7.48-3.53,15.08-6.83,22.38-10.7,7-3.71,13.48-8.46,20.58-11.93,9.38-4.57,19.2-8.21,28.72-12.51,4.63-2.09,9.24-4.85,9.7-10.61.61-7.73.79-15.51.86-23.28.13-13.94,0-27.88,0-41.82Zm-95.1-49.2c5.65-2.84,10.36.73,15.09,3.44,13.66,7.85,27.32,15.72,41.13,23.31,4.24,2.32,9.06,3.57,13.44,5.67a6.24,6.24,0,0,1,2.93,3.82c.14.65-2,2.11-3.3,2.72-5.8,2.71-11.63,5.38-17.57,7.75a6.11,6.11,0,0,1-4.9-.19C121.62,54.3,108.4,48.64,95,43.1c-9.54-3.93-18-10.36-27.56-16C74.11,23.2,80.33,19.18,86.92,15.88Zm-.71,145.77a4.62,4.62,0,0,1-3.84.28c-3-1.51-5.7-3.74-8.76-5.17C60.1,150.41,46.49,144.27,32.93,138c-3.09-1.43-6.19-2.86-9.14-4.56-4.64-2.67-7.16-6.11-7-12.21.2-11-1.11-22-1.42-33-.28-9.64-.06-19.31-.06-30.13,7.19,4,13.58,7.67,20.05,11.18C49.93,77.2,64.68,84.91,79.13,93.13c2,1.11,3.37,4.57,3.58,7.07,1.65,19.38,3,38.79,4.3,58.2C87.09,159.5,86.9,161.23,86.21,161.65ZM96.65,80.86c-5,3.6-10,2.54-14.79.09C75.23,77.58,68.8,73.8,62.2,70.35c-9-4.74-18.18-9.29-27.23-14-3.43-1.79-6.73-3.82-10.89-6.2,4.85-2.6,9.05-4.91,13.29-7.13,5.57-2.92,11.28-5.6,16.73-8.73,3.07-1.76,4.84-.12,7.18,1.36C72.91,43,84.47,50.49,96.43,57.29c7.11,4,14.9,6.89,22.38,10.27.09.68.17,1.37.26,2-5.17,2.83-10.29,5.74-15.52,8.44C101.35,79.19,98.62,79.46,96.65,80.86Zm70.45,42.51a8.38,8.38,0,0,1-4.31,6c-19,7.51-36.95,16.8-53.17,29.28-2,1.51-4.15,2.72-7,4.54-4.52-23.27-5.18-46.28-4.79-70l68.27-30.9c.46,3.11,1.13,6.06,1.29,9,.39,7.14.79,14.29.73,21.43C168.07,103,167.83,113.2,167.1,123.37Z"/>
</svg>
