<svg id="f71c6990-f576-4c4c-a37b-67c93578a1ea" data-name="Calque 1" xmlns="http://www.w3.org/2000/svg" viewBox="0 0 152.78 185.98"><title>ROAZ-illustrations</title><path d="M132.8,62c-13-11.56-27.44-14.88-43.91-9.72-4.14,1.3-8.16,3-13,4.78,6.65-15.39,17-24.21,32.35-27.93,3.93-.95,7-5.83,10.19-9.11.4-.4-.15-2.63-.83-3-2.7-1.58-5.67-3.92-8.47-3.82a26.27,26.27,0,0,0-12.49,3.48C90,20.83,84.08,26.07,77.89,30.84,73.77,25.34,70,19.44,65.4,14.35,58.06,6.29,50.05-1.35,37.82.2,33.1.8,28.47,2.45,23.92,4c-11,3.68-11.16,3.84-6.62,14.45,2.53,5.92,3.17,13.26,9.56,16.72C38.64,41.5,50.3,48.51,64.68,46.66c1.45-.19,4.14.82,4.42,1.8a8.85,8.85,0,0,1-.69,6.1c-.51,1-3,1.35-4.49,1.28-1.89-.09-3.72-1-5.62-1.42-20.64-4.17-41,3.08-51.41,22.09C-2.46,93.58-.84,112,3.26,129.91c2.57,11.18,8,21.69,11.74,32.64,6.17,18,27.32,22.87,40.68,14.89,7.55-4.52,14.56-3.36,22.17,1,24.48,14,43.79,8.27,57.47-14.32,7.18-11.86,10.86-26.13,14.6-39.73C156.48,100.53,152.14,79.23,132.8,62ZM65.67,34c-.4,1.19-3.36,1.57-5.23,2.18a9.16,9.16,0,0,1-2.3.14c-10.86-.43-20.19-5-28-12-2.35-2.1-3.56-7.83-2.41-10.75.92-2.32,6.25-4,9.64-4,10-.13,15.86,7.12,21.93,13.72a38.57,38.57,0,0,1,4.49,5.2C64.83,30.14,66.18,32.51,65.67,34ZM116,164.05c-8.67,11.06-13.84,10-26,6.26a74.18,74.18,0,0,1-13.57-6.23c-8-4.39-15.88-3.83-23.78.19-1.38.7-2.75,1.41-4.19,2-10.85,4.24-17.51,1.68-22.73-8.83C15.09,136,9.47,113.81,15.59,89.94c4.36-17,18-28.14,36.87-22.71,13.18,3.78,26.26,6,40.34-.88,20.32-10,44,8,44.42,30.05,0,1.56,0,3.11,0,4.66C135.66,123.93,130.32,145.78,116,164.05Z" fill="#393538"/></svg>