<svg id="a333da72-c642-41bf-98e1-4abb1ceb64cf" data-name="Calque 1" xmlns="http://www.w3.org/2000/svg" viewBox="0 0 200 195"><title>ROAZ-illustrations</title><path d="M156.41,66.54C143.41,55,129,51.66,112.5,56.82c-4.14,1.29-8.16,3-13,4.78,6.65-15.39,17-24.21,32.35-27.93,3.93-1,7-5.83,10.19-9.11.4-.4-.15-2.63-.83-3-2.7-1.58-5.67-3.92-8.47-3.82a26.27,26.27,0,0,0-12.49,3.48c-6.61,4.14-12.53,9.38-18.72,14.16C97.38,29.85,93.64,24,89,18.86,81.67,10.8,73.66,3.15,61.43,4.71c-4.72.6-9.35,2.24-13.9,3.77-11,3.68-11.16,3.83-6.62,14.45,2.53,5.91,3.17,13.26,9.56,16.71C62.25,46,73.91,53,88.29,51.17c1.45-.19,4.14.82,4.42,1.8a8.85,8.85,0,0,1-.69,6.1c-.51,1-3,1.35-4.49,1.27-1.89-.08-3.72-1-5.62-1.41C61.27,54.75,40.92,62,30.5,81c-9.35,17.06-7.73,35.48-3.63,53.39,2.57,11.19,8,21.7,11.74,32.65,6.17,18,27.32,22.87,40.68,14.88,7.55-4.51,14.56-3.36,22.17,1,24.48,14,43.79,8.26,57.47-14.32,7.18-11.86,10.86-26.13,14.6-39.73C180.09,105,175.75,83.73,156.41,66.54Zm-67.13-28c-.4,1.2-3.36,1.58-5.23,2.19a8.72,8.72,0,0,1-2.3.13c-10.86-.42-20.19-5-28-12-2.35-2.1-3.56-7.84-2.41-10.76.92-2.31,6.25-4,9.64-4,10-.12,15.86,7.13,21.93,13.73A38,38,0,0,1,87.38,33C88.44,34.64,89.79,37,89.28,38.5ZM139.6,168.56c-8.67,11.06-13.84,10-26,6.26a74.18,74.18,0,0,1-13.57-6.23c-8-4.39-15.88-3.83-23.78.19-1.38.7-2.75,1.41-4.19,2-10.85,4.24-17.51,1.67-22.73-8.83C38.7,140.53,33.08,118.32,39.2,94.45c4.36-17,18-28.14,36.87-22.72,13.18,3.79,26.26,6.06,40.34-.87,20.32-10,44,8,44.42,30.05,0,1.55,0,3.11,0,4.66C159.27,128.44,153.93,150.29,139.6,168.56Z" fill="#393538"/></svg>