<svg id="Calque_1" data-name="Calque 1" xmlns="http://www.w3.org/2000/svg" width="167.83" height="152.34" viewBox="0 0 167.83 152.34">
  <defs>
    <style>
      .cls-1 {
        fill: #393538;
      }
    </style>
  </defs>
  <title>sensible</title>
  <path class="cls-1" d="M166.3,134c-7.78-13.23-16.88-25.68-24.56-38.95-8.4-14.54-15.84-29.63-23.55-44.56-3.41-6.62-6.36-13.48-9.71-20.13-3.15-6.23-7.24-12.09-9.61-18.6a24.1,24.1,0,0,0-6.12-9.39C88.49-1.8,82.29-.26,80.12,5.4a102.46,102.46,0,0,1-5.11,12c-7,13-14.22,25.88-21.32,38.83C51.06,61.08,48.56,66,46,70.81L40.25,81.64,0,141.7a54,54,0,0,0,4.07,5.1A28.67,28.67,0,0,0,9,150.51c.93.6,2.23,1.42,3.13,1.19,12.24-3.06,24.37-.53,36.55.32,6.18.43,12.42-.18,18.64-.16,14.19.06,28.43.95,42.57.16,16.64-.93,33.14-4.15,49.93-2.35,3,.33,7.2.29,7.71-3.68S168.17,137.17,166.3,134Zm-45-17.35L104,134l-18.4-18.4L67.23,134,49.91,116.65l18.4-18.4-18.4-18.4L67.23,62.53l18.4,18.4L104,62.53l17.32,17.32L103,98.25Z"/>
</svg>
