<svg id="b1a46bc0-7349-478e-a404-b53485f4455e" data-name="Calque 1" xmlns="http://www.w3.org/2000/svg" viewBox="0 0 200 195"><title>ROAZ-illustrations</title><path d="M182.39,155.32c-7.78-13.22-16.88-25.67-24.56-38.94-8.4-14.54-15.84-29.63-23.55-44.56-3.42-6.62-6.36-13.48-9.72-20.13-3.15-6.24-7.23-12.1-9.6-18.6a24.14,24.14,0,0,0-6.12-9.39c-4.27-4.18-10.46-2.63-12.63,3A104.92,104.92,0,0,1,91.1,38.78c-7,13-14.23,25.88-21.32,38.83-2.63,4.8-5.13,9.68-7.69,14.53L56.34,103,16.09,163a52.39,52.39,0,0,0,4.06,5.11A29.27,29.27,0,0,0,25,171.84c.93.6,2.23,1.42,3.13,1.19,12.23-3.07,24.36-.53,36.55.32,6.18.43,12.42-.19,18.64-.16,14.19.06,28.42.95,42.57.15,16.64-.93,33.14-4.14,49.93-2.34,3,.33,7.19.29,7.71-3.68S184.26,158.5,182.39,155.32ZM137.44,138,120.12,155.3l-18.4-18.4-18.4,18.4L66,138l18.4-18.4L66,101.18,83.32,83.86l18.4,18.4,18.4-18.4,17.32,17.32L119,119.58Z" fill="#393538"/></svg>