<svg id="Calque_1" data-name="Calque 1" xmlns="http://www.w3.org/2000/svg" width="185.56" height="176.78" viewBox="0 0 185.56 176.78">
  <defs>
    <style>
      .cls-1 {
        fill: #393538;
      }
    </style>
  </defs>
  <title>volume</title>
  <path class="cls-1" d="M33.23,48.22l25,3.87c-5.45-15-2.35-27.12,5.57-38.83C72.8-.09,75.29-1.58,91.67,1.12S118.79,13,122,29.35c1.06,5.34-.45,11.19-.89,18.43,5.61.15,12.37.77,19.07.41,14.34-.78,20.72-.43,26.58,19.86,3.67,12.73,5.79,25.93,8.46,39,3.29,16.07,6.37,32.19,9.66,48.26,2.45,11.93-2.09,18.81-14.17,20.45a35.72,35.72,0,0,1-11.72-.18c-18.35-3.77-36.58-1.5-55-.21-20.25,1.41-40.62,1.21-60.95,1.43-9.38.1-18.82,0-28.16-.84-12.73-1.08-17-7.22-14-19.75,2-8.37,5-16.5,7-24.86C12,114.6,16.76,98,19.28,81,21.15,68.46,28.45,59.18,33.23,48.22Zm81.37,69.51,8.19,7.26c-1.29,2.33-2,4.77-3.63,6.29-2.13,2-5.59,5.06-7.32,4.44-2.68-1-5.42-4.34-6.31-7.25-2.44-8-2.45-16.4,1.78-23.87,5.1-9,11-17.58,16.56-26.36-5.57-3.5-7.42-3.59-12.91.87-8.07,6.57-13.25,15.42-17.19,24.72-5.35,12.63-.49,33,9,41.42,5.81,5.22,10,5.78,17,2.33,12.67-6.2,20.73-20.55,19.72-35.09C125.76,107.31,121.8,108,114.6,117.73Zm-44.69,9.9c3.27,3.91,5.18,6.86,7.72,9.08,4.41,3.86,8.27,2.39,10.21-3.15,1.83-5.26,1.32-9.56-2.83-13.75s-7.83-9.29-11.82-14.12c5.7-5.34,11.91-8.56,13-15.66-7.64-5.19-12.18,3.5-18.46,3.54-2.63-14.33-2.63-14.33-12.44-13.63-6.2,19.4-2.71,59.44,5.92,68C71.08,145.36,67.47,136.17,69.91,127.63ZM87.4,47.47c10.86-.16,18.64-5.1,18.51-11.74-.2-10.06-8.1-20.63-15.39-20.59-8.39,0-17.14,10.57-17,20.42C73.68,43.5,78.44,47.59,87.4,47.47Z"/>
</svg>
