<svg id="b85b9a3a-b0b3-4fbc-82bd-b63b0455ac1e" data-name="Calque 1" xmlns="http://www.w3.org/2000/svg" viewBox="0 0 200 195"><title>ROAZ-illustrations</title><path d="M19.55,124.43c0-12.32.08-24.57,0-36.81C19.41,71.76,19.13,55.89,19,40c0-2.43.92-4,3.32-5.6C42.36,21.32,64.76,13.17,86.47,3.57a69,69,0,0,1,8-2.54c2.89,2.09,5.09,4.17,7.68,5.48,18,9.1,35.68,18.85,55.2,24.55,5.66,1.65,8.71,6.45,8.73,12.35.05,17.21.12,34.42.33,51.63,0,4.71.63,9.41.94,13.73l30,15.8c.39,3.82.66,6.24.88,8.67.45,4.91.82,9.82,1.31,14.73.24,2.46-.67,4.43-2.9,5.21-5,1.75-10.13,3.17-15,4.66l-5.75-9.27-21.44,10c.57,2.54,1.18,5,1.67,7.46.84,4.24.31,5.34-3.86,6.64-3.69,1.15-7.47,2-11.24,2.87-5,1.1-5.07,1-8.18-4.26-3.57,3.74-6.8,2.22-9.55-1-7,2.46-13.93,4.12-19.28,9.62a36.92,36.92,0,0,1,.81,3.66c.51,4.08-.59,5.91-4.54,7.28a89.07,89.07,0,0,1-8.63,2.57c-2.49.59-5,1-7.45-.66a18.63,18.63,0,0,0-4.77-1.89c-5.17-1.68-8.77-4.4-7.81-10.63.15-1-.5-2-.73-2.86-.6-.36-1-.57-1.34-.8-6.81-4.44-13.54-1.79-19.89.85-2.23.92-3.76,1.18-5.79.42-1-.38-2.06-.61-3.07-1-6.7-2.3-6.88-2.31-6.78-9.3.06-3.64-1.3-5.52-4.73-6.54-6-1.79-11.42-2.48-16.79,2.11-3.28,2.8-11.75-1.51-12-6a175.25,175.25,0,0,1,.29-20c.1-1.56,1.8-3.49,3.28-4.38C9.07,129.87,14.25,127.29,19.55,124.43ZM158.48,41c-5.86,1.89-11.73,3.8-17.61,5.67-8.82,2.82-17.43,6.06-25.3,11.08-4.17,2.65-8.35,5.44-12.89,7.27-4.2,1.7-5.18,4.42-5.28,8.41-.47,20.18-1.12,40.36-1.6,60.55-.17,7,0,14,0,22.16,5.82-2,10.73-3.33,15.41-5.26,9.92-4.09,19.71-8.47,29.56-12.71,7.24-3.12,14.48-6.21,21-9C160.63,99.37,159.56,70.43,158.48,41ZM89.58,68.81A174.89,174.89,0,0,1,47.86,52.18c-6.58-3.6-14-5.59-22.29-8.76-.74,29.61-1.46,58.09-2.16,85.88l66.17,26.77Zm58.76-34.15c-8.71-4.06-16.79-7.88-24.94-11.56a5,5,0,0,0-3.42,0c-10.79,4.08-21.81,7.66-31.77,13.69-1.44.88-3.21,1.19-4.76,1.9-3.31,1.53-6.54,3.19-9.85,4.71S66.91,46.3,62.77,48.1c3.27,1.71,5.44,3.18,7.83,4,4.84,1.68,9.84,2.87,14.68,4.55,3.23,1.12,6.3,2.72,9.94,4.33,7.77-4.63,16-10.18,24.78-14.55S138.42,38.72,148.34,34.66ZM113.84,18c-5.46-2.92-10-5.13-14.37-7.75C96.25,8.33,93.39,8,89.83,9.55,77.49,15.06,65,20.22,52.6,25.65,45.29,28.85,38.1,32.3,30.11,36c1.53.53,2.27.85,3,1,7.07,1.77,14.29,3.13,20.55,7.19,2.93,1.9,5.53,1.19,8.37-.37C78.6,34.77,95,25.46,113.84,18ZM99.35,185.6c-2.38-6.7.54-10.29,5.58-12.47,7.45-3.21,15-6.24,22.55-9.17,2.71-1.06,5.62-1.62,8.84-2.52,1.3,3.68,2.38,6.77,3.49,9.92,2-.68,3.38-1.18,4.79-1.62,5.83-1.81,5.83-1.81,5-8.18-.47-3.43.72-6.27,3.57-7.58,6.82-3.11,13.56-6.52,20.62-9,6.56-2.27,9.5-4,10.31,6.09,0,.37.41.72.64,1.07,7.81-.69,9.28-1.94,9.24-9,0-3.76-.76-7.52-1.28-12.17-31.83,18.51-66.67,27.61-99.42,40.92-.49,5.48-.94,10.46-1.46,16.24Zm-11-26.74-15.41,7C77.8,170,82,171,87.18,168.56c5.82-2.75,11.95-4.85,18-7.09,20.31-7.53,40.72-14.79,60.92-22.58,8.64-3.33,16.88-7.74,26.4-12.17l-14.37-6c-3.36,1.82-6,2.76-7.93,4.43-2.15,1.81-3.63,4.38-5.57,6.46a8.88,8.88,0,0,1-2.84,1.47c-11.29,5.24-22.56,10.53-33.89,15.68-7,3.19-14.07,6.37-21.25,9.2C100.66,160.29,94.53,163,88.3,158.86ZM45.43,173.42a16.33,16.33,0,0,0,.65-2.24c.9-7.1,1.71-7.61,8.37-5.15,5.43,2,10.88,3.92,16.27,6,5.6,2.2,6.3,3.16,5.17,9.16-.56,3,.5,4.49,2.84,5.63,1.82.88,3.69,1.64,6,2.65l1.78-14c-2.49-.9-4.46-1.52-6.34-2.33-9.25-4-18.48-8-27.71-12C37.34,154.56,21,150.92,7.22,141.3c-.25-.17-.79.09-1.29.17-.2,3.42-.29,6.86-.64,10.27-.52,5.13-.59,5.13,5,6.08l3.19-7c7.26,2.33,14.05,4.28,20.66,6.7,4.44,1.64,5.12,3.19,4.86,7.9-.1,1.86-.35,3.71-.56,5.83Zm17.38-22.74c-7.93-7.09-15.88-4.54-24.45.13l12.85,4.83ZM66,163.34l14.78-5.55c-9.83-6.27-12.67-6.16-22.78.85ZM23.05,144.4c3.88,1.35,7.13,3.56,10.14,3.27,3.89-.38,7.6-2.74,11.55-4.32C37.49,137.53,30.73,139.41,23.05,144.4Zm4.51-6.91-9.4-6.63L9,135.63c2.32,1.64,4,2.88,5.74,4,1.05.7,2.2,1.25,3.38,1.91,1.59-.75,3.1-1.5,4.65-2.18S25.81,138.19,27.56,137.49Zm140-21.75v6l5.94-3Z" fill="#393538"/></svg>