<svg id="Calque_1" data-name="Calque 1" xmlns="http://www.w3.org/2000/svg" width="199.21" height="192.94" viewBox="0 0 199.21 192.94">
  <defs>
    <style>
      .cls-1 {
        fill: #393538;
      }
    </style>
  </defs>
  <title>palettes</title>
  <path class="cls-1" d="M19.16,123.4c0-12.32.07-24.57,0-36.81C19,70.73,18.73,54.86,18.59,39c0-2.43.92-4,3.32-5.6C42,20.29,64.36,12.14,86.07,2.54a69.59,69.59,0,0,1,8-2.54c2.89,2.09,5.09,4.17,7.68,5.48,18,9.1,35.68,18.85,55.2,24.55,5.66,1.65,8.71,6.45,8.73,12.35.06,17.21.12,34.42.33,51.63.06,4.71.63,9.41.94,13.73L197,123.54c.39,3.82.66,6.24.88,8.67.44,4.91.81,9.82,1.3,14.73.24,2.46-.67,4.43-2.89,5.21-5,1.75-10.14,3.17-15,4.66l-5.75-9.27-21.43,10c.57,2.54,1.17,5,1.66,7.46.84,4.24.31,5.34-3.85,6.64-3.69,1.15-7.47,2-11.25,2.87-5,1.1-5.07,1-8.18-4.26-3.56,3.74-6.79,2.22-9.54-1-7,2.46-13.93,4.12-19.29,9.62a36.92,36.92,0,0,1,.81,3.66c.51,4.08-.59,5.91-4.53,7.28a90.11,90.11,0,0,1-8.64,2.57c-2.49.59-5,1-7.44-.66a18.7,18.7,0,0,0-4.78-1.89c-5.16-1.68-8.76-4.4-7.81-10.63.15-1-.5-2-.72-2.86-.61-.36-1-.57-1.34-.8-6.81-4.44-13.54-1.79-19.89.85-2.23.92-3.77,1.18-5.79.42-1-.38-2.06-.61-3.08-1-6.69-2.3-6.88-2.31-6.77-9.3.05-3.64-1.31-5.52-4.74-6.54-6-1.79-11.41-2.48-16.79,2.11-3.27,2.8-11.75-1.51-12-6a173,173,0,0,1,.29-20c.1-1.56,1.79-3.49,3.28-4.38C8.68,128.84,13.85,126.26,19.16,123.4ZM158.09,40c-5.87,1.89-11.74,3.8-17.62,5.67-8.82,2.82-17.43,6.06-25.3,11.08-4.16,2.65-8.35,5.44-12.89,7.27-4.19,1.7-5.18,4.42-5.27,8.41C96.54,92.6,95.88,112.78,95.4,133c-.16,7,0,14,0,22.16,5.82-2,10.72-3.34,15.4-5.26,9.92-4.09,19.72-8.47,29.57-12.71,7.23-3.12,14.47-6.21,21-9C160.23,98.34,159.17,69.4,158.09,40ZM89.19,67.78A175,175,0,0,1,47.46,51.15c-6.57-3.6-14-5.59-22.28-8.76C24.43,72,23.72,100.48,23,128.27L89.19,155Zm58.75-34.15c-8.7-4.06-16.79-7.88-24.94-11.56a5,5,0,0,0-3.42,0c-10.79,4.08-21.8,7.66-31.77,13.69-1.44.88-3.21,1.19-4.76,1.9-3.3,1.53-6.54,3.19-9.84,4.71s-6.7,2.93-10.84,4.73c3.28,1.71,5.44,3.18,7.84,4C75,52.77,80.05,54,84.88,55.64c3.24,1.12,6.3,2.72,10,4.33,7.77-4.63,16-10.18,24.77-14.55S138,37.69,147.94,33.63ZM113.45,17c-5.47-2.92-10-5.13-14.38-7.75C95.85,7.3,93,6.94,89.44,8.52,77.09,14,64.59,19.19,52.2,24.62,44.9,27.82,37.7,31.27,29.72,35c1.53.53,2.26.85,3,1,7.07,1.77,14.29,3.13,20.54,7.19,2.93,1.9,5.53,1.19,8.38-.37C78.2,33.74,94.61,24.43,113.45,17ZM99,184.57c-2.37-6.7.54-10.29,5.58-12.47,7.45-3.21,15-6.24,22.56-9.17,2.71-1.06,5.61-1.62,8.83-2.52l3.5,9.91c2-.67,3.37-1.17,4.78-1.61,5.83-1.81,5.83-1.81,5-8.18-.48-3.43.71-6.27,3.57-7.58,6.82-3.11,13.55-6.52,20.62-9,6.56-2.27,9.5-4,10.3,6.09,0,.37.42.72.65,1.07,7.8-.69,9.27-1.94,9.23-9,0-3.76-.76-7.52-1.27-12.17-31.84,18.51-66.68,27.61-99.43,40.92-.49,5.48-.94,10.46-1.46,16.24Zm-11-26.74-15.42,7c4.91,4.06,9.08,5.14,14.3,2.67,5.81-2.75,11.94-4.85,18-7.1,20.31-7.52,40.72-14.78,60.92-22.57,8.65-3.33,16.88-7.74,26.4-12.17l-14.37-6c-3.36,1.82-5.95,2.76-7.93,4.43-2.14,1.81-3.62,4.38-5.57,6.46a8.93,8.93,0,0,1-2.83,1.47c-11.29,5.24-22.56,10.53-33.89,15.68-7,3.19-14.07,6.37-21.25,9.2C100.27,159.26,94.13,161.93,87.91,157.83ZM45,172.39a17.48,17.48,0,0,0,.64-2.24c.91-7.1,1.72-7.61,8.38-5.15,5.42,2,10.88,3.92,16.26,6,5.61,2.2,6.31,3.16,5.18,9.16-.57,3,.49,4.49,2.83,5.63,1.82.88,3.69,1.64,6,2.65.67-5.29,1.24-9.85,1.77-14-2.48-.9-4.45-1.52-6.34-2.33-9.25-4-18.47-8-27.71-12C37,153.53,20.58,149.89,6.82,140.27c-.24-.17-.79.09-1.28.17-.21,3.42-.3,6.86-.64,10.27-.52,5.13-.6,5.13,5,6.08,1-2.21,2-4.43,3.19-7,7.26,2.33,14,4.28,20.65,6.7,4.44,1.64,5.12,3.19,4.86,7.9-.1,1.86-.35,3.71-.56,5.83Zm17.38-22.74c-7.94-7.09-15.88-4.54-24.45.13l12.84,4.83ZM65.6,162.3c5.31-2,9.91-3.71,14.78-5.54-9.83-6.27-12.67-6.16-22.78.85ZM22.65,143.37c3.89,1.35,7.13,3.56,10.14,3.27,3.9-.38,7.6-2.74,11.55-4.32C37.09,136.5,30.33,138.38,22.65,143.37Zm4.52-6.91-9.41-6.63L8.64,134.6c2.33,1.64,4,2.88,5.74,4,1.06.7,2.21,1.25,3.38,1.91,1.59-.75,3.1-1.5,4.65-2.18S25.41,137.16,27.17,136.46Zm140-21.75v6l5.93-3Z"/>
</svg>
