<svg id="a9deb867-e6f9-471e-b31c-e90e1085274e" data-name="Calque 1" xmlns="http://www.w3.org/2000/svg" viewBox="0 0 200 195"><title>ROAZ-illustrations</title><path d="M40.45,57.34l25,3.86C60,46.2,63.07,34.08,71,22.37,80,9,82.51,7.53,98.89,10.24S126,22.06,129.26,38.46c1.06,5.34-.45,11.19-.89,18.43,5.61.15,12.36.77,19.07.41,14.33-.78,20.72-.42,26.57,19.86,3.68,12.74,5.8,25.93,8.46,39,3.3,16.08,6.38,32.19,9.67,48.27,2.45,11.92-2.1,18.8-14.18,20.44a35.66,35.66,0,0,1-11.71-.18c-18.36-3.76-36.58-1.5-55-.21-20.25,1.41-40.63,1.21-60.95,1.43-9.39.1-18.82,0-28.16-.83-12.73-1.09-17-7.23-14.05-19.76,2-8.37,5-16.49,7-24.85,4.08-16.71,8.82-33.34,11.34-50.3C28.37,77.57,35.67,68.3,40.45,57.34Zm81.37,69.5L130,134.1c-1.29,2.33-2,4.78-3.64,6.29-2.12,2-5.59,5.06-7.31,4.44-2.68-1-5.42-4.33-6.31-7.24-2.44-8-2.45-16.41,1.78-23.88,5.1-9,11-17.58,16.56-26.35-5.57-3.51-7.42-3.6-12.91.87-8.08,6.56-13.25,15.41-17.19,24.71-5.35,12.63-.49,32.95,9,41.42,5.81,5.22,10,5.79,17,2.33,12.67-6.2,20.73-20.54,19.72-35.09C133,116.42,129,117.14,121.82,126.84Zm-44.69,9.9c3.27,3.91,5.17,6.86,7.72,9.09,4.41,3.85,8.27,2.38,10.2-3.16,1.84-5.25,1.33-9.56-2.82-13.75s-7.83-9.29-11.82-14.12c5.7-5.34,11.9-8.55,13-15.66-7.65-5.19-12.18,3.51-18.46,3.54-2.63-14.33-2.63-14.33-12.45-13.62-6.19,19.4-2.7,59.43,5.93,68C78.3,154.47,74.69,145.28,77.13,136.74ZM94.62,56.58c10.85-.16,18.64-5.09,18.51-11.74-.2-10.06-8.1-20.63-15.39-20.59-8.39.05-17.14,10.57-17,20.42C80.9,52.62,85.66,56.71,94.62,56.58Z" fill="#393538"/></svg>