<svg id="e667d0a4-77f2-4033-ac89-9eeaa339604d" data-name="Calque 1" xmlns="http://www.w3.org/2000/svg" viewBox="0 0 200 195"><title>ROAZ-illustrations</title><path d="M190.61,72.58v-12c0-7.18-1.64-9.4-8.16-12.25-7.75-3.39-15.6-6.65-23-10.66q-24.78-13.35-49.14-27.51c-5-2.93-10-3.63-14.78-1.05-10,5.35-19.62,11.28-29.38,17-6,3.53-11.89,7.24-17.94,10.68-6.87,3.9-13.82,7.65-20.81,11.34-2.75,1.46-5.56,3.1-8.54,3.75-4.79,1-8.66,3.38-9.73,8-.92,3.93-.36,8.27-.09,12.4.77,12,1.93,24,2.54,36a222.79,222.79,0,0,1,.05,24.38c-.29,4.82.92,8.85,4.65,11.22a252.71,252.71,0,0,0,24.87,14.3c17.51,8.56,36.26,14.43,52.75,25.27,3.68,2.42,8.93,7.52,13.73.49.23-.34,1-.26,1.52-.48,7.47-3.54,15.07-6.84,22.38-10.7,7-3.71,13.47-8.47,20.58-11.93,9.37-4.58,19.2-8.21,28.71-12.51,4.64-2.1,9.25-4.85,9.7-10.61.61-7.74.8-15.52.87-23.28.12-13.94,0-27.88,0-41.83ZM95.5,23.39c5.65-2.84,10.36.73,15.09,3.44,13.67,7.85,27.32,15.72,41.14,23.3,4.24,2.33,9.06,3.58,13.44,5.68a6.17,6.17,0,0,1,2.92,3.81c.15.65-2,2.12-3.29,2.73-5.8,2.71-11.64,5.37-17.58,7.75a6.13,6.13,0,0,1-4.89-.2C130.21,61.8,117,56.15,103.55,50.6,94,46.67,85.51,40.24,76,34.6,82.7,30.7,88.92,26.69,95.5,23.39Zm-.7,145.76a4.61,4.61,0,0,1-3.85.28c-3-1.5-5.7-3.73-8.75-5.16-13.52-6.35-27.13-12.5-40.68-18.76-3.09-1.43-6.2-2.86-9.14-4.56-4.64-2.67-7.17-6.1-7.05-12.2.2-11-1.11-22-1.43-33-.28-9.65-.06-19.31-.06-30.14,7.2,4,13.59,7.67,20.06,11.18,14.62,7.94,29.36,15.64,43.82,23.87,1.94,1.1,3.37,4.57,3.58,7.06,1.65,19.38,3,38.79,4.3,58.2C95.67,167,95.48,168.74,94.8,169.15Zm10.43-80.78c-5,3.59-10,2.54-14.78.08-6.64-3.37-13.07-7.14-19.66-10.6-9.05-4.73-18.18-9.28-27.23-14-3.43-1.79-6.73-3.82-10.89-6.2,4.85-2.61,9-4.91,13.29-7.13,5.57-2.92,11.27-5.61,16.72-8.73,3.08-1.77,4.84-.12,7.18,1.36C81.49,50.5,93.06,58,105,64.79c7.11,4,14.9,6.89,22.38,10.27.09.69.18,1.37.26,2.06-5.16,2.82-10.28,5.74-15.51,8.44C109.94,86.7,107.2,87,105.23,88.37Zm70.46,42.51a8.39,8.39,0,0,1-4.32,6c-19,7.5-36.94,16.79-53.17,29.28-2,1.51-4.15,2.71-7,4.54-4.53-23.28-5.18-46.28-4.79-70l68.27-30.89c.46,3.1,1.12,6,1.28,9,.39,7.13.79,14.29.74,21.43C176.65,110.48,176.42,120.7,175.69,130.88Z" fill="#393538"/></svg>