<svg id="Calque_1" data-name="Calque 1" xmlns="http://www.w3.org/2000/svg" width="127.6" height="142.88" viewBox="0 0 127.6 142.88">
  <defs>
    <style>
      .cls-1 {
        fill: #191619;
      }
    </style>
  </defs>
  <title>Plan de travail 16</title>
  <g>
    <path class="cls-1" d="M111.8,51.21a50.65,50.65,0,0,0-15.27-36.8C86.46,4.34,74,0,59.72,0H0V120.48H37.67V103.3h22c2.6,0,5.21-.35,7.64-.53l30.21,40.11,30-22.57L100.17,83.85A49.74,49.74,0,0,0,111.8,51.21Z"/>
    <path class="cls-1" d="M59.72,65.62h-22V37h22A14.19,14.19,0,0,1,74,51.21,14.33,14.33,0,0,1,59.72,65.62Z"/>
  </g>
</svg>
