<svg id="b6fb2223-82f7-465a-a927-0e4596f93e5f" data-name="Calque 1" xmlns="http://www.w3.org/2000/svg" viewBox="0 0 159 199"><title>ROAZ-illustrations</title><path d="M21.15,152.39S-6.31,116,25.61,78.16s85-5.57,121-60.87c0,0,25.23,43.06,3.71,95S69.4,152,50.85,152.39s-24.13-2.6-24.13-2.6Z" fill="#5ae997"/><path d="M10.17,181.71S26,146.08,46,127.89,100.21,95.49,111,85.34s17.44-23.88,17.44-23.88-16.7,26.05-61.23,44.94S0,179.48,0,179.48Z" fill="#fff"/><path d="M152,56.47c-.1.6-.2,1.2-.28,1.8s-.14,1-.18,1.27c-.67.23-1.12.4-1.58.55-.2.06-.51.21-.6.13-1-.92-2.61-1.2-2.78-3-.21-2.28-.57-4.55-1-6.8-.9-4.76-1.89-9.5-2.84-14.25-.2-1-.37-2-.55-3,2-.37,2.14-2.37,3.35-3.44l1.68.32a11.48,11.48,0,0,1,1.14,2.34c.82,3.57,1.72,7.15,2.22,10.77.59,4.14.78,8.34,1.16,12.51a1.64,1.64,0,0,0,.26.51Z" fill="#fff"/><path d="M18.57,102.19a45.33,45.33,0,0,1,4.91.59c6.48,1.5,12.83,3.59,19.52,4a8.41,8.41,0,0,1,5.61,2.11c-.78,1.89-2.25,2-4.06,1.64-3-.53-6.14-.74-9.18-1.3-2.73-.5-5.42-1.27-8.12-2-1.9-.48-3.79-1-5.68-1.53C19.94,105.34,19.32,104,18.57,102.19Z" fill="#191619"/><path d="M111.86,121.68a6.51,6.51,0,0,1-4.7-.32c-2.72-1.06-5.33-2.44-8.11-3.29s-5.49-1.11-8.23-1.7q-4.8-1-9.57-2.2a3,3,0,0,1-1.39-.9,1.53,1.53,0,0,1-.35-1.22c.08-.24.75-.46,1.12-.41,2,.25,4,.6,6,.88a79,79,0,0,1,7.88,1.11,81.86,81.86,0,0,1,9.68,3.08,38.67,38.67,0,0,1,5.72,3A12.18,12.18,0,0,1,111.86,121.68Z" fill="#191619"/><path d="M75.84,93c-1-1.55-2.11-3.06-3.06-4.65-2.42-4-4.83-8.11-7.12-12.23-1.24-2.23-2.25-4.58-3.3-6.9a3.11,3.11,0,0,1,0-1.18,4.86,4.86,0,0,1,1.09.11c2,.65,3.14,2.33,4.12,4,2,3.33,3.85,6.71,5.52,10.19a88.58,88.58,0,0,1,3.26,8.38,6.83,6.83,0,0,1,0,2.17Z" fill="#191619"/><path d="M128.63,83.63c-1.92,0-2,0-2-1.64a1.64,1.64,0,0,1,.71-1.26,93.62,93.62,0,0,1,10.11-5c1.45-.55,3.43,0,5.07.39.87.22.44,1.29-.13,1.76a12.92,12.92,0,0,1-3,2c-3.16,1.32-6.37,2.5-9.58,3.7A3.4,3.4,0,0,1,128.63,83.63Z" fill="#191619"/><path d="M56.5,128.77c2.62-.78,3,1.07,3.73,2.27a55.83,55.83,0,0,1,3.22,6.54,10.66,10.66,0,0,1,.36,3.28c0,.81-.58,1-1.1.75a4.9,4.9,0,0,1-2-1.64,90.18,90.18,0,0,1-4.16-8.13C56.16,130.93,56.5,129.71,56.5,128.77Z" fill="#191619"/><path d="M106,62.26c1.71,1.28,1.67,3,2,4.57-1.08.82-1.55.24-1.93-.6A5,5,0,0,1,106,62.26Z" fill="#191619"/></svg>