<svg id="a66a7246-eada-48ec-9d99-663c27bebb73" data-name="Calque 1" xmlns="http://www.w3.org/2000/svg" xmlns:xlink="http://www.w3.org/1999/xlink" viewBox="0 0 159 199"><defs><linearGradient id="abf4aefd-4738-4c94-b36c-b7d47f2d5332" x1="656.13" y1="257.63" x2="666.95" y2="246.82" gradientTransform="matrix(1.03, 0.01, -0.31, 0.88, -529.98, -194.24)" gradientUnits="userSpaceOnUse"><stop offset="0" stop-color="#630207"/><stop offset="0.09" stop-color="#720208"/><stop offset="0.53" stop-color="#be040e"/><stop offset="0.84" stop-color="#ed0612"/><stop offset="1" stop-color="#ff0613"/></linearGradient></defs><title>ROAZ-illustrations</title><path d="M23.92,48.26s-13,5.45-11.25,15.18,23.8-.88,29.62-3.44,8.3-2.13,8.3-2.13v-6L38,46.64l-10.93.77Z" fill="#191619"/><path d="M52.39,79.77s-9-8-13.16.82S43.44,106.3,52,105.77,52.39,79.77,52.39,79.77Z" fill="#191619"/><path d="M144.51,76.86c-4.91-9-13-4.13-16.43-1.43-1.22-15.3-2.31-24.66-2.31-24.66L46.44,46.12s-4.66,36,2.67,66.11,21.33,27.64,21.33,27.64c.89,16.14,1.78,35.37,1.78,35.37s5.33,19.46,26.44,15.7,32.75-22.11,32.75-22.11c.28-20-.2-39.42-1-56.53C141.6,110.79,150.66,88.11,144.51,76.86Z" fill="#efefef"/><polygon points="73.64 123.61 87.86 113.07 87.86 116.9 86.75 122.64 82.91 125.39 77.88 127.07 75.87 126.19 73.64 123.61" fill="#fff"/><path d="M70.88,100.59a126.89,126.89,0,0,0-2.34-22.87,2,2,0,0,0-3.94-.28c-2.38,7-5.6,18.84-5.23,30.22a2.85,2.85,0,0,0,2.16,2.66c3.42.84,9.12,2,13.28-1.55,5.7-4.87,2.15-7.89-.23-8.63A5.05,5.05,0,0,0,70.88,100.59Z" fill="#191619"/><ellipse cx="97.15" cy="80.58" rx="2.91" ry="2.9" fill="#191619"/><ellipse cx="99.02" cy="78.16" rx="1.7" ry="1.7" fill="#fff"/><ellipse cx="59.01" cy="80.58" rx="2.91" ry="2.9" fill="#191619"/><ellipse cx="60.88" cy="78.16" rx="1.7" ry="1.7" fill="#fff"/><path d="M128.4,94.8a4,4,0,0,1-.49-1.13c-.18-1.89-.29-3.78-.45-5.89a48.89,48.89,0,0,1-3.81,3.53,6.74,6.74,0,0,1-2.61.89c-.16,0-.66-.61-.66-.93,0-1.49.12-3,.22-4.46s.25-3.15.39-4.92l-1.43.31c-1,.22-1.93.53-2.92.66-2.56.33-4.22-1.72-3.23-4.4a45,45,0,0,1,2.07-4.32c.09-.19.19-.37.31-.61-.2-.11-.35-.27-.51-.27-1.22,0-2-.88-2.91-1.51a2.38,2.38,0,0,1-.72-1.23A5.45,5.45,0,0,1,112.3,66a1.27,1.27,0,0,0-.37-1.86A24.25,24.25,0,0,1,110,62.07l.11-.25a43.84,43.84,0,0,1,4.59.52c3.71.79,7.39,1.73,11.09,2.6,1.45.34,1.88,1.2,2,2.58.16,3.26.21,6.52.33,9.78.06,1.56.2,3.11.26,4.66s0,3,.09,4.53c.12,2.46.28,4.92.41,7.39a7.91,7.91,0,0,1-.06.84Z" fill="#191619"/><path d="M77.07,141.55c-2.11-.37-4.11-.68-6.08-1.09a25.79,25.79,0,0,1-8-2.67c-1.51-.89-2.72-2.28-4.15-3.33-2.4-1.74-3.7-4.23-4.89-6.81-.08-.19,0-.47.08-.71.23.09.54.11.68.28a5.25,5.25,0,0,1,.72,1.18c1.77,4,5,6.2,9.1,7.21a40,40,0,0,0,12.52,1,27.51,27.51,0,0,0,7.2-1.78,113.52,113.52,0,0,0,11-4.64c2.76-1.35,5.25-3.22,7.94-4.72,1.88-1.05,3.88-1.89,5.86-2.76.33-.15.81,0,1.21.09a3.32,3.32,0,0,1-.31,1.11,20.48,20.48,0,0,1-4.57,4.39c-1.2.89-2.35,1.83-3.58,2.66-1.65,1.12-3.34,2.2-5.06,3.2-1.26.73-2.59,1.33-3.91,2-1.72.82-3.45,1.65-5.2,2.42a27.66,27.66,0,0,1-3.8,1.43C81.54,140.61,79.28,141.05,77.07,141.55Z" fill="#191619"/><path d="M67.16,170.14c.94.54.6,1.34.52,2a55.8,55.8,0,0,0-1,6.59,13.12,13.12,0,0,0,1.11,5.14c1.21,2.86,3.55,4.84,5.88,6.86,3.53,3.07,7.9,3.34,12.13,4.16a4,4,0,0,1,2.84,1.54,10.1,10.1,0,0,0-.67,1.24c-.48,1.26-.93,1.56-2.18,1.27-2-.47-3.9-1-5.86-1.45a17.54,17.54,0,0,1-9.57-6,20.38,20.38,0,0,1-5-10.3,24.61,24.61,0,0,1,.13-4.45,22.44,22.44,0,0,1,1.34-6.06A3.33,3.33,0,0,1,67.16,170.14Z" fill="#191619"/><path d="M78.62,127.66c-2.54.15-4.24-1.13-5.66-2.87-.67-.82-.55-1.29.37-1.93,1.35-1,2.79-1.8,4.1-2.8,3.18-2.45,6.32-5,9.47-7.46a1,1,0,0,1,1.79.42c1.84,3.94.72,7.52-1.71,10.64A10.24,10.24,0,0,1,78.62,127.66Zm7.9-13.35-12.88,9.3a5.15,5.15,0,0,0,5.66,1.48c3.28-1,6.07-2.64,7.13-6.21A9.56,9.56,0,0,0,86.52,114.31Z" fill="#191619"/><path d="M121.7,138.76a2.48,2.48,0,0,1,.1,2.41c-1.57,3.62-3.18,7.23-4.74,10.86-.69,1.59-1.24,3.23-2,4.81-.82,1.82-1.74,3.59-2.63,5.38-1,2-2,4-3,6-.73,1.38-1.57,2.7-2.36,4.05l-.31-.14c.31-.86.57-1.74.92-2.58q2.7-6.45,5.45-12.87,3.06-7.12,6.18-14.21a32.76,32.76,0,0,1,1.66-3.09C121.15,139.14,121.45,139,121.7,138.76Z" fill="#191619"/><path d="M119.91,190c2.8-2.25,5.38-4.24,7.85-6.36a28.22,28.22,0,0,0,3-3.21c1-1.16,2-2.34,2.9-3.56,2.43-3.19,3.88-6.68,3.19-10.8a2.09,2.09,0,0,1,0-.56,1.55,1.55,0,0,1,.07-.35,2.3,2.3,0,0,1,1.74,2.16,13,13,0,0,1-1.38,6.49c-1.64,3.47-4.16,6.32-6.64,9.19-2.32,2.68-5.3,4.6-8.11,6.71a4.28,4.28,0,0,1-1.52.69C120.69,190.47,120.34,190.19,119.91,190Z" fill="#191619"/><path d="M96.62,116c1.1-1.35,2.17-2.64,3.22-3.94,1.68-2.1,3.33-4.23,5-6.29s3.43-4,5.18-6a14.06,14.06,0,0,1,1.78-1.58,2.18,2.18,0,0,1,.76-.18c0,.28.23.64.12.84a12.8,12.8,0,0,1-1.28,1.89c-2.82,3.39-5.66,6.76-8.48,10.14-1.35,1.62-2.67,3.27-4,4.91C98.25,116.72,97.68,116.79,96.62,116Z" fill="#191619"/><path d="M98.66,62.31a30.43,30.43,0,0,1,4.55-.36c.56,0,1.19.87,1.58,1.47a21.5,21.5,0,0,1,3.12,7,3.46,3.46,0,0,1-.38,2.71c-.41.66-.94.68-1.33,0a3.68,3.68,0,0,1-.4-1.09c-.29-1.95-1.56-3.4-2.5-5A13.19,13.19,0,0,0,98.66,62.31Z" fill="#191619"/><path d="M50.9,68.22a9,9,0,0,0-.44-.88c-1-1.49-.87-2.43.75-3.32a22,22,0,0,1,6.66-2.65,1.51,1.51,0,0,1,1.11.27c.66.52,1.23,1.15,2,1.85-1.13.33-2.11.65-3.11.88a10.07,10.07,0,0,0-3.93,2.14C53,67.22,52.2,68.19,50.9,68.22Z" fill="#191619"/><path d="M107.42,163.92a4.74,4.74,0,0,1,0-1.25q2.66-8.86,5.35-17.72c.46-1.54.9-3.07,1.36-4.61.12-.42.24-1,.81-.75a1.13,1.13,0,0,1,.41,1,40,40,0,0,1-.94,4.07c-1.16,3.79-2.34,7.58-3.58,11.35-.79,2.41-1.71,4.78-2.59,7.16a3.51,3.51,0,0,1-.57.83Z" fill="#191619"/><path d="M76.4,115.74c.33.69.76,1.18.72,1.62a2.78,2.78,0,0,1-.78,1.75c-1.41,1.14-3,2.14-4.45,3.18a1.69,1.69,0,0,1-2.56-.58.92.92,0,0,1,.08-.77,11.81,11.81,0,0,1,4.74-4.12C74.92,116.43,75.71,116.08,76.4,115.74Z" fill="#191619"/><path d="M75.87,155.23c1.39-.3,1.59.69,1.88,1.39,1.25,3.09,2.43,6.21,3.63,9.32.78,2,1.56,4,2.3,6.07a2.64,2.64,0,0,1,0,.89l-.39.12a30.56,30.56,0,0,1-1.65-3q-2.64-6.17-5.15-12.37A18,18,0,0,1,75.87,155.23Z" fill="#191619"/><path d="M130.17,105.59a8.15,8.15,0,0,1-.19-1.3c0-2.45-.07-4.91-.09-7.37,0-2.82-.12-5.64-.08-8.46.05-3.09.2-6.17.34-9.24,0-.28.34-.55.52-.82.19.29.55.59.55.88-.07,2.6-.22,5.21-.31,7.82-.09,2.43-.18,4.86-.2,7.29,0,3.25,0,6.5,0,9.75a10.7,10.7,0,0,1-.21,1.46Z" fill="#191619"/><path d="M88.26,108.15c.72,1.92-.35,2.89-1.74,3.78s-2.78,2-4.22,2.91c-1,.62-1.63.49-2.85-.51.59-.47,1.16-.92,1.71-1.38,1.37-1.17,2.67-2.43,4.13-3.47A15.75,15.75,0,0,1,88.26,108.15Z" fill="#191619"/><path d="M113.35,194.1a7.78,7.78,0,0,1-1.37-1,1.31,1.31,0,0,1,.49-2.33.94.94,0,0,1,.84.18A2.93,2.93,0,0,1,113.35,194.1Z" fill="#191619"/><path d="M97.92,195.63l1-.55c.67.9,1.43,1.78.74,3-.14.25-.41.56-.63.58a.9.9,0,0,1-.64-.53c-.3-.79-.52-1.61-.76-2.41Z" fill="#191619"/><path d="M71.88,182.5a4.6,4.6,0,0,1,.21,1.94c-.1.28-1.11.32-1.71.32-.18,0-.54-.52-.51-.77C70,183,70.75,182.66,71.88,182.5Z" fill="#191619"/><path d="M130.87,177.84c-1,.8-2,.86-2.56.16-.24-.27-.16-.81-.23-1.23.36-.05.78-.24,1-.11A13.46,13.46,0,0,1,130.87,177.84Z" fill="#191619"/><path d="M45,47.67S55.33-4.8,95.77.36c48.74,5.3,32.29,66,32.29,66S99.51,53.71,45,47.67Z" fill="#ff0613"/><path d="M128.06,66.38S57.55,37.8,23.92,48.26A36.28,36.28,0,0,1,48,51.45c9.66,5.13,13,18.71,26.76,17C91.57,66.38,102.14,57.37,128.06,66.38Z" fill="#fff"/><path d="M117.45,53.25a9.4,9.4,0,0,1,0,1.68,2.12,2.12,0,0,1-.61,1.14c-.55.5-.9.34-1-.38-.24-2.12-.42-4.26-.68-6.38-.34-2.73-.64-5.47-1.15-8.18a61.8,61.8,0,0,0-1.83-7.48c-1-3.22-2.19-6.41-3.54-9.51-1.12-2.53-2.6-4.91-3.94-7.34a27,27,0,0,1-1.48-2.45,11.28,11.28,0,0,1-.59-2.72c0-.16.36-.49.61-.55a1,1,0,0,1,.87.16,11.5,11.5,0,0,1,1.7,2.06c1.09,1.81,2.16,3.63,3.1,5.52,1.08,2.19,2.11,4.41,3,6.69a70.35,70.35,0,0,1,2.79,8.34c.86,3.51,1.47,7.09,2,10.67.44,2.89.63,5.81.93,8.71Z" fill="#fff"/><path d="M111.07,9.49a3.27,3.27,0,0,1,3.82,2.77.71.71,0,0,1-.32.61,2.38,2.38,0,0,1-3.25-2C111.23,10.43,111.15,10,111.07,9.49Z" fill="#fff"/><polygon points="80.7 35.18 80.7 35.18 80.7 35.18 80.7 35.18" fill="#2b1f27"/><path d="M86,34.83a13.92,13.92,0,0,0,4.71-6.66c.09-.27.16-.53.23-.8a8.73,8.73,0,0,0-1-7.22c-1.48-2.22-3.84-3.22-6.81-3.3l-11.8-.31h0C70.59,19,72,21,74.44,20.9a11.4,11.4,0,0,1,6.5,1.36,6.11,6.11,0,0,1,3,3.94,5.19,5.19,0,0,1-.44,3.45c1.53,4.64-2.75,5.53-2.75,5.53h0A1.33,1.33,0,0,0,80,33.67l-2.08.18-3,2-.86,3.25.65,2.16L89.39,43Z" fill="#fff"/><path d="M82,27.07c-.14.06-.19.59-.09,1,.16.6.74.94.88.83S82.28,27,82,27.07Z" fill="#191619"/><path d="M74.73,41.28c1-7.38,4.82-7.41,5.39-7.34s.58,1.24.58,1.24h0a1.78,1.78,0,0,0-.55-2.42c-.48-.38-1.11-.1-1.78-.15-1.31-.09-4,.44-7.59,2.15l-4.3,5.55Z" fill="#191619"/><path d="M69.05,40.62c2.68-6.87,9-7.94,10.92-7.29,1.29.43.73,1.85.73,1.85a1.63,1.63,0,0,0-.23-2.44,3.23,3.23,0,0,0-1.77-.64c-4.63-.54-8.11,1.57-10.78,3.45a9.41,9.41,0,0,0-3.62,4.51Z" fill="url(#abf4aefd-4738-4c94-b36c-b7d47f2d5332)"/></svg>