<svg id="a1945c34-cb44-459d-96f7-3c0c375d5fbe" data-name="Calque 1" xmlns="http://www.w3.org/2000/svg" viewBox="0 0 854.8 897.93"><title>ROAZ-illustrations</title><path d="M113.73,726.27s-147.65-195.53,23.94-399S594.58,297.29,788.12,0c0,0,135.68,231.45,20,510.78s-435,213.49-534.72,215.49-129.69-14-129.69-14Z" fill="#5ae997"/><path d="M54.67,883.89s85-191.54,192.74-289.31S538.72,420.41,596.58,365.83s93.78-128.4,93.78-128.4S600.57,377.46,361.14,479,0,871.92,0,871.92Z" fill="#fff"/><path d="M816.89,210.6c-.51,3.23-1,6.45-1.52,9.69-.4,2.68-.73,5.36-.92,6.81-3.6,1.26-6.06,2.15-8.54,3-1.06.35-2.71,1.11-3.18.69-5.44-4.91-14.05-6.46-15-16.16-1.13-12.25-3.07-24.47-5.37-36.57-4.87-25.57-10.2-51.06-15.31-76.59-1.05-5.26-2-10.54-3-15.94,10.59-2,11.55-12.73,18-18.47l9,1.72c2.1,4.19,5.1,8.15,6.11,12.57,4.4,19.21,9.24,38.41,12,57.89,3.13,22.27,4.18,44.84,6.21,67.27.08.94.91,1.82,1.39,2.73Z" fill="#fff"/><path d="M99.82,456.42c9.9,1.13,18.36,1.3,26.43,3.17,34.8,8.08,68.94,19.31,104.9,21.71,11.3.75,21.82,3.25,30.19,11.37-4.21,10.13-12.09,10.5-21.82,8.8-16.36-2.86-33-4-49.37-7-14.69-2.69-29.13-6.83-43.64-10.49-10.23-2.59-20.4-5.36-30.56-8.21C107.17,473.32,103.86,466.11,99.82,456.42Z" fill="#191619"/><path d="M601.35,561.21c-10.44,3.27-18,1-25.27-1.77-14.6-5.69-28.64-13.07-43.56-17.66-14.33-4.41-29.51-6-44.24-9.13q-25.81-5.55-51.49-11.83a15.89,15.89,0,0,1-7.43-4.86c-1.43-1.59-2.52-4.7-1.91-6.52.43-1.31,4-2.47,6-2.22,10.78,1.33,21.5,3.23,32.26,4.74,14.14,2,28.6,2.59,42.39,6a436.73,436.73,0,0,1,52,16.58c10.76,4.1,20.79,10.33,30.77,16.24C594.57,552.92,597.16,556.92,601.35,561.21Z" fill="#191619"/><path d="M407.73,406.87c-5.5-8.3-11.36-16.4-16.45-24.95-13-21.8-26-43.61-38.3-65.79-6.65-11.95-12.06-24.61-17.75-37.08-.8-1.75-.05-4.22,0-6.36,2,.18,4,0,5.85.59,10.85,3.52,16.88,12.56,22.14,21.5,10.52,17.89,20.69,36.06,29.67,54.76,7,14.5,12.12,29.88,17.53,45.07,1.23,3.45.18,7.72.18,11.62Z" fill="#191619"/><path d="M691.51,356.61c-10.32.14-11-.12-11-8.81,0-2.31,1.84-5.75,3.82-6.78,17.92-9.34,35.57-19.53,54.36-26.67,7.79-3,18.44-.17,27.26,2.09,4.68,1.21,2.36,7-.7,9.49-5,4.06-10.18,8.26-16,10.7-17,7.11-34.26,13.44-51.5,19.88C695.88,357.2,693.59,356.61,691.51,356.61Z" fill="#191619"/><path d="M303.74,599.3c14.12-4.21,16.37,5.74,20.09,12.23a300.23,300.23,0,0,1,17.29,35.13c2.15,5.25,1.54,11.7,1.92,17.62.29,4.39-3.09,5.57-5.93,4-4-2.18-8.56-5-10.69-8.77-8-14.26-15.78-28.76-22.35-43.74C301.94,610.94,303.74,604.35,303.74,599.3Z" fill="#191619"/><path d="M569.72,241.71c9.2,6.9,9,16.2,10.5,24.59-5.8,4.43-8.31,1.27-10.33-3.23C566.92,256.46,566.86,249.81,569.72,241.71Z" fill="#191619"/></svg>