<svg id="f4daeb7f-8ea6-422b-87f5-e6c8502accf7" data-name="Calque 1" xmlns="http://www.w3.org/2000/svg" xmlns:xlink="http://www.w3.org/1999/xlink" viewBox="0 0 601.62 897.93"><defs><linearGradient id="b39134ca-a013-4fcf-89e4-7d9dd30853ae" x1="758.99" y1="377.27" x2="807.61" y2="328.64" gradientTransform="matrix(1.03, 0.01, -0.31, 0.88, -426.89, -156.55)" gradientUnits="userSpaceOnUse"><stop offset="0" stop-color="#630207"/><stop offset="0.09" stop-color="#720208"/><stop offset="0.53" stop-color="#be040e"/><stop offset="0.84" stop-color="#ed0612"/><stop offset="1" stop-color="#ff0613"/></linearGradient></defs><title>ROAZ-illustrations</title><path d="M51.29,217.76S-7.23,242.37.75,286.27s106.85-4,133-15.52S171,261.11,171,261.11V234l-56.42-23.5L65.5,213.94Z" fill="#191619"/><path d="M179.12,359.93s-40.66-35.88-59.1,3.69,18.91,116,57.18,113.63S179.12,359.93,179.12,359.93Z" fill="#191619"/><path d="M592.67,346.79c-22-40.46-58.24-18.61-73.73-6.42-5.51-69-10.4-111.3-10.4-111.3L152.39,208.12s-20.95,162.61,12,298.29,95.77,124.7,95.77,124.7c4,72.83,8,159.62,8,159.62s23.94,87.79,118.72,70.83,147-99.76,147-99.76c1.29-90.3-.9-177.89-4.46-255.09C579.6,499.93,620.31,397.57,592.67,346.79Z" fill="#efefef"/><polygon points="274.49 557.77 338.32 510.18 338.32 527.48 333.36 553.39 316.14 565.77 293.52 573.37 284.51 569.38 274.49 557.77" fill="#fff"/><path d="M262.13,453.87s.48-45.95-10.51-103.2c-1.79-9.27-14.71-10.19-17.71-1.24-10.69,31.81-25.13,85-23.48,136.34a12.81,12.81,0,0,0,9.72,12c15.34,3.8,40.92,9,59.6-7,25.61-21.95,9.64-35.58-1-38.93C270.13,449.16,262.13,453.87,262.13,453.87Z" fill="#191619"/><circle cx="380.07" cy="363.58" r="13.08" fill="#191619"/><circle cx="388.46" cy="352.67" r="7.65" fill="#fff"/><circle cx="208.82" cy="363.58" r="13.08" fill="#191619"/><circle cx="217.21" cy="352.67" r="7.65" fill="#fff"/><path d="M520.38,427.77c-.77-1.7-2-3.36-2.22-5.12-.81-8.51-1.32-17-2-26.57-6,5.72-11.14,11.38-17.1,15.94-3.14,2.4-7.69,3.12-11.73,4-.7.15-3-2.73-3-4.2,0-6.7.53-13.39,1-20.08.49-7.13,1.12-14.25,1.75-22.22-2.56.55-4.49.95-6.41,1.39-4.37,1-8.69,2.4-13.11,3-11.52,1.5-19-7.74-14.54-19.85,2.46-6.73,6.15-13,9.3-19.49.41-.85.87-1.69,1.42-2.74-.91-.51-1.6-1.22-2.31-1.24-5.48-.14-9.08-4-13.08-6.81-1.6-1.13-2.59-3.53-3.21-5.55-2.19-7.13-.74-13.92,2.91-20.2,2.05-3.52,1.25-5.79-1.68-8.38-3.2-2.84-5.83-6.33-8.71-9.53l.49-1.15c6.89.75,13.9.9,20.62,2.35,16.67,3.6,33.2,7.82,49.79,11.73,6.51,1.54,8.46,5.45,8.77,11.65.73,14.71.94,29.44,1.48,44.16.25,7,.89,14,1.16,21,.26,6.81.13,13.64.43,20.44.5,11.11,1.22,22.22,1.8,33.33a30.61,30.61,0,0,1-.26,3.81Z" fill="#191619"/><path d="M289.88,638.7c-9.45-1.68-18.42-3.06-27.3-4.9-12.47-2.58-25-5.57-36-12.08-6.78-4-12.2-10.29-18.63-15-10.78-7.88-16.6-19.12-21.94-30.76-.38-.84.21-2.12.35-3.19,1,.39,2.43.5,3,1.24a24.18,24.18,0,0,1,3.23,5.37c8,18,22.3,28,40.86,32.52a178.82,178.82,0,0,0,56.21,4.67c10.94-.84,22-4.18,32.35-8a518.08,518.08,0,0,0,49.21-20.92c12.37-6.1,23.56-14.52,35.63-21.29,8.45-4.74,17.44-8.55,26.31-12.48,1.47-.65,3.63.25,5.46.43-.44,1.68-.46,3.66-1.4,5-5.57,7.9-12.87,14.05-20.55,19.8-5.34,4-10.52,8.26-16,12-7.43,5-15,9.93-22.75,14.46-5.63,3.3-11.63,6-17.52,8.81-7.75,3.72-15.49,7.46-23.35,10.91A123.84,123.84,0,0,1,320,631.77C310,634.46,299.8,636.45,289.88,638.7Z" fill="#191619"/><path d="M245.41,767.69c4.2,2.43,2.7,6.06,2.32,8.86-1.35,10-4.29,19.82-4.43,29.75-.11,7.74,1.95,16,5,23.17,5.43,12.91,16,21.84,26.41,31,15.84,13.84,35.46,15.08,54.46,18.75,5.17,1,9.76,2.51,12.75,7a46.17,46.17,0,0,0-3,5.6c-2.16,5.67-4.17,7-9.76,5.71-8.8-2.08-17.53-4.41-26.32-6.51-17.4-4.16-31.55-13.45-43-27.07S240,835.12,237.48,817.4c-.93-6.54.35-13.4.63-20.11.38-9.46,3.08-18.42,6-27.31A15.36,15.36,0,0,1,245.41,767.69Z" fill="#191619"/><path d="M296.86,576c-11.41.69-19-5.11-25.41-12.95-3-3.69-2.46-5.81,1.66-8.73,6.07-4.3,12.51-8.08,18.39-12.62,14.3-11.05,28.4-22.37,42.52-33.66,3.33-2.66,6.27-1.94,8.06,1.9,8.26,17.76,3.23,33.92-7.69,48A45.7,45.7,0,0,1,296.86,576Zm35.46-60.25-57.83,42c6.58,7.07,15.1,9.91,25.44,6.67,14.71-4.6,27.23-11.93,32-28C334,529.49,333.57,522.6,332.32,515.78Z" fill="#191619"/><path d="M490.3,626.11c2.28,3.89,1.91,7.45.42,10.89-7.06,16.34-14.28,32.62-21.3,49-3.07,7.16-5.54,14.59-8.72,21.7-3.68,8.22-7.83,16.23-11.81,24.31-4.46,9-8.81,18.15-13.5,27.08-3.28,6.23-7.06,12.21-10.61,18.3l-1.38-.62c1.36-3.89,2.52-7.87,4.11-11.66Q439.66,736,452,707q13.72-32.12,27.73-64.1A150.21,150.21,0,0,1,487.16,629C487.8,627.85,489.13,627.14,490.3,626.11Z" fill="#191619"/><path d="M482.22,857.36c12.58-10.16,24.17-19.15,35.28-28.69,4.93-4.23,9-9.5,13.27-14.47,4.49-5.24,8.89-10.57,13-16.07,10.87-14.42,17.42-30.17,14.28-48.73a12.65,12.65,0,0,1-.08-2.54,9.78,9.78,0,0,1,.31-1.56,10.27,10.27,0,0,1,7.82,9.73c.7,10.33-1.84,20-6.18,29.26-7.36,15.67-18.69,28.55-29.82,41.49-10.4,12.1-23.81,20.75-36.41,30.28a18.63,18.63,0,0,1-6.82,3.11C485.73,859.45,484.17,858.17,482.22,857.36Z" fill="#191619"/><path d="M377.67,523.35c4.95-6.07,9.73-11.89,14.44-17.76,7.58-9.46,15-19.07,22.69-28.39,7.57-9.12,15.4-18,23.28-26.89a62.66,62.66,0,0,1,8-7.11c.84-.66,2.26-.57,3.41-.83.22,1.29,1.05,2.91.56,3.79a57,57,0,0,1-5.78,8.55c-12.64,15.29-25.42,30.47-38.07,45.75-6.07,7.31-12,14.74-17.94,22.15C385,526.65,382.44,527,377.67,523.35Z" fill="#191619"/><path d="M386.83,281.15c6.81-.66,13.67-2,20.43-1.62,2.51.14,5.33,3.93,7.1,6.65,6.35,9.8,11.5,20.23,14,31.74.92,4.21.71,8.37-1.7,12.23-1.87,3-4.23,3.08-6,0a15,15,0,0,1-1.81-4.94c-1.32-8.76-7-15.3-11.23-22.6A59.33,59.33,0,0,0,386.83,281.15Z" fill="#191619"/><path d="M172.38,307.85a29.64,29.64,0,0,0-1.94-4c-4.69-6.74-3.91-11,3.36-15,9.47-5.2,19.14-10,29.9-12a7,7,0,0,1,5,1.23c2.95,2.35,5.52,5.2,8.76,8.35-5.09,1.47-9.47,2.92-13.95,4-6.81,1.61-12.3,5.37-17.67,9.65C181.79,303.33,178.26,307.67,172.38,307.85Z" fill="#191619"/><path d="M426.14,739.64c0-1.89-.45-3.91.07-5.64,7.93-26.68,16-53.32,24-80,2.07-6.91,4.07-13.85,6.09-20.77.56-1.91,1.09-4.36,3.65-3.37,1.06.4,2.08,3,1.84,4.33a170.82,170.82,0,0,1-4.23,18.33c-5.17,17.13-10.47,34.22-16,51.22-3.57,10.88-7.67,21.59-11.65,32.34-.5,1.36-1.67,2.49-2.53,3.72Z" fill="#191619"/><path d="M286.9,522.26c1.46,3.1,3.42,5.3,3.22,7.27-.29,2.78-1.47,6.24-3.51,7.9-6.34,5.18-13.24,9.66-19.95,14.37-4.12,2.89-9.4,1.75-11.52-2.63a4.23,4.23,0,0,1,.35-3.46c5.27-8.27,12.67-14.15,21.3-18.58C280.24,525.36,283.78,523.76,286.9,522.26Z" fill="#191619"/><path d="M284.51,700.41c6.26-1.34,7.16,3.15,8.43,6.29,5.61,14,10.92,28,16.31,42.08,3.5,9.1,7,18.21,10.34,27.36.44,1.18.06,2.67.06,4l-1.73.56c-2.5-4.53-5.42-8.89-7.43-13.63q-11.82-27.81-23.11-55.82C286,707.87,285.48,704.15,284.51,700.41Z" fill="#191619"/><path d="M528.29,476.45a43.56,43.56,0,0,1-.85-5.86c-.2-11.09-.29-22.17-.4-33.26-.14-12.74-.52-25.47-.33-38.2.2-13.9.86-27.8,1.51-41.69.06-1.26,1.51-2.46,2.31-3.68.87,1.32,2.51,2.66,2.47,4-.3,11.76-1,23.52-1.39,35.28-.4,11-.79,21.92-.88,32.89-.12,14.66.09,29.33,0,44a45.41,45.41,0,0,1-.94,6.6Z" fill="#191619"/><path d="M340.12,488c3.27,8.68-1.54,13-7.78,17.07-6.45,4.15-12.48,9-18.94,13.12-4.39,2.83-7.33,2.23-12.81-2.29,2.63-2.13,5.18-4.14,7.66-6.24,6.17-5.24,12-10.93,18.56-15.66C330.64,491.23,335.55,490,340.12,488Z" fill="#191619"/><path d="M452.78,875.83c-2.09-1.5-4.47-2.68-6.15-4.5-3.82-4.15-2.92-8.3,2.2-10.53a4.16,4.16,0,0,1,3.77.8C455.39,864.68,455.5,871.54,452.78,875.83Z" fill="#191619"/><path d="M383.51,882.71l4.64-2.45c3,4,6.42,8,3.3,13.61-.62,1.11-1.82,2.53-2.83,2.6s-2.48-1.31-2.88-2.37c-1.35-3.56-2.3-7.26-3.41-10.9Z" fill="#191619"/><path d="M266.58,823.47c.45,2.94,1.83,6.24,1,8.78-.43,1.26-5,1.43-7.67,1.42-.81,0-2.42-2.35-2.29-3.47C258.08,825.71,261.52,824.22,266.58,823.47Z" fill="#191619"/><path d="M531.46,802.44c-4.54,3.6-8.86,3.87-11.52.75-1.05-1.25-.71-3.69-1-5.59,1.58-.2,3.47-1,4.67-.46C526.26,798.42,528.56,800.42,531.46,802.44Z" fill="#191619"/><path d="M145.82,215.1s46.47-236.77,228-213.49c218.81,23.94,145,297.89,145,297.89S390.65,242.37,145.82,215.1Z" fill="#ff0613"/><path d="M518.85,299.5s-316.58-129-467.56-81.74c0,0,54.1-14.41,108.19,14.41,43.38,23.12,58.34,84.4,120.16,76.71C355,299.5,402.46,258.87,518.85,299.5Z" fill="#fff"/><path d="M471.18,240.27c0,2.54.35,5.15-.11,7.61a9.79,9.79,0,0,1-2.74,5.14c-2.47,2.23-4.05,1.53-4.41-1.73-1.08-9.59-1.88-19.21-3.06-28.77-1.53-12.34-2.88-24.72-5.15-36.93a276.75,276.75,0,0,0-8.24-33.75,449.4,449.4,0,0,0-15.9-42.91c-5-11.43-11.64-22.15-17.67-33.13-2.07-3.77-5-7.13-6.62-11.07s-2.1-8.11-2.68-12.25c-.11-.73,1.64-2.22,2.75-2.5a4.7,4.7,0,0,1,3.9.73A54.61,54.61,0,0,1,418.9,60c4.89,8.15,9.69,16.39,13.89,24.91,4.86,9.87,9.5,19.9,13.41,30.17,4.69,12.36,9.36,24.84,12.51,37.64,3.88,15.85,6.6,32,9.05,48.17,2,13,2.8,26.2,4.14,39.3Z" fill="#fff"/><path d="M442.53,42.83c8.43-1.34,16.3,4.42,17.15,12.48a3.36,3.36,0,0,1-1.4,2.78c-8.28,2.78-13.51-2.81-14.61-8.88C443.28,47.08,442.91,45,442.53,42.83Z" fill="#fff"/><polygon points="306.19 158.74 306.19 158.74 306.19 158.74 306.19 158.74" fill="#2b1f27"/><path d="M330.05,157.15a62.79,62.79,0,0,0,21.13-30.05c.39-1.2.72-2.4,1-3.58,3.13-12.27,1.59-23.35-4.52-32.58C341,80.9,330.43,76.4,317.11,76l-53-1.42h0c-3.32,11.14,3.08,20.14,13.94,19.68,9.73-.41,20.69.75,29.2,6.16s12,11.9,13.23,17.75c1.61,7.91-1.17,14.51-1.94,15.6,6.83,20.91-12.39,24.94-12.39,24.94h0a6,6,0,0,0-3-6.84l-9.34.85-13.55,9.11-3.85,14.65,2.9,9.75L345.2,194Z" fill="#fff"/><path d="M312,122.16c-.64.26-.86,2.67-.42,4.35.71,2.71,3.33,4.26,4,3.77C316.65,129.43,313.28,121.65,312,122.16Z" fill="#191619"/><path d="M279.41,186.27c4.33-33.28,21.64-33.46,24.19-33.12,3,.39,2.58,5.6,2.58,5.6h0s3.86-5.79-2.45-10.92c-2.14-1.74-5-.47-8-.68-5.89-.41-17.87,2-34.09,9.69l-19.3,25.06Z" fill="#191619"/><path d="M253.89,183.27c12-31,40.24-35.82,49-32.87,5.78,1.94,3.26,8.35,3.26,8.35s5.31-5.89-1-11c-2.14-1.74-4.73-2.5-7.92-2.88-20.8-2.42-36.44,7.1-48.43,15.55-7.55,5.33-14.09,13.07-16.27,20.36Z" fill="url(#b39134ca-a013-4fcf-89e4-7d9dd30853ae)"/></svg>